<svg width="580" height="453" viewBox="0 0 580 453" fill="none" xmlns="http://www.w3.org/2000/svg">
<g clip-path="url(#clip0_485_2)">
<path d="M579.805 214.762H357.756V379.964H579.805V214.762Z" fill="white"/>
<path d="M579.804 379.964C579.804 378.204 579.707 314.763 579.609 214.762L579.804 214.958C517.268 214.958 440.585 214.958 357.853 214.958L358.146 214.664C358.146 274 358.146 330.208 358.146 379.866L357.951 379.67C489.268 379.866 577.756 379.964 579.804 379.964C577.756 379.964 489.268 380.061 357.756 380.159H357.561V379.964C357.561 330.305 357.561 274.098 357.561 214.762V214.469H357.853C440.585 214.469 517.365 214.469 579.804 214.469H580V214.664C579.902 314.763 579.804 378.204 579.804 379.964Z" fill="#4A4743" fill-opacity="0.7"/>
<path d="M579.804 239.2C579.804 239.298 530.243 239.493 469.073 239.493C407.902 239.493 358.341 239.396 358.341 239.2C358.341 239.102 407.902 238.907 469.073 238.907C530.243 239.004 579.804 239.102 579.804 239.2Z" fill="#E0E0E0"/>
<path d="M367.902 230.207C369.734 230.207 371.219 228.719 371.219 226.883C371.219 225.048 369.734 223.56 367.902 223.56C366.07 223.56 364.585 225.048 364.585 226.883C364.585 228.719 366.07 230.207 367.902 230.207Z" fill="#E0E0E0"/>
<path d="M378.049 230.207C379.88 230.207 381.366 228.719 381.366 226.883C381.366 225.048 379.88 223.56 378.049 223.56C376.217 223.56 374.731 225.048 374.731 226.883C374.731 228.719 376.217 230.207 378.049 230.207Z" fill="#E0E0E0"/>
<path d="M388.097 230.207C389.929 230.207 391.414 228.719 391.414 226.883C391.414 225.048 389.929 223.56 388.097 223.56C386.265 223.56 384.78 225.048 384.78 226.883C384.78 228.719 386.265 230.207 388.097 230.207Z" fill="#E0E0E0"/>
<path d="M477.56 202.445C476.585 200.295 474.048 198.828 471.706 199.219C469.072 196.873 464.682 196.776 461.95 198.926C459.902 197.558 457.17 197.362 455.024 198.437C452.877 199.513 451.316 201.761 451.024 204.205C448.584 203.716 445.95 204.889 444.682 207.04C443.414 209.19 443.706 212.123 445.365 213.882C442.731 214.566 440.78 217.499 441.267 220.334C441.755 223.071 444.487 225.221 447.219 225.124L476.194 209.19C477.95 207.431 478.536 204.596 477.56 202.445Z" fill="#E0E0E0"/>
<path d="M446.341 225.71C447.999 213.296 458.828 204.107 471.414 204.791L472.682 204.889C486.048 206.355 492.292 218.574 490.438 231.869L486.243 276.541L486.048 278.692L454.828 283.384L455.414 271.947C455.414 271.947 442.633 269.308 443.121 256.404C443.316 250.148 444.78 237.343 446.341 225.71Z" fill="#FFBE9D"/>
<path d="M455.316 271.947C455.316 271.947 463.511 272.827 472.487 267.842C472.487 267.842 468.097 276.933 455.219 275.173L455.316 271.947Z" fill="#EB996E"/>
<path d="M447.901 219.845C447.901 219.845 451.706 211.927 455.706 210.265C460.486 208.212 462.34 213.491 466.828 212.513C471.413 211.438 475.999 209.483 480.389 213.198C485.267 217.303 482.73 219.845 482.73 225.515C482.828 248.78 486.73 255.622 488.486 244.674C488.682 243.501 491.999 242.719 492.779 237.636C493.755 231.086 494.438 223.168 493.169 218.379C492.096 214.371 490.047 211.536 486.145 208.408C480.096 203.325 471.316 202.836 465.462 203.129C459.511 203.52 447.803 209.679 447.901 219.845Z" fill="#E0E0E0"/>
<path d="M487.706 244.283C487.901 242.328 489.657 240.764 491.609 241.057C494.048 241.448 496.584 242.915 496.194 247.9C495.511 256.698 486.828 254.156 486.828 253.961C486.828 253.765 487.413 247.998 487.706 244.283Z" fill="#FFBE9D"/>
<path d="M489.072 250.833C489.072 250.833 489.17 250.931 489.463 251.126C489.658 251.224 490.146 251.419 490.633 251.224C491.609 250.931 492.487 249.562 492.682 247.998C492.78 247.216 492.682 246.434 492.39 245.75C492.194 245.065 491.804 244.577 491.316 244.479C490.829 244.381 490.536 244.577 490.341 244.87C490.243 245.065 490.243 245.261 490.243 245.261C490.243 245.261 490.048 245.065 490.146 244.772C490.243 244.577 490.341 244.381 490.536 244.283C490.731 244.088 491.121 244.088 491.414 244.088C492.097 244.186 492.682 244.87 492.877 245.554C493.17 246.238 493.268 247.118 493.17 248.096C492.975 249.855 491.902 251.419 490.633 251.713C490.048 251.81 489.463 251.615 489.268 251.322C489.072 251.028 488.975 250.833 489.072 250.833Z" fill="#EB996E"/>
<path d="M488.389 227.177C487.219 227.861 485.95 228.643 484.584 228.741C483.219 228.838 481.658 227.959 481.462 226.59C481.365 226.004 481.56 225.222 481.17 224.733C480.682 224.146 479.804 224.244 479.121 224.342C476.584 224.439 474.048 222.582 473.462 220.041C472.78 221.018 471.219 220.823 470.243 220.138C469.267 219.454 468.682 218.379 467.999 217.401C467.316 216.522 466.243 215.642 465.072 215.74C464.389 215.837 463.804 216.131 463.121 216.033C461.95 215.837 461.462 214.469 461.365 213.296C461.267 212.123 461.17 210.754 460.194 210.07C459.316 209.483 458.145 209.679 457.072 209.874C455.999 209.972 454.633 209.679 454.438 208.604C454.341 208.017 454.633 207.528 454.926 207.04C456.389 204.987 459.414 204.107 461.755 205.182C462.731 202.347 465.56 200.197 468.682 200.001C471.706 199.806 474.731 201.663 476.097 204.4C478.048 202.836 480.78 202.25 483.219 202.934C485.658 203.618 487.706 205.573 488.487 207.919C490.633 207.431 493.072 208.408 494.341 210.265C495.609 212.123 495.706 214.664 494.536 216.522C496.097 217.499 497.365 219.161 497.267 221.018C497.17 222.875 495.316 224.537 493.56 224.048C494.243 225.515 493.56 227.372 492.097 228.154C490.633 228.838 488.78 228.35 487.902 226.981" fill="#E0E0E0"/>
<path d="M494.243 224.048C494.243 224.048 494.341 224.83 493.658 225.71C493.268 226.101 492.682 226.59 491.804 226.688C491.024 226.785 490.048 226.492 489.365 225.808H489.755C489.268 226.59 488.682 227.274 487.902 227.958C487.414 228.349 486.829 228.74 486.243 228.838C485.658 229.034 484.975 229.034 484.487 228.936C483.414 228.74 482.438 228.154 482.048 227.372C481.658 226.59 481.463 225.906 481.463 225.515C481.365 225.026 481.365 224.83 481.463 224.83C481.463 224.83 481.56 225.026 481.658 225.515C481.756 225.906 481.951 226.59 482.341 227.274C483.121 228.545 485.755 229.327 487.609 227.665C488.292 227.079 488.975 226.394 489.365 225.71L489.56 225.417L489.755 225.612C490.341 226.199 491.121 226.492 491.804 226.394C492.487 226.394 493.073 226.003 493.463 225.612C494.146 224.733 494.146 224.048 494.243 224.048Z" fill="white"/>
<path d="M478.535 203.032C478.535 203.032 478.34 203.13 477.852 203.227C477.462 203.423 476.877 203.716 476.389 204.303L476.291 204.498L476.194 204.303C475.413 203.13 474.145 201.663 472.096 200.588C471.121 200.099 469.95 199.708 468.682 199.611C467.413 199.513 466.047 199.806 464.877 200.49C463.901 200.979 463.121 201.663 462.535 202.445C461.95 203.227 461.56 204.205 461.462 205.085V205.378L461.169 205.28C459.901 204.889 458.535 205.085 457.462 205.573C456.389 206.062 455.706 206.844 455.316 207.626C454.535 209.19 454.73 210.266 454.633 210.168C454.633 210.168 454.535 209.875 454.535 209.483C454.535 208.995 454.633 208.31 455.023 207.528C455.413 206.746 456.096 205.867 457.169 205.28C458.242 204.694 459.706 204.498 461.169 204.889L460.877 205.085C460.974 204.107 461.462 203.13 462.047 202.25C462.73 201.37 463.511 200.686 464.486 200.099C465.755 199.415 467.218 199.122 468.584 199.22C469.95 199.317 471.121 199.708 472.194 200.295C474.242 201.37 475.608 203.032 476.291 204.205H476.096C476.584 203.521 477.267 203.227 477.657 203.13C478.34 203.032 478.535 203.032 478.535 203.032Z" fill="white"/>
<path d="M469.072 251.028C468.974 251.028 468.877 250.051 468.194 249.269C467.511 248.389 466.633 248.291 466.633 248.096C466.633 247.998 466.926 247.998 467.316 248.096C467.706 248.194 468.194 248.487 468.682 248.976C469.072 249.464 469.267 250.051 469.267 250.442C469.169 250.735 469.072 251.028 469.072 251.028Z" fill="#EB996E"/>
<path d="M469.95 248.585C469.853 248.682 469.56 248.291 469.072 248.096C468.585 247.803 468.194 247.803 468.194 247.607C468.194 247.509 468.78 247.314 469.365 247.607C469.95 247.998 470.048 248.585 469.95 248.585Z" fill="#EB996E"/>
<path d="M479.414 269.796C479.414 269.796 479.512 269.699 479.707 269.601C479.805 269.405 479.902 269.112 479.804 268.819C479.707 268.526 479.317 268.135 479.024 267.548C478.926 267.255 478.926 266.864 479.122 266.473C479.317 266.18 479.609 265.984 479.707 265.789C480.39 264.909 478.439 264.225 478.731 263.149C478.829 262.661 479.024 262.367 479.219 262.27C479.414 262.172 479.609 262.074 479.609 262.172C479.707 262.27 479.122 262.465 479.122 263.247C479.122 263.638 479.317 263.931 479.707 264.322C479.902 264.518 480.097 264.713 480.292 265.104C480.487 265.398 480.39 265.984 480.097 266.18C479.902 266.473 479.609 266.668 479.512 266.864C479.414 267.059 479.414 267.255 479.512 267.45C479.609 267.841 480 268.232 480.195 268.721C480.39 269.21 480.195 269.601 479.902 269.796C479.609 269.894 479.414 269.796 479.414 269.796Z" fill="#EB996E"/>
<path d="M503.902 340.863L515.609 352.202L511.804 330.599L535.512 323.072C535.512 323.072 541.853 352.691 542.926 359.729C544.877 372.339 542.438 390.228 530.731 391.498C518.048 392.867 508.487 380.355 502.438 372.143C497.755 365.79 490.243 354.744 490.243 354.744L503.902 340.863Z" fill="#FF9123"/>
<path d="M503.902 340.863L515.609 352.202L511.804 330.599L535.512 323.072C535.512 323.072 541.853 352.691 542.926 359.729C544.877 372.339 542.438 390.228 530.731 391.498C518.048 392.867 508.487 380.355 502.438 372.143C497.755 365.79 490.243 354.744 490.243 354.744L503.902 340.863Z" fill="url(#paint0_linear_485_2)" fill-opacity="0.5"/>
<path d="M413.365 321.605C409.56 333.629 404.194 335.486 402.145 369.895C401.755 376.64 403.219 385.536 409.56 387.784C416.584 390.228 427.414 385.829 430.828 379.964V356.21L413.365 321.605Z" fill="#FF9123"/>
<path d="M413.365 321.605C409.56 333.629 404.194 335.486 402.145 369.895C401.755 376.64 403.219 385.536 409.56 387.784C416.584 390.228 427.414 385.829 430.828 379.964V356.21L413.365 321.605Z" fill="url(#paint1_linear_485_2)" fill-opacity="0.5"/>
<path d="M407.706 335.486C407.901 334.802 419.608 302.837 423.413 295.799C427.901 287.392 437.267 283.677 443.121 283.384C448.974 282.993 511.413 287.979 511.413 287.979C511.413 287.979 528.877 292.377 532.486 308.213C536.974 328.155 540.486 347.705 540.486 347.705L509.169 354.45L505.462 345.164L446.633 358.36L432.194 337.148L407.706 335.486Z" fill="#FF9123"/>
<path d="M407.706 335.486C407.901 334.802 419.608 302.837 423.413 295.799C427.901 287.392 437.267 283.677 443.121 283.384C448.974 282.993 511.413 287.979 511.413 287.979C511.413 287.979 528.877 292.377 532.486 308.213C536.974 328.155 540.486 347.705 540.486 347.705L509.169 354.45L505.462 345.164L446.633 358.36L432.194 337.148L407.706 335.486Z" fill="url(#paint2_linear_485_2)" fill-opacity="0.5"/>
<path d="M515.511 289.836L491.121 279.083L488.389 268.526L459.901 282.016L453.852 275.369L451.413 282.798L445.169 284.851L432.877 309.093L430.633 365.398L430.828 379.964L515.023 380.55L514.34 356.601L515.511 289.836Z" fill="#FF9123"/>
<path d="M515.511 289.836L491.121 279.083L488.389 268.526L459.901 282.016L453.852 275.369L451.413 282.798L445.169 284.851L432.877 309.093L430.633 365.398L430.828 379.964L515.023 380.55L514.34 356.601L515.511 289.836Z" fill="url(#paint3_linear_485_2)" fill-opacity="0.5"/>
<path d="M488.389 268.526C488.389 268.526 485.17 269.406 477.072 273.804C469.072 278.106 459.901 282.016 459.901 282.016L460.584 294.919L490.926 279.67" fill="#FF9123"/>
<path d="M488.389 268.526C488.389 268.526 485.17 269.406 477.072 273.804C469.072 278.106 459.901 282.016 459.901 282.016L460.584 294.919L490.926 279.67" fill="url(#paint4_linear_485_2)" fill-opacity="0.5"/>
<path d="M453.852 275.369L459.901 282.016L456.681 295.799L451.315 283.287" fill="#FF9123"/>
<path d="M453.852 275.369L459.901 282.016L456.681 295.799L451.315 283.287" fill="url(#paint5_linear_485_2)" fill-opacity="0.5"/>
<g opacity="0.3">
<g opacity="0.3">
<g opacity="0.3">
<g opacity="0.3">
<path d="M459.804 283.384C459.511 283.58 457.853 299.318 457.853 299.318L488.194 280.94L460.487 294.821L459.804 283.384Z" fill="#FF9123"/>
<path d="M459.804 283.384C459.511 283.58 457.853 299.318 457.853 299.318L488.194 280.94L460.487 294.821L459.804 283.384Z" fill="url(#paint6_linear_485_2)" fill-opacity="0.5"/>
</g>
</g>
</g>
</g>
<path d="M459.999 380.159C459.999 380.159 459.414 356.796 459.902 342.134C460.39 330.11 458.438 299.318 458.438 299.318L454.438 298.634C454.438 298.634 447.024 328.546 444.292 365.105C443.219 379.964 443.219 379.964 443.219 379.964" fill="#4A4743"/>
<path d="M508.292 318.184C508.292 318.184 508.39 318.575 508.585 319.455C508.78 320.335 508.975 321.508 509.17 322.876C509.658 325.809 510.341 329.817 511.121 334.215C511.902 338.614 512.585 342.622 512.975 345.555C513.17 347.021 513.365 348.194 513.463 348.976C513.56 349.758 513.658 350.247 513.56 350.247C513.56 350.247 513.463 349.856 513.268 348.976C513.072 348.096 512.877 346.923 512.682 345.555C512.194 342.622 511.512 338.614 510.731 334.313C509.951 329.914 509.365 325.907 508.877 322.974C508.682 321.605 508.487 320.432 508.39 319.553C508.292 318.673 508.292 318.184 508.292 318.184Z" fill="black" fill-opacity="0.5"/>
<path d="M517.267 291.693C517.267 291.791 516.487 292.475 515.219 293.746C513.95 295.017 512.487 296.972 511.121 299.318C509.853 301.664 509.072 304.01 508.78 305.77C508.389 307.529 508.292 308.605 508.194 308.605C508.194 308.605 508.194 308.311 508.194 307.823C508.194 307.334 508.292 306.552 508.487 305.672C508.78 303.912 509.463 301.469 510.828 299.123C512.097 296.679 513.755 294.821 515.024 293.551C515.706 292.964 516.194 292.475 516.682 292.182C517.072 291.791 517.267 291.693 517.267 291.693Z" fill="black" fill-opacity="0.5"/>
<path d="M459.999 288.174L457.268 287.099L454.633 291.497L454.243 298.731L457.853 299.318L460.585 294.919L459.999 288.174Z" fill="#4A4743"/>
<path d="M430.634 309.777C430.731 309.777 430.829 325.515 430.829 344.87C430.829 364.225 430.731 379.964 430.634 379.964C430.536 379.964 430.438 364.225 430.438 344.87C430.438 325.515 430.536 309.777 430.634 309.777Z" fill="black" fill-opacity="0.5"/>
<path d="M460.194 281.918C460.291 281.918 459.609 282.895 458.633 284.557C457.657 286.219 456.389 288.467 455.218 291.009C455.121 291.204 455.023 291.4 454.926 291.595L454.73 291.986L454.535 291.595C453.365 289.152 452.487 286.806 451.999 285.144C451.706 284.264 451.511 283.58 451.413 283.189C451.316 282.7 451.218 282.407 451.316 282.407C451.413 282.407 451.706 283.384 452.291 285.046C452.877 286.708 453.755 288.956 454.926 291.4H454.535C454.633 291.204 454.73 291.009 454.828 290.813C456.096 288.174 457.365 285.926 458.438 284.362C458.926 283.58 459.413 282.993 459.706 282.504C459.901 282.113 460.096 281.82 460.194 281.918Z" fill="black" fill-opacity="0.5"/>
<path d="M491.121 279.083C491.121 279.083 491.023 279.181 490.731 279.377C490.438 279.572 490.048 279.768 489.462 280.061C488.389 280.647 486.828 281.429 484.975 282.407C481.17 284.362 475.901 287.197 470.145 290.325C466.633 292.182 463.316 293.942 460.389 295.408L460.097 295.506V295.212C460.097 291.4 459.999 288.272 459.999 285.926C459.999 284.851 459.999 283.971 459.999 283.287C459.999 282.7 459.999 282.407 459.999 282.407C459.999 282.407 459.999 282.7 460.097 283.287C460.097 283.971 460.194 284.851 460.194 285.926C460.292 288.272 460.292 291.4 460.389 295.212L460.097 295.017C463.023 293.551 466.34 291.791 469.853 289.934C475.609 286.806 480.877 284.069 484.78 282.114C486.731 281.136 488.292 280.354 489.365 279.865C489.853 279.67 490.341 279.474 490.633 279.279C490.926 279.083 491.121 278.986 491.121 279.083Z" fill="black" fill-opacity="0.5"/>
<path d="M434.243 288.956C434.34 288.956 433.852 289.836 433.169 291.204C432.584 292.573 431.803 294.528 431.413 296.776C431.023 299.025 430.925 301.175 431.023 302.641C431.121 304.108 431.218 305.085 431.218 305.085C431.218 305.085 431.121 304.89 431.023 304.401C430.925 304.01 430.828 303.423 430.73 302.641C430.535 301.077 430.535 299.025 431.023 296.679C431.413 294.332 432.194 292.377 432.877 291.009C433.267 290.325 433.56 289.836 433.755 289.445C434.145 289.152 434.243 288.956 434.243 288.956Z" fill="black" fill-opacity="0.5"/>
<path d="M455.619 299.089C456.394 299.579 457.069 299.902 457.126 299.81C457.184 299.719 456.602 299.248 455.828 298.758C455.053 298.269 454.378 297.946 454.321 298.037C454.263 298.128 454.844 298.599 455.619 299.089Z" fill="#263238"/>
<path d="M456.619 294.452C457.529 296.528 458.347 298.176 458.446 298.132C458.544 298.089 457.886 296.371 456.976 294.295C456.066 292.219 455.248 290.571 455.149 290.614C455.051 290.658 455.709 292.376 456.619 294.452Z" fill="#263238"/>
<path d="M534.535 371.361C534.535 371.361 534.535 371.264 534.438 371.166C534.34 371.068 534.243 370.873 534.145 370.579C534.047 370.286 533.852 369.993 533.657 369.7C533.462 369.406 533.169 369.015 532.877 368.527C531.706 366.767 529.657 364.519 526.828 361.879C523.999 359.24 520.389 356.308 516.389 352.984C514.34 351.322 512.194 349.563 510.047 347.51C507.901 345.555 505.755 343.404 503.706 340.96H503.999C500.194 344.968 496.096 349.269 491.803 353.766C491.218 354.353 490.73 354.939 490.145 355.428V355.135C494.73 361.879 498.925 368.429 503.316 373.903C505.462 376.64 507.706 379.084 509.95 381.332C512.096 383.58 514.243 385.536 516.389 387.1C520.584 390.325 524.877 391.694 527.804 391.596C528.194 391.596 528.486 391.596 528.877 391.596C529.169 391.596 529.462 391.498 529.755 391.498C530.047 391.498 530.34 391.401 530.535 391.401C530.73 391.303 531.023 391.303 531.121 391.303C531.511 391.205 531.804 391.205 531.999 391.107C532.194 391.107 532.291 391.01 532.291 391.01C532.291 391.01 532.194 391.01 531.999 391.107C531.804 391.205 531.511 391.205 531.121 391.303C530.926 391.401 530.73 391.401 530.535 391.498C530.34 391.498 530.047 391.596 529.755 391.596C529.462 391.596 529.169 391.694 528.877 391.694C528.584 391.694 528.194 391.694 527.804 391.694C524.779 391.792 520.486 390.423 516.194 387.295C514.047 385.731 511.901 383.776 509.657 381.528C507.413 379.279 505.169 376.836 502.925 374.099C498.438 368.624 494.243 362.075 489.657 355.33L489.56 355.232L489.657 355.135C490.145 354.548 490.73 354.059 491.316 353.473C495.608 348.976 499.706 344.675 503.511 340.667L503.706 340.472L503.804 340.667C505.755 343.111 507.901 345.262 510.047 347.217C512.194 349.172 514.34 350.931 516.291 352.691C520.291 356.112 523.901 359.045 526.73 361.684C529.56 364.323 531.608 366.669 532.779 368.429C533.072 368.918 533.267 369.309 533.56 369.602C533.755 369.993 533.852 370.286 533.95 370.579C534.047 370.775 534.145 370.97 534.243 371.166C534.535 371.264 534.535 371.361 534.535 371.361Z" fill="black" fill-opacity="0.5"/>
<g opacity="0.3">
<g opacity="0.3">
<path opacity="0.3" d="M493.072 359.142L491.706 358.751C492.877 365.399 496.487 374.685 499.706 380.55H509.267C505.657 376.054 493.072 359.142 493.072 359.142Z" fill="black"/>
</g>
</g>
<path d="M502.048 342.72L482.731 321.605L471.219 319.455L458.146 321.116C458.146 321.116 457.56 323.169 459.804 324.342L454.926 324.635C454.926 324.635 453.951 327.177 456.682 328.252L453.268 328.839C453.268 328.839 454.829 332.358 458.633 331.674C462.536 330.989 468.877 330.989 468.877 330.989L475.707 334.704L465.56 334.313L458.243 335.682C458.243 335.682 457.268 337.539 458.926 338.028C460.585 338.516 466.926 338.028 466.926 338.028L476.097 340.96C476.097 340.96 479.707 346.043 480.877 347.412C482.146 348.78 488.097 351.322 488.097 351.322L491.024 353.961L502.048 342.72Z" fill="#FFBE9D"/>
<path d="M454.926 324.538C454.926 324.636 456.389 324.538 458.731 324.44C461.072 324.245 464.194 323.951 467.804 323.56C468.975 323.463 470.145 323.267 471.218 323.169H471.121C473.755 323.951 475.999 324.538 477.657 324.929C479.316 325.32 480.292 325.515 480.292 325.418C480.292 325.32 479.414 325.027 477.755 324.44C476.194 323.951 473.95 323.169 471.316 322.387H471.218H471.121C470.048 322.485 468.877 322.583 467.706 322.778C464.194 323.169 460.975 323.56 458.731 323.854C456.292 324.245 454.926 324.44 454.926 324.538Z" fill="#EB996E"/>
<path d="M454.048 328.644C454.048 328.741 455.414 328.644 457.462 328.448C459.511 328.253 462.438 327.861 465.658 327.373C466.731 327.177 467.804 327.079 468.78 326.884H468.584C473.17 328.644 476.487 329.817 476.584 329.719C476.682 329.523 473.365 328.057 468.877 326.2H468.78H468.682C467.706 326.297 466.633 326.493 465.56 326.688C462.341 327.177 459.511 327.666 457.462 327.959C455.316 328.253 454.048 328.546 454.048 328.644Z" fill="#EB996E"/>
<path d="M405.072 325.32L414.828 362.27C415.414 364.323 417.267 365.691 419.316 365.691L469.853 364.714C472.682 364.616 474.828 361.977 474.243 359.142L466.828 323.756C466.34 321.605 464.487 320.139 462.34 320.139H408.975C406.341 320.139 404.292 322.68 405.072 325.32Z" fill="#455A64"/>
<path d="M439.46 338.471C440.054 337.26 439.438 335.737 438.084 335.071C436.73 334.404 435.151 334.845 434.556 336.057C433.962 337.268 434.578 338.791 435.932 339.457C437.286 340.124 438.866 339.683 439.46 338.471Z" fill="white"/>
<path d="M401.365 333.433C400.389 332.358 400.487 330.5 401.365 329.327C402.243 328.154 403.706 327.568 405.17 327.47C406.633 327.372 408.097 327.861 409.462 328.35C411.121 329.034 412.78 329.816 414.341 330.794C415.414 331.478 416.584 332.358 416.78 333.628C416.975 334.899 415.609 336.366 414.536 335.681C415.999 336.268 417.462 337.832 417.658 339.396C417.853 340.96 417.072 341.84 415.511 342.328C416.682 342.817 417.462 344.283 416.877 345.457C416.292 346.63 414.633 347.021 413.365 346.532C412.097 346.043 411.219 344.968 410.341 343.99C411.219 345.554 411.511 347.314 411.219 349.073C407.804 347.9 405.17 344.674 404.682 341.058C403.023 339.787 402.438 337.245 403.414 335.388C402.048 334.997 400.487 332.846 400.584 331.38" fill="#FFBE9D"/>
<path d="M415.413 342.426C415.413 342.426 414.828 342.035 413.95 341.253C413.072 340.569 411.706 339.592 410.048 339.298C409.17 339.103 408.389 339.103 407.706 339.298C407.023 339.494 406.438 339.787 405.95 340.178C405.072 340.862 404.877 341.644 404.779 341.644C404.779 341.644 404.779 341.449 404.877 341.156C404.974 340.862 405.267 340.471 405.657 339.983C406.048 339.592 406.731 339.201 407.511 339.005C408.292 338.81 409.17 338.81 410.048 339.005C411.804 339.396 413.17 340.374 414.048 341.156C415.023 341.84 415.413 342.426 415.413 342.426Z" fill="#EB996E"/>
<path d="M415.024 335.975C415.024 336.072 414.341 335.779 413.268 335.192C412.682 334.899 412.097 334.606 411.316 334.313C410.633 334.019 409.755 333.824 408.877 333.628C407.999 333.433 407.121 333.433 406.341 333.628C405.56 333.726 404.975 334.117 404.487 334.41C403.512 335.095 403.316 335.877 403.316 335.877C403.316 335.877 403.316 335.681 403.414 335.388C403.512 335.095 403.804 334.606 404.292 334.215C404.78 333.824 405.463 333.433 406.243 333.237C407.024 333.042 407.999 333.042 408.877 333.237C409.755 333.433 410.633 333.628 411.414 333.922C412.194 334.215 412.78 334.606 413.365 334.801C414.438 335.486 415.024 335.877 415.024 335.975Z" fill="#EB996E"/>
<path d="M393.56 252.787L381.169 252.494C378.828 247.9 375.218 243.892 370.438 241.057C356.779 232.943 339.218 237.342 331.023 251.028C322.926 264.713 327.316 282.308 340.974 290.52C354.633 298.633 372.194 294.234 380.389 280.549C383.804 274.879 384.974 268.428 384.291 262.367L393.56 252.787Z" fill="#FAFAFA"/>
<path d="M393.561 252.788C393.17 253.276 390.244 256.307 384.292 262.465L384.195 262.563L384.097 262.465H384.292C384.585 264.518 384.585 266.864 384.292 269.405C384 271.947 383.317 274.586 382.146 277.323C381.561 278.692 380.878 280.06 380 281.331C379.512 282.015 379.122 282.7 378.634 283.286C378.146 283.873 377.561 284.557 377.073 285.144C374.829 287.587 372.097 289.836 368.878 291.497C365.658 293.159 361.951 294.332 358.049 294.625C354.146 294.919 349.951 294.528 346.049 293.061C342.146 291.595 338.341 289.347 335.219 286.219C332.097 283.091 329.561 279.181 328.195 274.88L327.707 273.218C327.512 272.631 327.414 272.045 327.317 271.556C327.219 270.969 327.024 270.383 327.024 269.894L326.829 268.135C326.731 267.548 326.731 266.962 326.731 266.375C326.731 265.789 326.731 265.202 326.731 264.713C326.829 264.127 326.829 263.54 326.927 263.052C327.024 262.465 327.024 261.878 327.122 261.39C327.805 256.991 329.561 252.788 332 249.268C334.439 245.749 337.561 242.915 341.073 240.862C344.585 238.809 348.292 237.636 352 237.147C355.707 236.658 359.219 236.952 362.536 237.734C365.756 238.516 368.683 239.982 371.219 241.448C373.756 243.012 375.805 244.87 377.463 246.825C379.122 248.78 380.39 250.637 381.268 252.494H381.171C389.073 252.69 392.975 252.788 393.561 252.788C392.975 252.788 389.073 252.69 381.171 252.592H381.073C380.097 250.832 378.927 248.877 377.268 247.02C375.61 245.163 373.561 243.306 371.122 241.742C368.585 240.275 365.756 238.809 362.536 238.027C359.317 237.245 355.805 237.049 352.097 237.44C348.488 237.929 344.78 239.102 341.366 241.057C337.951 243.012 334.829 245.847 332.39 249.366C329.951 252.788 328.292 256.893 327.512 261.292C327.414 261.878 327.414 262.367 327.317 262.954C327.317 263.54 327.219 264.029 327.219 264.616C327.219 265.202 327.219 265.691 327.219 266.277C327.219 266.864 327.219 267.45 327.317 267.939L327.512 269.601C327.512 270.187 327.707 270.676 327.805 271.263C327.902 271.849 328 272.436 328.195 272.924L328.683 274.586C330.049 278.887 332.488 282.7 335.61 285.828C338.634 288.956 342.341 291.204 346.244 292.573C350.146 293.941 354.244 294.43 358.146 294.137C362.049 293.843 365.658 292.67 368.878 291.009C372.097 289.347 374.829 287.196 377.073 284.752C377.561 284.166 378.146 283.482 378.634 282.895C379.122 282.211 379.512 281.624 380 280.94C380.878 279.669 381.561 278.301 382.146 276.932C383.317 274.293 384 271.556 384.292 269.112C384.585 266.571 384.585 264.322 384.292 262.269L384.195 261.585L384.488 262.172H384.39C390.146 256.307 393.17 253.276 393.561 252.788Z" fill="#4A4743" fill-opacity="0.7"/>
<path d="M344.292 268.037C345.908 268.037 347.219 266.724 347.219 265.104C347.219 263.485 345.908 262.172 344.292 262.172C342.676 262.172 341.365 263.485 341.365 265.104C341.365 266.724 342.676 268.037 344.292 268.037Z" fill="#4A4743" fill-opacity="0.7"/>
<path d="M355.999 268.037C357.616 268.037 358.926 266.724 358.926 265.104C358.926 263.485 357.616 262.172 355.999 262.172C354.383 262.172 353.072 263.485 353.072 265.104C353.072 266.724 354.383 268.037 355.999 268.037Z" fill="#4A4743" fill-opacity="0.7"/>
<path d="M367.999 268.037C369.616 268.037 370.926 266.724 370.926 265.104C370.926 263.485 369.616 262.172 367.999 262.172C366.383 262.172 365.072 263.485 365.072 265.104C365.072 266.724 366.383 268.037 367.999 268.037Z" fill="#4A4743" fill-opacity="0.7"/>
<path d="M488.977 18.8667H266.928V181.527H488.977V18.8667Z" fill="white"/>
<path d="M488.976 181.527C488.976 179.767 488.879 117.401 488.781 18.8665L488.976 19.062C426.635 19.062 349.854 19.062 267.025 19.062L267.318 18.7687C267.318 77.1269 267.318 132.455 267.318 181.429L267.123 181.233C398.342 181.429 486.928 181.527 488.976 181.527C486.928 181.527 398.342 181.624 266.928 181.722H266.732V181.527C266.732 132.553 266.732 77.2247 266.732 18.8665V18.5732H267.025C349.952 18.5732 426.732 18.5732 488.976 18.5732H489.171V18.7687C489.074 117.401 488.976 179.767 488.976 181.527Z" fill="#4A4743" fill-opacity="0.7"/>
<path d="M489.756 42.5227C489.756 42.6205 440.195 42.816 379.025 42.816C317.854 42.816 268.293 42.7183 268.293 42.5227C268.293 42.425 317.854 42.2295 379.025 42.2295C440.098 42.3272 489.756 42.425 489.756 42.5227Z" fill="#E0E0E0"/>
<path d="M277.854 33.5295C279.686 33.5295 281.171 32.0415 281.171 30.2059C281.171 28.3703 279.686 26.8823 277.854 26.8823C276.022 26.8823 274.537 28.3703 274.537 30.2059C274.537 32.0415 276.022 33.5295 277.854 33.5295Z" fill="#E0E0E0"/>
<path d="M287.903 33.5295C289.735 33.5295 291.22 32.0415 291.22 30.2059C291.22 28.3703 289.735 26.8823 287.903 26.8823C286.071 26.8823 284.586 28.3703 284.586 30.2059C284.586 32.0415 286.071 33.5295 287.903 33.5295Z" fill="#E0E0E0"/>
<path d="M297.952 33.5295C299.784 33.5295 301.269 32.0415 301.269 30.2059C301.269 28.3703 299.784 26.8823 297.952 26.8823C296.12 26.8823 294.635 28.3703 294.635 30.2059C294.635 32.0415 296.12 33.5295 297.952 33.5295Z" fill="#E0E0E0"/>
<path d="M281.366 83.2853L282.732 82.4055C285.269 80.7437 288.683 81.6235 290.147 84.3605C292.391 88.4661 295.22 94.2335 295.22 94.2335L289.269 103.618L287.317 103.716C285.171 105.084 280.098 102.347 276.781 100.196C273.366 98.1436 275.025 96.0908 275.025 96.0908C272.878 93.1583 275.805 91.8875 275.805 91.8875C273.952 89.2482 276.683 87.3909 276.683 87.3909" fill="#FFBE9D"/>
<path d="M247.213 121.777L289.946 113.572L278.471 53.5706L235.737 61.7757L247.213 121.777Z" fill="white"/>
<path d="M247.122 121.8C247.122 121.8 247.122 121.702 247.025 121.506C247.025 121.311 246.927 121.018 246.83 120.724C246.634 119.942 246.439 118.867 246.147 117.499C245.561 114.664 244.781 110.46 243.708 105.182C241.659 94.6245 238.732 79.5707 235.317 61.7798V61.5842H235.513C248.391 59.1404 262.927 56.3056 278.244 53.373H278.537V53.6663C282.83 76.1494 286.732 96.8729 289.952 113.686V113.882H289.756C276.781 116.326 266.049 118.378 258.537 119.747C254.83 120.431 251.903 121.018 249.952 121.311C248.976 121.506 248.195 121.604 247.708 121.702C247.415 121.8 247.122 121.8 247.122 121.8C247.122 121.8 247.415 121.702 247.903 121.604C248.391 121.506 249.171 121.311 250.147 121.115C252.195 120.724 255.025 120.138 258.732 119.454C266.147 117.987 276.878 115.935 289.756 113.393L289.561 113.589C286.342 96.8729 282.342 76.0516 278.049 53.5686L278.342 53.7641C263.025 56.6966 248.488 59.4337 235.61 61.9753L235.805 61.682C239.122 79.3752 241.952 94.3313 244 104.889C244.976 110.167 245.756 114.371 246.342 117.205C246.634 118.672 246.83 119.747 246.927 120.529C247.025 120.92 247.025 121.213 247.122 121.409C247.122 121.702 247.122 121.8 247.122 121.8Z" fill="#4A4743" fill-opacity="0.7"/>
<path d="M258.551 72.2227C249.82 73.8991 242.766 75.3871 242.797 75.5462C242.827 75.7053 249.93 74.4752 258.661 72.7987C267.393 71.1222 274.446 69.6342 274.416 69.4752C274.385 69.3161 267.282 70.5462 258.551 72.2227Z" fill="#4A4743" fill-opacity="0.7"/>
<path d="M259.397 76.4873C250.666 78.1638 243.612 79.6518 243.643 79.8108C243.673 79.9699 250.776 78.7398 259.507 77.0633C268.238 75.3869 275.292 73.8989 275.261 73.7398C275.231 73.5808 268.128 74.8109 259.397 76.4873Z" fill="#4A4743" fill-opacity="0.7"/>
<path d="M260.226 80.6577C251.495 82.3342 244.441 83.8222 244.472 83.9812C244.502 84.1403 251.605 82.9102 260.336 81.2337C269.067 79.5573 276.121 78.0693 276.09 77.9102C276.06 77.7512 268.957 78.9813 260.226 80.6577Z" fill="#4A4743" fill-opacity="0.7"/>
<path d="M260.977 84.9414C252.246 86.6179 245.192 88.1059 245.223 88.2649C245.253 88.424 252.356 87.1939 261.087 85.5174C269.818 83.841 276.872 82.353 276.841 82.1939C276.811 82.0349 269.708 83.265 260.977 84.9414Z" fill="#4A4743" fill-opacity="0.7"/>
<path d="M261.823 89.207C253.091 90.8835 246.038 92.3715 246.068 92.5306C246.099 92.6896 253.201 91.4595 261.933 89.7831C270.664 88.1066 277.718 86.6186 277.687 86.4595C277.657 86.3005 270.554 87.5306 261.823 89.207Z" fill="#4A4743" fill-opacity="0.7"/>
<path d="M262.651 93.3765C253.919 95.053 246.866 96.5409 246.896 96.7C246.927 96.8591 254.03 95.629 262.761 93.9525C271.492 92.276 278.546 90.788 278.515 90.629C278.485 90.4699 271.382 91.7 262.651 93.3765Z" fill="#4A4743" fill-opacity="0.7"/>
<path d="M263.402 97.6597C254.67 99.3362 247.617 100.824 247.647 100.983C247.678 101.142 254.781 99.9122 263.512 98.2357C272.243 96.5592 279.297 95.0713 279.266 94.9122C279.236 94.7531 272.133 95.9832 263.402 97.6597Z" fill="#4A4743" fill-opacity="0.7"/>
<path d="M264.246 101.926C255.515 103.603 248.462 105.091 248.492 105.25C248.523 105.409 255.625 104.179 264.357 102.502C273.088 100.826 280.141 99.3378 280.111 99.1788C280.081 99.0197 272.978 100.25 264.246 101.926Z" fill="#4A4743" fill-opacity="0.7"/>
<path d="M265.076 106.095C256.344 107.772 249.291 109.26 249.321 109.419C249.352 109.578 256.454 108.348 265.186 106.671C273.917 104.995 280.97 103.507 280.94 103.348C280.91 103.189 273.807 104.419 265.076 106.095Z" fill="#4A4743" fill-opacity="0.7"/>
<path d="M272.585 56.9899C272.585 56.9899 272.683 57.3809 272.878 58.0651C273.073 58.8472 273.268 59.8247 273.561 60.9977C273.659 61.291 273.659 61.682 273.756 61.9752C273.854 62.3663 273.854 62.7573 273.659 63.1483C273.463 63.9303 272.683 64.6146 271.805 64.8101C270.927 65.0056 269.854 64.5168 269.268 63.637C269.171 63.4415 269.073 63.1483 268.976 62.9528C268.976 62.7573 268.878 62.464 268.878 62.2685C268.781 61.7797 268.683 61.291 268.585 60.9C268.39 59.9224 268.195 59.0427 268.098 58.0651C268 57.5764 267.903 57.1854 267.805 56.6966C267.707 56.3056 267.61 55.8168 267.707 55.3281C267.805 54.4483 268.195 53.5685 268.878 53.0798C269.464 52.591 270.244 52.3955 270.927 52.3955C272.293 52.3955 273.171 53.373 273.561 53.9595C273.756 54.2528 273.854 54.5461 273.854 54.7416C273.854 54.9371 273.854 55.0348 273.854 55.0348C273.756 55.0348 273.756 54.6438 273.366 54.0573C272.976 53.4708 272.195 52.7865 270.927 52.7865C270.342 52.7865 269.659 52.982 269.171 53.4708C268.683 53.9595 268.293 54.6438 268.195 55.4258C268.195 55.8168 268.293 56.2079 268.293 56.5989C268.39 56.9899 268.488 57.4786 268.585 57.9674C268.781 58.8472 268.976 59.8247 269.171 60.7045C269.268 61.1932 269.366 61.682 269.464 62.073C269.464 62.2685 269.561 62.5618 269.561 62.7573C269.561 62.9528 269.659 63.1483 269.756 63.3438C270.146 64.028 271.024 64.4191 271.707 64.3213C272.488 64.2235 273.073 63.637 273.268 63.0505C273.366 62.7573 273.366 62.3662 273.366 62.073C273.268 61.7797 273.268 61.3887 273.171 61.0955C272.976 59.9224 272.781 58.9449 272.683 58.1629C272.585 57.3809 272.488 56.9899 272.585 56.9899Z" fill="#4A4743" fill-opacity="0.7"/>
<path d="M285.268 81.5259C284.975 81.5259 272.293 83.4809 272.293 83.4809C272.097 84.654 272.78 86.3157 275.707 86.3157C278.536 86.3157 281.073 86.1202 281.073 86.1202C281.073 86.1202 284.195 92.6696 287.317 93.3539C290.439 94.0382 288.878 87.0978 288.878 87.0978L285.268 81.5259Z" fill="#FFBE9D"/>
<path d="M430.537 40.1764C431.61 37.6348 432.781 34.9955 432.878 32.1607C432.976 29.3259 431.805 26.2956 429.464 25.0248C427.22 23.8518 424.488 24.4383 422.147 23.5585C419.22 22.4832 417.366 19.5507 416.098 16.7158C414.83 13.7833 416.586 12.8057 414.439 10.5574C411.513 7.52711 409.659 7.1361 405.952 8.99339C403.317 7.1361 394.147 3.71476 391.415 3.61701C387.513 3.51926 383.025 3.81252 380.293 6.64734C378.147 8.79789 376.781 11.6327 374.147 13.1967C370.537 15.3473 365.952 13.49 361.756 13.6855C360.878 13.6855 359.903 13.9788 359.513 14.7608C359.22 15.4451 359.513 16.2271 359.805 16.9113C360.878 19.1596 361.952 21.4079 363.025 23.6563C361.269 24.4383 359.122 24.4383 357.366 23.5585C357.561 27.9574 359.317 32.3562 362.342 35.582C361.561 35.0933 360.488 35.582 360.098 36.4618C359.708 37.3416 359.903 38.2214 360.098 39.1989C361.561 44.5753 365.464 49.3651 370.537 51.8089C375.61 54.2528 381.659 54.4483 386.83 52.2L409.952 53.9595C410.635 55.8168 412.098 57.1853 413.952 57.6741C416.586 55.719 416.976 54.6438 416.976 54.6438C418.537 55.8168 417.366 55.2303 418.537 55.8168C421.366 57.1853 425.659 55.5235 426.342 52.3955C426.635 51.0269 427.025 49.7561 427.903 48.8764C428.781 47.8988 430.147 47.6056 431.317 47.0191C433.171 46.1393 434.635 44.5753 435.513 42.718C433.659 42.4247 431.805 41.6427 430.537 40.1764Z" fill="#4A4743"/>
<path d="M414.147 30.3034L414.732 78.2021C414.83 86.3155 413.366 98.3391 400.488 97.8503C389.366 96.5795 386.342 86.0223 386.342 78.4954C386.342 74.8785 386.244 71.8482 386.244 71.5549C386.244 71.5549 374.049 70.5774 373.074 58.5539C372.586 52.6887 372.488 40.6652 372.586 29.7169C372.683 17.9866 381.756 8.30912 393.464 7.42935L394.635 7.3316C407.122 7.03834 414.342 17.6934 414.147 30.3034Z" fill="#FFBE9D"/>
<path d="M386.146 71.4573C386.146 71.4573 393.756 71.3596 401.464 65.6899C401.464 65.6899 398.244 74.7809 386.146 74.5854V71.4573Z" fill="#EB996E"/>
<path d="M413.757 39.2967C413.952 39.199 421.854 36.2664 422.147 44.4776C422.44 52.7866 414.147 51.418 414.147 51.1248C414.147 50.9293 413.757 39.2967 413.757 39.2967Z" fill="#FFBE9D"/>
<path d="M416.586 47.8988C416.586 47.8988 416.781 47.9965 416.976 48.0943C417.171 48.1921 417.659 48.2898 418.049 48.0943C418.927 47.7033 419.61 46.3348 419.61 44.8685C419.61 44.0865 419.415 43.4022 419.122 42.8157C418.83 42.2292 418.44 41.8381 417.952 41.7404C417.464 41.6426 417.171 41.9359 417.074 42.1314C416.976 42.3269 417.074 42.5224 416.976 42.5224C416.976 42.5224 416.781 42.4247 416.879 42.0337C416.879 41.8381 416.976 41.6426 417.171 41.5449C417.366 41.3494 417.659 41.2516 417.952 41.3494C418.635 41.3494 419.22 41.9359 419.513 42.5224C419.903 43.2067 420.098 43.9887 420.098 44.7707C420.098 46.4325 419.318 47.9965 418.147 48.3876C417.562 48.5831 417.074 48.3876 416.781 48.1921C416.586 48.0943 416.586 47.8988 416.586 47.8988Z" fill="#EB996E"/>
<path d="M424.781 25.9046C423.025 22.972 422.634 19.5506 421.756 16.2271C420.781 13.0012 419.025 9.5799 415.805 8.50462H415.708C412.878 7.33159 409.366 7.33159 407.025 9.28664C406.439 4.98554 402.732 1.5642 398.537 0.488925C394.342 -0.586351 387.61 0.000163261 383.61 1.66195C380.488 2.93274 377.464 5.4743 373.854 9.28664C372.293 10.8507 370.927 12.6102 369.659 14.3698L366.049 25.6113C365.659 25.9046 365.269 26.2956 365.073 26.6866C363.61 28.6416 366.342 31.1832 368.195 29.5214C368.586 30.2057 368.878 30.7922 369.171 31.4764L369.269 31.5742C369.464 31.9652 369.659 32.3562 369.854 32.7472L372.683 45.1618C372.878 41.7404 372.586 30.0102 372.781 26.5888C378.049 26.3933 382.732 24.2428 386.244 20.3327C388.098 18.2799 389.561 15.7383 392 14.4675C395.22 12.9035 399.025 14.0765 402.342 15.2495L402.244 15.1518C404 15.9338 405.561 17.1068 406.927 18.4754C406.147 25.1225 406.83 31.9652 408.976 38.4169C409.269 39.3944 410.147 41.3494 411.122 41.7404C412.976 42.4247 413.464 40.5674 414.634 39.5899C415.415 38.8079 416.683 38.7101 418.049 38.8079C418.83 36.7551 419.61 33.236 420.293 30.2057C421.366 30.4989 422.634 30.5967 423.708 30.4012C423.317 29.5214 423.025 28.7394 422.634 27.8596C423.122 28.1529 423.61 28.4461 424.098 28.5439C424.683 28.6416 425.269 28.4461 425.464 27.9574C425.561 27.2731 425.171 26.4911 424.781 25.9046Z" fill="#4A4743"/>
<path d="M411.848 10.7529C411.848 10.7529 412.335 11.0462 413.018 11.8282C413.701 12.6102 414.482 13.9788 414.872 15.8361C415.067 16.7158 415.165 17.7911 415.165 18.8664C415.165 19.9417 415.067 21.2124 414.97 22.3855C414.872 23.6562 414.774 24.927 414.872 26.2956C414.872 26.9798 414.97 27.6641 415.165 28.3484C415.36 29.0326 415.457 29.8146 416.043 30.4012C416.433 30.8899 417.116 31.0854 417.701 30.9877C418.287 30.8899 418.872 30.5967 419.262 30.1079C420.043 29.2281 420.238 28.0551 420.433 27.0776H420.14C420.531 27.9574 421.018 28.8371 421.604 29.6191C422.189 30.3034 423.067 30.7922 423.945 30.8899C424.336 30.8899 424.823 30.8899 425.214 30.6944C425.604 30.4989 425.896 30.2057 426.092 29.8146C426.287 29.5214 426.384 29.1304 426.384 28.7394C426.384 28.3484 426.189 28.0551 425.994 27.7618L425.896 27.8596C426.872 28.9349 427.848 29.5214 428.433 29.8146C428.823 30.0102 429.018 30.1079 429.214 30.1079C429.409 30.2057 429.506 30.2057 429.506 30.2057C429.506 30.2057 429.409 30.2057 429.214 30.1079C429.018 30.0102 428.726 29.9124 428.433 29.7169C427.75 29.4236 426.872 28.8371 425.896 27.7618L425.799 27.8596C426.189 28.2506 426.189 29.0326 425.896 29.6191C425.701 29.9124 425.506 30.2057 425.116 30.4012C424.823 30.5967 424.433 30.5967 423.945 30.5967C423.165 30.4989 422.384 30.1079 421.799 29.4236C421.214 28.7394 420.823 27.8596 420.433 26.9798L420.238 26.5888L420.14 26.9798C419.945 27.9574 419.75 29.1304 419.067 29.9124C418.677 30.3034 418.189 30.5967 417.701 30.6944C417.214 30.7922 416.628 30.5967 416.238 30.2057C415.75 29.7169 415.555 29.0326 415.457 28.3484C415.36 27.6641 415.262 26.9798 415.165 26.2956C415.067 24.927 415.165 23.6562 415.262 22.3855C415.36 21.1147 415.457 19.9417 415.36 18.7686C415.36 17.6934 415.262 16.6181 414.97 15.6405C414.579 13.7833 413.701 12.4147 413.018 11.6327C412.335 10.9484 411.848 10.7529 411.848 10.7529Z" fill="black" fill-opacity="0.25"/>
<path d="M365.951 22.4833C365.951 22.4833 366.049 22.4833 365.951 22.4833C366.146 22.5811 366.244 22.6788 366.341 22.7766C366.439 22.8743 366.634 22.9721 366.829 23.0698C367.024 23.1676 367.317 23.3631 367.61 23.4608C368.683 23.9496 370.537 24.5361 372.78 24.3406C375.024 24.2428 377.658 23.4608 380 21.7013C382.439 19.9417 384.488 17.4002 386.244 14.4676C387.122 13.0013 387.805 11.535 388.585 10.1665C389.366 8.79797 390.244 7.52719 391.317 6.45191C392.39 5.47439 393.561 4.69237 394.829 4.30136C395.415 4.10585 396.098 4.10585 396.683 4.10585C397.268 4.10585 397.854 4.30136 398.341 4.39911C399.415 4.79012 400.195 5.27888 400.878 5.8654C401.561 6.45191 401.951 7.13618 402.244 7.62494C402.829 8.70022 402.829 9.48223 402.829 9.38448C402.829 9.38448 402.829 9.38448 402.829 9.28673C402.829 9.18898 402.829 9.09123 402.732 8.89572C402.634 8.60246 402.537 8.1137 402.244 7.52719C401.951 6.94067 401.561 6.35416 400.878 5.66989C400.195 5.08338 399.415 4.49686 398.341 4.10585C397.854 3.91035 397.268 3.8126 396.585 3.71484C396 3.71484 395.317 3.71484 394.732 3.91035C393.463 4.30136 392.195 4.98562 391.122 6.0609C390.049 7.13618 389.171 8.40696 388.39 9.77549C387.61 11.144 386.927 12.7081 386.049 14.0766C384.293 17.0092 382.244 19.453 379.902 21.2125C377.561 22.9721 374.927 23.7541 372.78 23.9496C370.537 24.1451 368.78 23.6563 367.707 23.1676C366.537 22.8743 366.049 22.3856 365.951 22.4833Z" fill="black" fill-opacity="0.25"/>
<path d="M364.879 17.1069C364.879 17.1069 364.976 17.2047 365.269 17.4002C365.562 17.5957 365.952 17.7912 366.537 18.0845C367.123 18.3777 367.806 18.5732 368.586 18.7687C369.367 18.9642 370.245 19.062 371.22 19.1597C372.196 19.1597 373.074 19.062 373.854 18.9642C374.635 18.8665 375.318 18.671 375.903 18.4755C376.489 18.28 376.879 18.0845 377.172 17.889C377.464 17.6934 377.659 17.5957 377.659 17.5957C377.659 17.5957 376.976 17.889 375.806 18.28C375.22 18.4755 374.537 18.671 373.757 18.7687C372.976 18.8665 372.098 18.9642 371.22 18.9642C370.342 18.9642 369.464 18.7687 368.684 18.671C367.903 18.4755 367.22 18.28 366.635 18.0845C365.562 17.4979 364.879 17.1069 364.879 17.1069Z" fill="#455A64"/>
<path d="M366.732 84.0671L323.22 112.611L296.683 91.8873L288.391 104.986C288.391 104.986 303.805 122.875 309.561 128.935C315.317 134.996 319.122 138.222 323.61 137.635C328.098 137.049 365.757 122.386 365.757 122.386L371.513 82.4053L369.074 82.9918C368.293 83.285 367.415 83.5783 366.732 84.0671Z" fill="#FF9123"/>
<path d="M366.732 84.0671L323.22 112.611L296.683 91.8873L288.391 104.986C288.391 104.986 303.805 122.875 309.561 128.935C315.317 134.996 319.122 138.222 323.61 137.635C328.098 137.049 365.757 122.386 365.757 122.386L371.513 82.4053L369.074 82.9918C368.293 83.285 367.415 83.5783 366.732 84.0671Z" fill="url(#paint7_linear_485_2)" fill-opacity="0.5"/>
<path d="M428.489 113.686L425.757 76.6382C425.757 76.6382 446.05 78.4955 452.781 92.8651C458.44 104.986 475.415 140.079 477.074 145.065C481.952 159.63 472.976 180.94 441.367 179.767L437.757 159.923L428.489 113.686Z" fill="#FF9123"/>
<path d="M428.489 113.686L425.757 76.6382C425.757 76.6382 446.05 78.4955 452.781 92.8651C458.44 104.986 475.415 140.079 477.074 145.065C481.952 159.63 472.976 180.94 441.367 179.767L437.757 159.923L428.489 113.686Z" fill="url(#paint8_linear_485_2)" fill-opacity="0.5"/>
<path d="M444.684 144.479C444.684 144.479 444.879 145.065 445.171 145.945C445.562 146.825 446.049 147.998 446.635 149.366C447.22 150.637 447.708 151.81 448.196 152.787C448.586 153.667 448.781 154.156 448.879 154.156C448.879 154.156 448.684 153.569 448.391 152.69C448.001 151.81 447.513 150.637 446.927 149.268C446.342 147.998 445.854 146.825 445.367 145.847C444.976 145.065 444.684 144.479 444.684 144.479Z" fill="#FF9123"/>
<path d="M444.684 144.479C444.684 144.479 444.879 145.065 445.171 145.945C445.562 146.825 446.049 147.998 446.635 149.366C447.22 150.637 447.708 151.81 448.196 152.787C448.586 153.667 448.781 154.156 448.879 154.156C448.879 154.156 448.684 153.569 448.391 152.69C448.001 151.81 447.513 150.637 446.927 149.268C446.342 147.998 445.854 146.825 445.367 145.847C444.976 145.065 444.684 144.479 444.684 144.479Z" fill="url(#paint9_linear_485_2)" fill-opacity="0.5"/>
<path d="M433.464 115.348C433.518 115.348 433.561 112.985 433.561 110.07C433.561 107.154 433.518 104.791 433.464 104.791C433.41 104.791 433.366 107.154 433.366 110.07C433.366 112.985 433.41 115.348 433.464 115.348Z" fill="#FF9123"/>
<path d="M433.464 115.348C433.518 115.348 433.561 112.985 433.561 110.07C433.561 107.154 433.518 104.791 433.464 104.791C433.41 104.791 433.366 107.154 433.366 110.07C433.366 112.985 433.41 115.348 433.464 115.348Z" fill="url(#paint10_linear_485_2)" fill-opacity="0.5"/>
<path d="M415.317 74.292C405.561 80.4504 395.805 82.6987 385.854 78.7886L370.927 82.6009L363.708 95.211C362.537 97.166 362.049 99.5121 362.244 101.76L365.073 150.148L356.293 180.94L442.439 181.722L438.147 158.848L427.513 76.7358L415.317 74.292Z" fill="#FF9123"/>
<path d="M415.317 74.292C405.561 80.4504 395.805 82.6987 385.854 78.7886L370.927 82.6009L363.708 95.211C362.537 97.166 362.049 99.5121 362.244 101.76L365.073 150.148L356.293 180.94L442.439 181.722L438.147 158.848L427.513 76.7358L415.317 74.292Z" fill="url(#paint11_linear_485_2)" fill-opacity="0.5"/>
<path d="M364.878 97.2637C364.878 97.2637 364.976 97.6547 364.976 98.4367C364.976 99.2187 365.074 100.392 364.976 101.76C364.976 104.595 364.683 108.407 364.293 112.611C364 116.814 363.805 120.724 363.903 123.461C363.903 124.83 364 126.003 364 126.785C364.098 127.567 364.098 127.958 364 127.958C364 127.958 363.903 127.567 363.805 126.785C363.708 126.003 363.61 124.928 363.513 123.461C363.317 120.626 363.415 116.814 363.805 112.513C364.098 108.31 364.488 104.4 364.586 101.663C364.683 100.294 364.683 99.121 364.683 98.3389C364.781 97.6547 364.878 97.2637 364.878 97.2637Z" fill="black" fill-opacity="0.5"/>
<path d="M457.561 151.321C457.561 151.321 457.073 151.614 456.195 152.103C455.317 152.592 453.951 153.276 452.391 154.253C450.83 155.231 448.976 156.306 446.83 157.479C445.756 158.066 444.586 158.554 443.415 159.141C442.147 159.63 440.976 160.216 439.61 160.705C439.22 160.901 438.829 160.998 438.439 161.194L438.634 160.901C439.415 166.179 440.195 170.871 440.683 174.195C440.878 175.857 441.073 177.127 441.269 178.203C441.366 179.18 441.464 179.669 441.366 179.669C441.366 179.669 441.171 179.18 441.073 178.203C440.878 177.225 440.683 175.857 440.39 174.195C439.805 170.774 439.025 166.081 438.244 160.901V160.705L438.439 160.607C438.829 160.412 439.22 160.314 439.61 160.119C440.878 159.63 442.147 159.043 443.415 158.554C444.586 158.066 445.756 157.479 446.83 156.99C448.976 155.915 450.83 154.742 452.488 153.862C454.049 152.983 455.415 152.298 456.391 151.81C456.878 151.614 457.269 151.419 457.464 151.321C457.464 151.321 457.561 151.321 457.561 151.321Z" fill="black" fill-opacity="0.5"/>
<path d="M462.147 144.967C462.147 145.065 461.171 145.26 459.512 145.847C457.951 146.433 455.805 147.508 453.854 149.17C451.903 150.832 450.439 152.689 449.561 154.156C448.683 155.622 448.293 156.599 448.195 156.502C448.195 156.502 448.195 156.208 448.39 155.817C448.586 155.329 448.781 154.742 449.268 153.96C450.049 152.396 451.512 150.441 453.561 148.779C455.61 147.117 457.756 146.042 459.415 145.553C460.195 145.26 460.878 145.162 461.366 145.065C461.854 144.967 462.147 144.967 462.147 144.967Z" fill="black" fill-opacity="0.5"/>
<path d="M429.366 181.331L450.537 130.108C451.512 127.762 450.244 125.905 447.805 125.905H443.512C441.756 125.905 440.586 124.928 440.488 123.461L440.39 121.604C440.293 120.138 439.122 119.16 437.366 119.16H417.171C415.61 119.16 413.854 119.942 412.488 121.213L410.829 122.777C409.464 124.048 407.707 124.83 406.147 124.83H380.39C377.951 124.83 375.22 126.687 374.244 129.033L353.171 181.331H429.366Z" fill="#455A64"/>
<g opacity="0.3">
<g opacity="0.3">
<g opacity="0.3">
<g opacity="0.3">
<path opacity="0.3" d="M429.366 181.331L450.537 130.108C451.512 127.762 450.244 125.905 447.805 125.905H443.512C441.756 125.905 440.586 124.928 440.488 123.461L440.39 121.604C440.293 120.138 439.122 119.16 437.366 119.16H417.171C415.61 119.16 413.854 119.942 412.488 121.213L410.829 122.777C409.464 124.048 407.707 124.83 406.147 124.83H380.39C377.951 124.83 375.22 126.687 374.244 129.033L353.171 181.331H429.366Z" fill="black"/>
</g>
</g>
</g>
</g>
<path d="M432.879 163.931L440.879 133.041C441.367 130.988 440.098 128.936 438.245 128.936H375.611C374.342 128.936 373.269 129.913 372.976 131.282L361.367 177.812C360.879 179.865 361.659 181.038 363.513 181.038H426.44C427.708 181.038 428.684 180.06 429.074 178.789L432.879 163.931Z" fill="#E0E0E0"/>
<path d="M428.489 179.962L431.904 131.281C432.001 129.522 430.635 128.056 428.977 128.056H364.099V179.962H428.489Z" fill="#EBEBEB"/>
<path d="M429.269 181.038L421.562 130.793C421.171 129.131 419.708 127.958 418.049 127.958H352.488C349.854 127.958 348.196 130.597 349.171 132.943L363.318 178.887L429.269 181.038Z" fill="#FAFAFA"/>
<path d="M429.366 181.331L413.464 134.312C412.781 132.357 411.025 131.086 409.074 131.086H341.464C339.318 131.086 337.757 133.334 338.44 135.485L353.269 181.428L429.366 181.331Z" fill="#455A64"/>
<g opacity="0.3">
<g opacity="0.3">
<g opacity="0.3">
<g opacity="0.3">
<path opacity="0.3" d="M396.684 173.412C396.684 173.412 399.22 173.51 400.391 173.608C405.952 173.999 411.708 173.021 416.782 170.675C418.342 169.991 420.099 168.916 420.489 167.254C421.074 165.397 419.806 163.442 418.342 162.171C416.879 160.9 415.025 160.02 413.757 158.554C412.489 157.088 411.903 154.742 413.172 153.178L413.562 153.471C414.44 155.817 416.977 156.892 419.123 158.261C423.025 160.705 426.05 164.615 427.416 169.111C428.196 171.555 428.391 174.39 426.928 176.443C425.855 177.909 424.196 178.789 422.44 179.375C417.367 181.233 411.903 181.33 406.44 181.33C404.684 181.33 399.416 181.233 399.416 181.233C397.757 180.744 397.172 179.864 396.196 178.496C395.22 177.225 395.416 174.488 396.684 173.412Z" fill="black"/>
</g>
</g>
</g>
</g>
<path d="M396.683 173.413L414.342 170.773L421.171 166.863C422.049 166.374 422.732 165.397 422.732 164.322C422.732 164.322 422.732 164.322 422.732 164.224C422.83 162.953 421.952 161.78 420.781 161.194C418.635 160.314 415.122 159.043 413.659 156.501C411.513 152.787 413.659 152.005 413.659 152.005L428.391 157.87L438.83 165.006L440.976 176.834L426.439 181.624C426.439 181.624 410.244 182.504 405.756 182.015C401.269 181.526 401.269 179.473 401.269 179.473C400.391 179.18 398.732 177.714 398.732 176.345C396.586 174.39 396.683 173.413 396.683 173.413Z" fill="#FFBE9D"/>
<path d="M419.22 178.594C419.22 178.594 418.928 178.594 418.537 178.692C418.049 178.789 417.367 178.985 416.586 179.083C414.928 179.376 412.586 179.767 410.049 179.865C407.513 179.962 405.171 179.767 403.415 179.571C402.537 179.474 401.854 179.376 401.464 179.278C400.976 179.18 400.781 179.18 400.684 179.18C400.684 179.18 400.976 179.278 401.367 179.376C401.854 179.474 402.537 179.571 403.318 179.767C404.976 180.06 407.318 180.256 409.952 180.158C412.586 180.06 414.928 179.669 416.586 179.278C417.464 179.083 418.049 178.887 418.537 178.789C418.928 178.691 419.22 178.594 419.22 178.594Z" fill="#EB996E"/>
<path d="M417.562 175.856C417.562 175.856 417.269 175.856 416.781 175.954C416.293 176.052 415.61 176.247 414.83 176.345C413.171 176.638 410.83 177.029 408.196 177.127C405.562 177.225 403.22 177.029 401.464 176.834C400.586 176.736 399.903 176.638 399.415 176.541C398.927 176.443 398.635 176.443 398.635 176.443C398.635 176.443 398.927 176.541 399.318 176.638C399.805 176.736 400.488 176.834 401.366 177.029C403.123 177.323 405.464 177.518 408.098 177.42C410.732 177.323 413.074 176.932 414.83 176.638C415.708 176.443 416.391 176.247 416.781 176.15C417.366 175.954 417.562 175.856 417.562 175.856Z" fill="#EB996E"/>
<path d="M306.342 261.879H84.293V427.08H306.342V261.879Z" fill="white"/>
<path d="M306.342 427.08C306.342 425.321 306.244 361.879 306.146 261.879L306.342 262.074C243.805 262.074 167.122 262.074 84.3903 262.074L84.683 261.781C84.683 321.117 84.683 377.324 84.683 426.982L84.4879 426.787C215.707 426.982 304.293 427.08 306.342 427.08C304.293 427.08 215.805 427.178 84.2928 427.276H84.0977V427.08C84.0977 377.422 84.0977 321.214 84.0977 261.879V261.585H84.3903C167.122 261.585 243.903 261.585 306.342 261.585H306.537V261.781C306.439 361.879 306.342 425.418 306.342 427.08Z" fill="#4A4743" fill-opacity="0.7"/>
<path d="M306.342 283.873C306.342 283.971 256.586 284.166 195.317 284.166C133.951 284.166 84.293 284.068 84.293 283.873C84.293 283.775 133.951 283.58 195.317 283.58C256.586 283.58 306.342 283.677 306.342 283.873Z" fill="#E0E0E0"/>
<path d="M93.659 274.978C95.437 274.978 96.8785 273.533 96.8785 271.752C96.8785 269.97 95.437 268.526 93.659 268.526C91.8809 268.526 90.4395 269.97 90.4395 271.752C90.4395 273.533 91.8809 274.978 93.659 274.978Z" fill="#E0E0E0"/>
<path d="M103.512 274.978C105.291 274.978 106.732 273.533 106.732 271.752C106.732 269.97 105.291 268.526 103.512 268.526C101.734 268.526 100.293 269.97 100.293 271.752C100.293 273.533 101.734 274.978 103.512 274.978Z" fill="#E0E0E0"/>
<path d="M113.366 274.978C115.144 274.978 116.585 273.533 116.585 271.752C116.585 269.97 115.144 268.526 113.366 268.526C111.588 268.526 110.146 269.97 110.146 271.752C110.146 273.533 111.588 274.978 113.366 274.978Z" fill="#E0E0E0"/>
<path d="M281.854 393.845C281.854 393.845 287.317 386.709 289.854 386.416C292.39 386.122 308.39 386.709 310.634 386.416C312.878 386.122 325.463 380.844 325.463 380.844C325.463 380.844 327.707 381.626 327.414 383.581C327.122 385.634 313.171 393.161 311.414 393.454C309.756 393.747 296.293 394.725 296.293 394.725L292.878 400.785L281.854 393.845Z" fill="#FFBE9D"/>
<path d="M235.415 304.401C238.147 303.13 240.098 300.393 240.391 297.461C240.683 294.43 239.22 291.4 236.781 289.64L226.927 286.317C225.464 299.025 224 311.733 222.439 324.44C225.074 324.343 227.805 323.854 229.952 322.388C232.098 320.921 233.561 317.989 232.781 315.545C234.927 314.861 236.683 312.906 237.171 310.755C237.757 308.507 237.074 306.063 235.415 304.401Z" fill="#4A4743"/>
<path d="M187.22 296.972L187.61 292.475L215.22 290.129C223.708 290.129 231.805 299.416 231.513 307.823C231.122 317.207 230.342 328.644 228.488 335.487C224.878 349.27 213.952 349.954 213.952 349.954L212.976 363.835C212.196 371.948 205.269 373.023 197.171 372.241C189.269 371.557 183.318 364.714 183.805 356.797L187.22 296.972Z" fill="#FFBE9D"/>
<g opacity="0.25">
<g opacity="0.25">
<g opacity="0.25">
<g opacity="0.25">
<g opacity="0.25">
<g opacity="0.25">
<g opacity="0.25">
<g opacity="0.25">
<g opacity="0.25">
<g opacity="0.25">
<g opacity="0.25">
<g opacity="0.25">
<g opacity="0.25">
<g opacity="0.25">
<g opacity="0.25">
<g opacity="0.25">
<path opacity="0.25" d="M213.952 349.954C213.952 349.954 204 349.563 195.317 342.916C195.317 342.916 199.025 353.18 213.659 353.375L213.952 349.954Z" fill="#83534B"/>
</g>
</g>
</g>
</g>
</g>
</g>
</g>
</g>
</g>
</g>
</g>
</g>
</g>
</g>
</g>
</g>
<path d="M237.658 295.701C240.683 294.039 242.341 290.422 241.951 287.099C241.561 283.678 239.122 280.745 235.902 279.376C235.219 279.083 234.634 278.888 233.951 278.79C232.683 277.91 231.219 277.324 229.756 277.128C229.756 275.271 228.293 273.707 226.536 273.12C224.878 272.436 222.927 272.534 221.171 272.827C219.61 270.383 216.878 268.819 214.049 268.624C211.219 268.428 208.293 269.699 206.439 271.947C204.585 270.579 202.049 270.09 199.805 270.774C197.561 271.459 195.707 273.218 194.927 275.369C192.878 275.173 190.829 275.955 189.366 277.324C188.78 277.812 188.293 278.497 188 279.083C187.317 279.865 186.732 280.745 186.439 281.723C183.024 281.723 179.707 284.069 178.536 287.294C177.366 290.52 178.439 294.43 181.073 296.679C179.219 298.145 178.146 300.589 178.146 302.935C178.244 305.281 179.512 307.627 181.463 308.995C180.39 311.439 180.39 314.372 181.463 316.816C181.951 317.891 182.634 318.868 183.707 319.357C183.707 319.553 183.805 319.748 183.902 319.944C184.585 321.312 186.732 321.019 188 320.139C191.219 318.086 193.171 314.567 194.341 310.95C195.512 307.334 196.195 303.521 197.366 300.002C197.366 299.904 197.463 299.807 197.463 299.709C197.951 298.243 198.829 296.874 199.902 295.701C200.878 296.581 201.951 297.461 203.024 298.243C207.024 300.784 212.78 300.198 216.195 296.972C218.829 299.709 222.439 301.468 226.146 301.859C229.951 302.251 233.658 301.957 236.878 299.807C237.463 299.416 238.341 298.634 238.732 297.656C238.927 296.874 238.341 295.994 237.658 295.701Z" fill="#4A4743"/>
<path d="M187.61 315.643C187.415 315.545 180.391 312.026 179.22 319.65C178.049 327.275 185.952 326.884 186.049 326.689C186.049 326.493 187.61 315.643 187.61 315.643Z" fill="#FFBE9D"/>
<path d="M184.098 323.463C184.098 323.463 183.903 323.56 183.708 323.56C183.512 323.658 183.122 323.658 182.732 323.463C181.951 323.072 181.464 321.703 181.659 320.237C181.756 319.553 181.951 318.868 182.342 318.38C182.634 317.891 183.122 317.5 183.512 317.5C183.903 317.5 184.195 317.793 184.195 317.989C184.293 318.184 184.195 318.38 184.195 318.38C184.195 318.38 184.39 318.282 184.39 317.989C184.39 317.793 184.293 317.598 184.195 317.5C184 317.304 183.805 317.207 183.512 317.207C182.927 317.207 182.342 317.598 181.951 318.184C181.561 318.771 181.269 319.455 181.171 320.237C180.976 321.801 181.561 323.365 182.634 323.854C183.122 324.049 183.61 323.951 183.903 323.854C184.098 323.56 184.195 323.463 184.098 323.463Z" fill="#83534B"/>
<path d="M241.757 285.73C241.757 285.73 241.757 285.828 241.757 285.926C241.757 286.024 241.854 286.219 241.854 286.513C241.854 287.001 241.854 287.783 241.562 288.663C241.269 289.543 240.684 290.618 239.61 291.498C238.537 292.28 236.976 292.866 235.318 292.671L235.513 292.573C234.927 294.724 233.659 297.07 231.513 298.829C230.44 299.709 229.269 300.491 227.805 300.98C226.44 301.469 224.781 301.469 223.318 301.078C221.854 300.784 220.488 300.198 219.22 299.514C217.952 298.829 216.781 298.047 215.903 296.972H216.098C213.952 298.536 211.513 299.611 209.269 299.807C207.025 300.002 205.074 299.416 203.61 298.634C202.147 297.852 201.171 296.972 200.488 296.385C200.196 296.092 200.001 295.799 199.805 295.603C199.708 295.408 199.61 295.31 199.61 295.31C199.61 295.31 199.903 295.701 200.586 296.288C201.269 296.874 202.244 297.754 203.708 298.438C205.171 299.123 207.123 299.709 209.269 299.514C211.415 299.318 213.854 298.341 215.903 296.679L216.001 296.581L216.098 296.679C216.879 297.656 218.049 298.438 219.318 299.123C220.586 299.807 221.952 300.393 223.318 300.687C224.781 300.98 226.245 300.98 227.61 300.589C228.976 300.198 230.147 299.416 231.123 298.536C233.171 296.776 234.44 294.528 235.025 292.378V292.28H235.123C236.684 292.475 238.245 291.889 239.22 291.205C240.293 290.423 240.879 289.445 241.171 288.565C241.464 287.686 241.562 286.904 241.562 286.415C241.757 286.024 241.659 285.73 241.757 285.73Z" fill="black" fill-opacity="0.25"/>
<path d="M187.415 281.429C187.513 281.429 186.928 282.309 186.44 283.971C185.952 285.633 185.757 288.174 186.83 290.911V291.009L186.732 291.107C185.757 291.791 184.879 292.769 184.293 293.942C183.708 295.115 183.513 296.581 183.708 298.047C184.001 299.904 185.074 301.566 186.44 302.544L186.537 302.642L186.44 302.739C185.464 304.206 184.976 305.867 184.976 307.431C184.879 308.898 185.172 310.266 185.562 311.244C186.342 313.297 187.415 314.176 187.415 314.274C187.415 314.274 187.318 314.274 187.22 314.079C187.123 313.981 186.928 313.785 186.732 313.59C186.342 313.101 185.854 312.417 185.367 311.342C184.976 310.266 184.586 308.995 184.684 307.431C184.684 305.867 185.172 304.108 186.147 302.544V302.739C184.684 301.762 183.611 300.002 183.22 298.047C182.928 296.581 183.22 295.017 183.806 293.746C184.391 292.475 185.367 291.498 186.342 290.813L186.245 291.009C185.171 288.174 185.464 285.535 185.952 283.873C186.245 282.993 186.537 282.407 186.732 282.016C186.83 281.82 186.928 281.625 187.025 281.527C187.415 281.429 187.415 281.429 187.415 281.429Z" fill="black" fill-opacity="0.25"/>
<path d="M182.049 325.907C182.147 325.907 181.756 326.396 181.756 327.275C181.756 327.666 181.854 328.253 182.147 328.644C182.439 329.035 183.025 329.328 183.61 329.328C184.195 329.23 184.586 328.742 184.683 328.155C184.781 327.666 184.683 327.08 184.586 326.689C184.293 325.907 184 325.418 184.098 325.32C184.098 325.32 184.488 325.711 184.781 326.591C184.976 326.982 185.074 327.569 184.976 328.155C184.878 328.448 184.781 328.742 184.586 329.035C184.391 329.328 184 329.524 183.61 329.524C182.83 329.621 182.147 329.23 181.756 328.742C181.366 328.253 181.366 327.569 181.366 327.178C181.561 326.298 181.952 325.809 182.049 325.907Z" fill="#4A4743" fill-opacity="0.7"/>
<path d="M109.269 427.178C109.269 427.178 136.976 377.324 141.659 369.308C147.122 359.827 151.805 356.405 156.098 354.352C160.586 352.202 165.464 351.127 170.439 351.127L184.195 351.029C184.195 351.029 189.464 358.849 196.488 360.413C206.244 362.564 213.561 355.232 213.561 355.232L233.366 363.346L229.366 400.003C228.391 409.192 224.976 417.989 219.61 425.614L218.342 427.276L145.464 427.178L153.951 400.883L138.342 427.276H109.269V427.178Z" fill="white"/>
<path d="M109.269 427.178C109.269 427.178 136.976 377.324 141.659 369.308C147.122 359.827 151.805 356.405 156.098 354.352C160.586 352.202 165.464 351.127 170.439 351.127L184.195 351.029C184.195 351.029 189.464 358.849 196.488 360.413C206.244 362.564 213.561 355.232 213.561 355.232L233.366 363.346L229.366 400.003C228.391 409.192 224.976 417.989 219.61 425.614L218.342 427.276L145.464 427.178L153.951 400.883L138.342 427.276H109.269V427.178Z" fill="url(#paint12_linear_485_2)"/>
<path d="M233.366 363.248C233.366 363.248 239.122 366.669 243.415 380.648C247.708 394.627 257.073 419.651 257.073 419.651L280.488 393.063L294.342 401.86C294.342 401.86 271.903 440.863 268.391 445.458C263.122 452.301 249.659 456.308 241.756 447.12C236 440.472 222.342 408.312 222.342 408.312L233.366 363.248Z" fill="white"/>
<path d="M233.366 363.248C233.366 363.248 239.122 366.669 243.415 380.648C247.708 394.627 257.073 419.651 257.073 419.651L280.488 393.063L294.342 401.86C294.342 401.86 271.903 440.863 268.391 445.458C263.122 452.301 249.659 456.308 241.756 447.12C236 440.472 222.342 408.312 222.342 408.312L233.366 363.248Z" fill="url(#paint13_linear_485_2)"/>
<path d="M224.976 383.581C224.976 383.581 225.073 383.678 225.171 383.972C225.269 384.265 225.464 384.656 225.659 385.242C226.049 386.318 226.634 387.979 227.122 390.032C228.195 394.138 228.878 400.003 227.903 406.357C226.927 412.711 224.586 418.185 222.342 421.704C221.269 423.464 220.293 424.832 219.513 425.81C219.122 426.298 218.83 426.592 218.634 426.885C218.439 427.08 218.342 427.276 218.342 427.178C218.342 427.178 218.732 426.592 219.415 425.712C220.098 424.734 221.074 423.366 222.049 421.606C224.098 417.989 226.439 412.613 227.415 406.357C228.391 400.101 227.708 394.236 226.83 390.228C226.342 388.175 225.854 386.611 225.464 385.438C225.171 384.265 224.878 383.581 224.976 383.581Z" fill="black" fill-opacity="0.5"/>
<path d="M158.439 379.084C158.439 379.084 158.439 379.279 158.439 379.573C158.342 379.964 158.342 380.453 158.244 381.039C158.049 382.31 157.756 384.069 157.366 386.318C156.586 390.814 155.22 396.875 153.366 403.62C151.512 410.267 149.561 416.23 148 420.531C147.22 422.682 146.537 424.343 146.049 425.516C145.854 426.103 145.659 426.494 145.464 426.885C145.366 427.178 145.269 427.374 145.269 427.374C145.269 427.374 145.269 427.178 145.366 426.885C145.464 426.494 145.659 426.103 145.854 425.516C146.342 424.246 146.927 422.584 147.61 420.433C149.073 416.132 151.025 410.169 152.878 403.522C154.732 396.875 156.098 390.717 156.976 386.318C157.366 384.167 157.756 382.408 158.049 381.039C158.147 380.453 158.244 379.964 158.342 379.573C158.342 379.279 158.439 379.084 158.439 379.084Z" fill="black" fill-opacity="0.5"/>
<path d="M123.61 427.08C123.61 427.08 126.245 423.464 127.61 422.779C128.879 422.095 130.732 422.095 131.513 422.779C132.293 423.464 132.293 423.464 132.293 423.464C132.293 423.464 136.391 421.606 138.342 423.073C138.342 423.073 142.244 421.215 144.098 423.366C144.098 423.366 147.123 421.411 148.391 423.073C149.659 424.832 149.562 427.667 148.879 429.133C148.293 430.599 147.123 435.683 146.244 435.78C146.244 435.78 143.805 436.074 143.513 434.705C143.22 433.434 143.025 432.75 143.025 432.75C143.025 432.75 142.147 437.344 140.976 437.54C139.903 437.735 137.757 437.638 137.659 435.585C137.659 435.585 136.586 437.149 135.61 436.66C134.635 436.171 133.366 435.487 133.464 434.216C133.562 432.946 133.562 431.675 133.562 431.675C133.562 431.675 132.976 433.532 132.098 433.141C131.22 432.75 130.244 432.848 129.757 431.284C129.269 429.72 128.001 426.787 128.001 426.787H123.61V427.08Z" fill="#FFBE9D"/>
<g opacity="0.5">
<g opacity="0.5">
<g opacity="0.5">
<g opacity="0.5">
<g opacity="0.5">
<path opacity="0.5" d="M133.66 431.968C133.562 431.968 133.855 431.48 134.05 430.698C134.245 429.916 134.44 428.742 134.147 427.472C133.952 426.201 133.367 425.223 132.879 424.539C132.391 423.855 132.001 423.464 132.001 423.464C132.001 423.464 132.489 423.659 133.074 424.344C133.66 425.028 134.245 426.103 134.538 427.374C134.733 428.645 134.538 429.916 134.245 430.698C134.05 431.577 133.66 431.968 133.66 431.968Z" fill="#83534B"/>
</g>
</g>
</g>
</g>
</g>
<g opacity="0.5">
<g opacity="0.5">
<g opacity="0.5">
<g opacity="0.5">
<g opacity="0.5">
<path opacity="0.5" d="M138.537 423.17C138.537 423.17 138.83 423.855 139.025 425.028C139.22 426.201 139.415 427.765 139.318 429.622C139.22 431.382 138.83 433.043 138.44 434.119C138.049 435.194 137.757 435.878 137.659 435.878C137.562 435.878 138.732 433.141 138.927 429.622C139.22 426.005 138.44 423.17 138.537 423.17Z" fill="#83534B"/>
</g>
</g>
</g>
</g>
</g>
<g opacity="0.5">
<g opacity="0.5">
<g opacity="0.5">
<g opacity="0.5">
<g opacity="0.5">
<path opacity="0.5" d="M144.195 423.464C144.293 423.464 144.586 425.614 144.293 428.351C144 431.089 143.22 433.141 143.122 433.044C143.025 433.044 143.61 430.893 143.903 428.254C144.195 425.614 144.098 423.464 144.195 423.464Z" fill="#83534B"/>
</g>
</g>
</g>
</g>
</g>
<path d="M159.61 424.539C159.415 424.148 159.025 423.855 158.537 423.659C157.464 423.366 156.391 423.757 155.513 424.441C154.732 425.125 153.854 426.201 153.366 427.178H159.22C159.22 426.298 159.903 425.321 159.61 424.539Z" fill="#A5695F"/>
<path d="M310.146 342.949H341.463C341.463 360.153 327.317 374.327 310.146 374.327C292.975 374.327 278.829 360.153 278.829 342.949C278.829 325.744 292.878 311.668 310.049 311.57L310.146 342.949Z" fill="#F2AE6A"/>
<path d="M315.805 338.419L315.707 307.041H315.805C332.878 307.041 347.024 321.117 347.122 338.223L315.805 338.419Z" fill="#F2AE6A"/>
<path d="M166.244 330.403L160.195 319.65C162.927 315.252 164.488 310.071 164.488 304.597C164.488 288.663 151.61 275.857 135.805 275.857C119.903 275.857 107.122 288.761 107.122 304.597C107.122 320.53 120 333.336 135.805 333.336C142.439 333.336 148.488 331.087 153.366 327.275L166.244 330.403Z" fill="#FAFAFA"/>
<path d="M166.244 330.403C165.658 330.305 161.463 329.328 153.268 327.47H153.17L153.268 327.373L153.366 327.47C151.707 328.741 149.756 330.012 147.414 331.087C145.073 332.163 142.439 332.945 139.512 333.336C138.049 333.531 136.488 333.629 134.927 333.531C134.146 333.531 133.366 333.433 132.585 333.433C131.805 333.336 131.024 333.238 130.146 333.042C126.927 332.358 123.609 331.185 120.488 329.23C117.366 327.275 114.536 324.733 112.195 321.508C109.853 318.282 108.195 314.469 107.317 310.364C106.536 306.258 106.536 301.859 107.609 297.558C108.683 293.257 110.731 289.152 113.756 285.73L114.927 284.459C115.317 284.068 115.805 283.677 116.195 283.286C116.585 282.895 117.073 282.504 117.463 282.113L118.829 281.038C119.317 280.647 119.805 280.354 120.292 280.061C120.78 279.767 121.268 279.474 121.756 279.181C122.244 278.888 122.731 278.692 123.317 278.399C123.805 278.203 124.292 277.91 124.878 277.714C129.073 276.053 133.463 275.466 137.756 275.759C142.049 276.053 146.049 277.323 149.561 279.279C153.073 281.234 156 283.873 158.341 286.805C160.585 289.738 162.244 292.964 163.219 296.19C164.195 299.416 164.488 302.641 164.488 305.574C164.39 308.506 163.902 311.244 163.122 313.687C162.341 316.131 161.268 318.184 160.195 319.846V319.748C164 326.493 165.951 329.817 166.244 330.403C165.951 329.914 164 326.493 160.097 319.65C161.17 317.891 162.146 315.838 162.927 313.492C163.707 311.146 164.195 308.409 164.292 305.476C164.292 302.544 164 299.416 163.024 296.19C162.049 293.062 160.39 289.836 158.146 287.001C155.902 284.166 152.975 281.527 149.463 279.572C146.049 277.617 141.951 276.444 137.756 276.15C133.561 275.857 129.17 276.444 125.073 278.105C124.585 278.301 124.097 278.594 123.512 278.79C123.024 278.985 122.536 279.279 122.049 279.572C121.561 279.865 121.073 280.158 120.585 280.452C120.097 280.745 119.609 281.038 119.219 281.429L117.853 282.407C117.366 282.7 116.975 283.189 116.585 283.58C116.195 283.971 115.707 284.362 115.317 284.753L114.146 286.023C111.122 289.445 109.17 293.55 108.097 297.754C107.024 301.957 106.927 306.356 107.707 310.364C108.488 314.469 110.244 318.184 112.488 321.41C114.731 324.538 117.561 327.177 120.683 329.034C123.707 330.99 127.024 332.163 130.244 332.847C131.024 332.945 131.902 333.14 132.683 333.238C133.463 333.336 134.244 333.336 135.024 333.336C136.585 333.433 138.049 333.336 139.512 333.14C142.439 332.749 145.073 331.967 147.317 330.892C149.658 329.914 151.609 328.643 153.17 327.373L153.658 326.982L153.268 327.47L153.17 327.373C161.463 329.23 165.561 330.208 166.244 330.403Z" fill="#4A4743" fill-opacity="0.7"/>
<path d="M124.585 307.431C126.201 307.431 127.512 306.118 127.512 304.498C127.512 302.879 126.201 301.566 124.585 301.566C122.969 301.566 121.658 302.879 121.658 304.498C121.658 306.118 122.969 307.431 124.585 307.431Z" fill="#4A4743" fill-opacity="0.7"/>
<path d="M136.292 307.431C137.909 307.431 139.219 306.118 139.219 304.498C139.219 302.879 137.909 301.566 136.292 301.566C134.676 301.566 133.365 302.879 133.365 304.498C133.365 306.118 134.676 307.431 136.292 307.431Z" fill="#4A4743" fill-opacity="0.7"/>
<path d="M148.39 307.431C150.006 307.431 151.317 306.118 151.317 304.498C151.317 302.879 150.006 301.566 148.39 301.566C146.773 301.566 145.463 302.879 145.463 304.498C145.463 306.118 146.773 307.431 148.39 307.431Z" fill="#4A4743" fill-opacity="0.7"/>
<path d="M133.366 141.545C133.366 141.545 138.635 143.207 141.756 148.877C144.878 154.449 144.098 157.284 143.22 160.607C142.439 163.931 140.976 170.48 140.878 170.089C140.878 169.6 133.366 141.545 133.366 141.545Z" fill="#FFBE9D"/>
<path d="M227.512 73.2168H0.292969V242.328H227.512V73.2168Z" fill="white"/>
<path d="M227.415 242.328C227.415 240.569 227.317 175.563 227.22 73.2166L227.415 73.4121C163.415 73.4121 84.9756 73.4121 0.195122 73.4121L0.487805 73.1188C0.487805 133.823 0.487805 191.399 0.487805 242.231L0.292683 242.035C134.829 242.23 225.463 242.328 227.415 242.328C225.366 242.328 134.732 242.426 0.195122 242.524H0V242.328C0 191.497 0 134.019 0 73.2166V72.9233H0.292683C84.9756 72.9233 163.512 72.9233 227.512 72.9233H227.707V73.1188C227.512 175.563 227.512 240.569 227.415 242.328Z" fill="#4A4743"/>
<path d="M227.122 96.8728C227.122 96.9706 176.781 97.1661 114.634 97.1661C52.4879 97.1661 2.14648 97.0684 2.14648 96.8728C2.14648 96.7751 52.4879 96.5796 114.634 96.5796C176.683 96.5796 227.122 96.6773 227.122 96.8728Z" fill="#E0E0E0"/>
<path d="M11.8054 87.8796C13.6373 87.8796 15.1224 86.3916 15.1224 84.556C15.1224 82.7204 13.6373 81.2324 11.8054 81.2324C9.97339 81.2324 8.48828 82.7204 8.48828 84.556C8.48828 86.3916 9.97339 87.8796 11.8054 87.8796Z" fill="#E0E0E0"/>
<path d="M21.8532 87.8796C23.6852 87.8796 25.1703 86.3916 25.1703 84.556C25.1703 82.7204 23.6852 81.2324 21.8532 81.2324C20.0212 81.2324 18.5361 82.7204 18.5361 84.556C18.5361 86.3916 20.0212 87.8796 21.8532 87.8796Z" fill="#E0E0E0"/>
<path d="M31.902 87.8796C33.734 87.8796 35.2191 86.3916 35.2191 84.556C35.2191 82.7204 33.734 81.2324 31.902 81.2324C30.0701 81.2324 28.585 82.7204 28.585 84.556C28.585 86.3916 30.0701 87.8796 31.902 87.8796Z" fill="#E0E0E0"/>
<path d="M125.951 69.404C125.17 66.667 123.707 63.9299 121.268 62.5614C120.097 61.8771 118.731 61.4861 117.56 60.8996C116.097 60.1176 114.926 58.9445 113.56 58.0648C110.243 55.8165 105.951 55.0344 102.048 56.012C98.1457 56.9895 94.7311 59.7266 92.975 63.3434C90.2432 61.1928 85.3652 62.0726 82.1457 63.3434C78.8286 64.5164 76.0969 68.4265 75.3164 71.8478L90.731 76.3445C93.853 79.668 97.2676 82.7961 101.268 85.0444C105.268 87.195 109.951 88.368 114.438 87.6837C118.926 86.9995 123.219 84.2624 125.268 80.2545C126.926 76.931 126.926 73.0209 125.951 69.404Z" fill="#4A4743"/>
<path d="M136.878 120.431C140.78 117.694 141.756 111.535 138.829 107.723C137.951 106.55 136.78 105.572 136.585 104.204C136.488 103.324 136.78 102.444 136.975 101.662C138.341 95.9925 136.097 89.6386 131.414 86.2173C131.317 83.0892 129.561 76.3443 125.561 73.8027L107.414 76.3443C108.195 95.5038 108.195 114.761 107.219 133.92C107.122 136.853 106.927 139.981 108.585 142.523C110.829 146.042 115.61 146.726 119.805 146.824C123.805 146.922 127.805 146.726 131.61 145.455C135.414 144.184 138.829 141.545 140.39 137.831C142.731 132.161 140.195 125.611 136.878 120.431Z" fill="#4A4743"/>
<path d="M81.4624 81.6232L80.9746 77.5176L104.975 69.9906C112.487 68.3289 121.462 74.976 122.828 82.503C124.292 90.9097 125.853 101.174 125.56 107.625C124.975 120.529 115.511 123.266 115.511 123.266L116.487 130.89C117.462 138.613 111.999 145.749 104.292 146.726C96.5844 147.704 89.56 142.23 88.4868 134.507L81.4624 81.6232Z" fill="#FFBE9D"/>
<path d="M115.414 123.363C115.414 123.363 106.536 124.927 97.5605 120.822C97.5605 120.822 102.829 129.228 115.804 126.491L115.414 123.363Z" fill="#EB996E"/>
<path d="M84.1947 68.9151C81.7557 69.6971 78.9264 76.5398 79.6094 79.0814C80.2923 81.6229 82.6338 83.3825 85.1703 84.0667C87.7069 84.751 90.4386 84.36 92.8777 83.578C96.3899 82.5027 100.195 80.0589 100.39 76.3443C103.804 79.8634 109.17 81.3297 113.951 80.0589C118.731 78.7881 122.244 71.5544 123.512 66.8623L84.1947 68.9151Z" fill="#4A4743"/>
<path d="M218.438 117.987C220.487 117.205 219.707 114.957 219.707 114.957L211.902 117.303C211.902 117.303 215.999 115.641 218.146 113.882C220.292 112.122 219.219 110.656 219.219 110.656L211.219 113.784L206.633 116.423L195.219 133.823C195.219 133.823 204.097 138.222 205.658 136.951C208.389 134.703 209.95 129.815 210.536 127.274C211.609 126.98 215.121 125.905 216.097 125.319C217.268 124.537 217.755 123.461 217.755 123.461L211.609 124.634C212.487 124.341 218.243 122.386 218.731 121.702C219.511 120.431 219.024 119.942 219.024 119.942L211.219 121.115L211.999 120.529C212.097 120.431 216.389 118.769 218.438 117.987Z" fill="#FFBE9D"/>
<path d="M189.853 136.071L163.707 160.021C160.487 159.239 120.585 135.387 120.585 135.387L114.243 166.081C114.243 166.081 155.024 184.85 166.243 182.602C168.097 182.211 171.121 182.015 172.975 179.571C181.95 168.036 200.975 139.395 200.975 139.395L189.853 136.071Z" fill="#FFBE9D"/>
<path d="M207.61 134.898L202.927 132.65L206.341 126.492L208.975 120.822L213.073 113.1L206.731 115.446C205.951 115.739 205.366 116.228 204.78 116.912L194.341 131.282L189.756 135.974L194.244 147.997L199.512 139.786C199.512 139.786 199.512 139.786 202.536 139.102C205.658 138.32 207.61 134.898 207.61 134.898Z" fill="#FFBE9D"/>
<path d="M199.999 125.123C202.145 124.048 204.487 123.168 206.731 122.484C207.511 122.288 208.292 122.093 209.072 122.191C209.853 122.288 210.633 122.777 210.828 123.559C211.023 124.439 210.535 125.319 209.755 125.807C208.974 126.296 208.096 126.492 207.218 126.687C206.34 126.883 205.462 127.274 204.877 127.958C204.292 128.642 204.194 129.522 203.901 130.304C202.926 132.943 200.584 134.996 197.853 135.485" fill="#FFBE9D"/>
<path d="M197.853 135.485C197.853 135.485 198.243 135.387 199.023 135.094C199.706 134.801 200.779 134.312 201.755 133.334C202.243 132.846 202.731 132.259 203.121 131.575C203.511 130.891 203.804 130.109 204.096 129.131C204.292 128.642 204.487 128.251 204.779 127.763C205.17 127.371 205.56 127.078 206.048 126.883C207.023 126.492 208.096 126.394 209.072 126.003C209.56 125.807 209.95 125.514 210.243 125.123C210.535 124.732 210.731 124.341 210.731 123.852C210.731 122.973 209.755 122.386 208.877 122.288C207.999 122.191 207.121 122.484 206.34 122.679C205.56 122.875 204.779 123.168 204.194 123.364C202.828 123.852 201.853 124.243 201.072 124.537C200.389 124.83 199.999 125.025 199.901 125.025C199.901 125.025 200.292 124.732 200.974 124.439C201.657 124.048 202.731 123.559 203.999 123.07C204.682 122.777 205.365 122.582 206.145 122.288C206.926 122.093 207.804 121.702 208.779 121.8C209.267 121.8 209.755 121.995 210.243 122.288C210.633 122.582 211.023 123.07 211.023 123.657C211.023 124.83 210.145 125.807 209.072 126.198C207.999 126.589 207.023 126.687 206.048 127.078C205.56 127.274 205.17 127.567 204.877 127.86C204.584 128.154 204.389 128.642 204.194 129.033C203.901 129.913 203.609 130.793 203.121 131.477C202.731 132.161 202.145 132.846 201.657 133.237C200.584 134.214 199.511 134.703 198.731 134.898C198.34 134.996 198.048 135.094 197.853 135.094C197.95 135.485 197.853 135.485 197.853 135.485Z" fill="#EB996E"/>
<path d="M117.657 221.8H63.9989C63.9989 221.8 56.0964 231.771 50.8281 242.133L127.218 242.426C128.779 240.08 117.657 221.8 117.657 221.8Z" fill="#4A4743"/>
<path d="M133.462 172.924C131.609 148.877 125.658 133.725 125.658 133.725L116.389 130.891C115.023 137.049 104.975 139.102 99.3161 136.365L93.2673 133.237C73.9503 130.304 74.9259 131.966 70.4381 134.605C66.5356 136.951 66.9259 154.351 66.9259 154.351C66.9259 154.351 57.2674 199.806 57.8527 207.137C58.3405 214.469 63.9991 221.703 63.9991 221.703C63.9991 221.703 112.194 221.703 117.56 221.703C122.926 221.703 124.487 209.484 124.097 204.987C123.804 200.686 134.048 180.842 133.462 172.924Z" fill="#FF9123"/>
<path d="M133.462 172.924C131.609 148.877 125.658 133.725 125.658 133.725L116.389 130.891C115.023 137.049 104.975 139.102 99.3161 136.365L93.2673 133.237C73.9503 130.304 74.9259 131.966 70.4381 134.605C66.5356 136.951 66.9259 154.351 66.9259 154.351C66.9259 154.351 57.2674 199.806 57.8527 207.137C58.3405 214.469 63.9991 221.703 63.9991 221.703C63.9991 221.703 112.194 221.703 117.56 221.703C122.926 221.703 124.487 209.484 124.097 204.987C123.804 200.686 134.048 180.842 133.462 172.924Z" fill="url(#paint14_linear_485_2)" fill-opacity="0.5"/>
<path d="M82.5361 188.075C82.5361 188.075 82.8288 188.369 83.4142 188.857C83.9995 189.346 84.9752 189.933 86.1459 190.519C87.4142 191.106 88.9752 191.595 90.7313 191.888C92.4874 192.181 94.5361 192.083 96.5849 191.595C100.682 190.617 103.804 188.173 105.658 186.316C106.634 185.338 107.317 184.459 107.707 183.872C108.195 183.286 108.39 182.895 108.292 182.895C108.195 182.797 107.219 184.165 105.268 186.023C103.317 187.782 100.292 190.128 96.2922 191.008C92.2922 191.986 88.5849 191.106 86.1459 190.031C83.902 189.053 82.6337 187.978 82.5361 188.075Z" fill="black" fill-opacity="0.5"/>
<g opacity="0.3">
<g opacity="0.3">
<g opacity="0.3">
<g opacity="0.3">
<g opacity="0.3">
<g opacity="0.3">
<g opacity="0.3">
<path opacity="0.3" d="M107.61 184.166C107.219 188.174 105.268 192.181 102.146 194.723C99.0242 197.265 94.5364 198.34 90.634 197.265C86.7315 196.189 83.512 192.768 82.8291 188.76C85.5608 190.031 88.3901 191.302 91.4145 191.79C97.7559 192.768 104.585 189.542 107.902 183.97C107.805 184.166 107.61 184.263 107.512 184.459" fill="black"/>
</g>
</g>
</g>
</g>
</g>
</g>
</g>
<path d="M46.3408 171.849L73.3652 184.556C73.3652 184.556 84.3896 160.118 85.3652 156.795C86.3408 153.471 89.2677 148.193 86.2433 141.252C83.2189 134.312 75.0238 131.77 70.5359 134.703C60.3896 141.35 46.3408 171.849 46.3408 171.849Z" fill="#FF9123"/>
<path d="M46.3408 171.849L73.3652 184.556C73.3652 184.556 84.3896 160.118 85.3652 156.795C86.3408 153.471 89.2677 148.193 86.2433 141.252C83.2189 134.312 75.0238 131.77 70.5359 134.703C60.3896 141.35 46.3408 171.849 46.3408 171.849Z" fill="url(#paint15_linear_485_2)" fill-opacity="0.5"/>
<path d="M131.317 173.12C132.585 173.12 147.024 180.744 147.024 180.744L155.317 153.374C143.024 145.163 132.878 135.778 125.658 133.823L129.463 156.404L131.317 173.12Z" fill="#FF9123"/>
<path d="M131.317 173.12C132.585 173.12 147.024 180.744 147.024 180.744L155.317 153.374C143.024 145.163 132.878 135.778 125.658 133.823L129.463 156.404L131.317 173.12Z" fill="url(#paint16_linear_485_2)" fill-opacity="0.5"/>
<path d="M46.3408 171.849C46.3408 171.849 46.5359 171.946 46.8286 172.044C47.2189 172.24 47.7067 172.435 48.292 172.728C49.6579 173.315 51.5116 174.195 53.7555 175.172C58.4384 177.323 64.6823 180.158 71.7067 183.383C72.4872 183.774 73.1701 184.068 73.853 184.361L73.5603 184.459C76.6823 178.007 79.414 172.24 81.3652 168.134C82.3408 166.081 83.0238 164.419 83.6091 163.246C83.9018 162.758 84.0969 162.269 84.1945 161.878C84.2921 161.585 84.3896 161.389 84.3896 161.389C84.3896 161.389 84.3896 161.585 84.1945 161.878C84.0969 162.171 83.9018 162.66 83.7067 163.246C83.2189 164.419 82.5359 166.179 81.5603 168.232C79.7067 172.435 77.0725 178.203 73.9506 184.654L73.853 184.85L73.6579 184.752C72.975 184.459 72.1945 184.068 71.5116 183.774C64.5847 180.549 58.2433 177.616 53.6579 175.465C51.414 174.39 49.5603 173.51 48.292 172.924C47.7067 172.631 47.2189 172.435 46.8286 172.24C46.5359 171.946 46.3408 171.849 46.3408 171.849Z" fill="black" fill-opacity="0.5"/>
<path d="M128.878 150.636C128.878 150.636 129.073 151.223 129.463 152.298C129.853 153.471 130.341 155.035 130.926 156.892C132.097 160.802 133.756 166.277 133.853 172.631C133.756 175.759 133.17 178.691 132.39 181.33C131.609 183.97 130.731 186.218 130.048 188.075C129.268 189.933 128.682 191.497 128.195 192.572C127.707 193.647 127.512 194.234 127.512 194.234C127.512 194.234 127.512 194.038 127.609 193.745C127.707 193.452 127.902 192.963 128 192.474C128.39 191.301 128.975 189.835 129.658 187.978C130.341 186.023 131.219 183.774 131.902 181.233C132.585 178.691 133.268 175.759 133.268 172.631C133.17 166.472 131.609 160.998 130.439 157.088C129.853 155.133 129.463 153.569 129.17 152.396C129.073 151.809 128.975 151.418 128.878 151.125C128.878 150.832 128.878 150.636 128.878 150.636Z" fill="black" fill-opacity="0.5"/>
<path d="M106.048 145.26C105.658 141.252 103.512 137.635 100.682 134.801C99.3164 133.432 97.5603 131.966 97.3652 130.011C96.9749 127.469 99.2188 125.025 98.8286 122.484C98.3408 119.258 94.4383 117.889 92.9749 115.055C91.0237 111.144 94.4383 106.159 92.3896 102.347C91.1213 100.098 88.1944 98.8277 87.6091 96.2861C87.2188 94.6243 90.3408 92.2783 91.0237 88.6614C92.6823 80.6457 93.4627 74.4873 85.7554 69.7952L81.17 63.5391C76.0969 65.9829 71.8042 71.6525 71.7066 77.4199C71.7066 80.157 73.0725 82.9918 71.9018 85.4356C70.2432 88.9547 66.3408 91.1052 65.1701 94.7221C63.5115 100.001 68.0969 105.866 66.1457 110.949C64.9749 113.979 61.853 115.739 59.8042 118.28C56.6823 122.288 57.0725 128.642 60.4871 132.259C55.5115 135.583 53.2676 142.425 55.2188 147.997C55.9993 150.343 57.853 152.689 60.3896 152.885C63.9993 153.08 66.0481 149.072 68.5847 146.531C72.6823 142.718 79.8042 142.914 83.6091 146.922C86.3408 149.757 87.5115 154.058 90.731 156.404C93.9505 158.75 98.731 158.359 101.853 155.817C104.975 153.471 106.438 149.17 106.048 145.26Z" fill="#4A4743"/>
<path d="M70.7314 182.797C65.6582 191.204 62.0484 196.091 62.0484 196.091L107.902 224.048L102.536 236.463L43.024 211.927C43.024 211.927 37.1704 205.866 39.2192 199.121L48.6826 172.924L70.7314 182.797Z" fill="#FFBE9D"/>
<path d="M50.9262 200.392C51.0237 200.49 53.1701 198.731 56.3896 197.558C59.6091 196.385 62.4384 196.287 62.4384 196.091C62.4384 195.994 59.5116 195.7 56.1945 196.971C52.8774 198.242 50.8286 200.295 50.9262 200.392Z" fill="#EB996E"/>
<path d="M143.512 232.65L132.097 227.176L109.756 225.417L107.902 224.146L102.536 236.561C102.536 236.561 108.39 239.395 111.414 239.591L130.146 239.004L140 240.08L143.512 232.65Z" fill="#FFBE9D"/>
<path d="M207.9 188.466L143.51 188.955C141.461 188.955 139.413 189.933 139.12 191.985L132.096 239.004H98.9249C97.8517 239.004 96.9736 239.884 96.9736 240.959C96.9736 242.035 97.8517 242.914 98.9249 242.914H131.51H137.657H204.876L212.096 193.256C212.486 190.715 210.535 188.466 207.9 188.466Z" fill="#E0E0E0"/>
<path d="M207.902 188.466C207.902 188.466 208.292 188.466 208.877 188.564C209.56 188.76 210.536 189.151 211.316 190.226C211.706 190.715 211.999 191.497 212.097 192.279C212.194 193.061 211.999 193.94 211.902 194.918C211.609 196.775 211.316 199.024 210.926 201.467C209.463 211.34 207.511 225.514 204.975 243.012V243.208H204.78C177.365 243.208 141.365 243.208 102.048 243.305C101.17 243.305 100.194 243.305 99.3162 243.305C98.926 243.305 98.3406 243.305 97.8528 243.012C97.365 242.719 97.0723 242.328 96.8772 241.839C96.487 240.862 96.9748 239.689 97.8528 239.2C98.3406 238.907 98.926 238.907 99.3162 238.907H100.682C104.292 238.907 107.902 238.907 111.414 238.907C118.536 238.907 125.365 238.907 132.097 238.907L131.804 239.102C134.341 222.289 136.682 206.55 138.828 192.474C138.926 191.594 139.316 190.617 139.999 190.03C140.682 189.444 141.56 189.053 142.438 188.955C143.316 188.857 144.194 188.857 145.072 188.857C145.95 188.857 146.731 188.857 147.609 188.857C150.926 188.857 154.145 188.857 157.267 188.76C163.511 188.76 169.267 188.662 174.536 188.662C184.975 188.564 193.365 188.564 199.024 188.564C201.853 188.564 204.097 188.564 205.56 188.564C206.341 188.564 206.828 188.564 207.219 188.564C207.706 188.466 207.902 188.466 207.902 188.466C207.902 188.466 207.706 188.466 207.316 188.466C206.926 188.466 206.341 188.466 205.658 188.466C204.194 188.466 201.95 188.564 199.121 188.564C193.365 188.662 185.072 188.76 174.633 188.857C169.365 188.955 163.609 188.955 157.365 189.053C154.243 189.053 151.024 189.151 147.706 189.151C146.828 189.151 146.048 189.151 145.17 189.151C144.292 189.151 143.414 189.151 142.633 189.248C141.853 189.346 140.975 189.639 140.389 190.226C139.804 190.812 139.414 191.594 139.316 192.474C137.17 206.55 134.926 222.289 132.389 239.102V239.298H132.194C125.56 239.298 118.633 239.298 111.511 239.298C107.999 239.298 104.389 239.298 100.78 239.298H99.4138C98.926 239.298 98.5357 239.298 98.2431 239.493C97.5601 239.884 97.1699 240.764 97.4626 241.546C97.5601 241.937 97.8528 242.23 98.2431 242.426C98.6333 242.621 98.926 242.621 99.4138 242.621C100.292 242.621 101.267 242.621 102.145 242.621C141.463 242.621 177.463 242.621 204.877 242.719L204.682 242.914C207.219 225.417 209.365 211.243 210.828 201.37C211.219 198.926 211.511 196.775 211.804 194.82C211.902 193.843 212.194 192.963 212.097 192.181C211.999 191.399 211.706 190.715 211.316 190.128C210.536 189.053 209.56 188.662 208.975 188.466C208.292 188.466 207.902 188.466 207.902 188.466Z" fill="#4A4743"/>
<path d="M172.975 219.063C175.184 219.063 176.975 217.268 176.975 215.055C176.975 212.841 175.184 211.047 172.975 211.047C170.765 211.047 168.975 212.841 168.975 215.055C168.975 217.268 170.765 219.063 172.975 219.063Z" fill="white"/>
<path d="M134.731 242.523C134.829 242.523 136.878 230.598 139.317 215.739C141.756 200.979 143.609 188.955 143.609 188.955C143.512 188.955 141.463 200.881 139.024 215.739C136.487 230.5 134.634 242.523 134.731 242.523Z" fill="#4A4743"/>
</g>
<defs>
<linearGradient id="paint0_linear_485_2" x1="505.314" y1="327.917" x2="536.2" y2="386.061" gradientUnits="userSpaceOnUse">
<stop stop-color="#FFCA00"/>
<stop offset="0.791667" stop-color="#FF9000"/>
</linearGradient>
<linearGradient id="paint1_linear_485_2" x1="410.216" y1="326.333" x2="446.557" y2="364.152" gradientUnits="userSpaceOnUse">
<stop stop-color="#FFCA00"/>
<stop offset="0.791667" stop-color="#FF9000"/>
</linearGradient>
<linearGradient id="paint2_linear_485_2" x1="445.26" y1="288.665" x2="463.311" y2="366.039" gradientUnits="userSpaceOnUse">
<stop stop-color="#FFCA00"/>
<stop offset="0.791667" stop-color="#FF9000"/>
</linearGradient>
<linearGradient id="paint3_linear_485_2" x1="454.639" y1="276.447" x2="505.852" y2="370.392" gradientUnits="userSpaceOnUse">
<stop stop-color="#FFCA00"/>
<stop offset="0.791667" stop-color="#FF9000"/>
</linearGradient>
<linearGradient id="paint4_linear_485_2" x1="468.676" y1="270.392" x2="477.656" y2="295.948" gradientUnits="userSpaceOnUse">
<stop stop-color="#FFCA00"/>
<stop offset="0.791667" stop-color="#FF9000"/>
</linearGradient>
<linearGradient id="paint5_linear_485_2" x1="453.744" y1="276.813" x2="464.854" y2="288.117" gradientUnits="userSpaceOnUse">
<stop stop-color="#FFCA00"/>
<stop offset="0.791667" stop-color="#FF9000"/>
</linearGradient>
<linearGradient id="paint6_linear_485_2" x1="466.434" y1="282.24" x2="471.141" y2="301.054" gradientUnits="userSpaceOnUse">
<stop stop-color="#FFCA00"/>
<stop offset="0.791667" stop-color="#FF9000"/>
</linearGradient>
<linearGradient id="paint7_linear_485_2" x1="311.9" y1="86.3152" x2="327.269" y2="142.247" gradientUnits="userSpaceOnUse">
<stop stop-color="#FFCA00"/>
<stop offset="0.791667" stop-color="#FF9000"/>
</linearGradient>
<linearGradient id="paint8_linear_485_2" x1="440.623" y1="83.9334" x2="495.529" y2="151.653" gradientUnits="userSpaceOnUse">
<stop stop-color="#FFCA00"/>
<stop offset="0.791667" stop-color="#FF9000"/>
</linearGradient>
<linearGradient id="paint9_linear_485_2" x1="445.87" y1="145.163" x2="451.128" y2="150.681" gradientUnits="userSpaceOnUse">
<stop stop-color="#FFCA00"/>
<stop offset="0.791667" stop-color="#FF9000"/>
</linearGradient>
<linearGradient id="paint10_linear_485_2" x1="433.421" y1="105.537" x2="433.934" y2="105.56" gradientUnits="userSpaceOnUse">
<stop stop-color="#FFCA00"/>
<stop offset="0.791667" stop-color="#FF9000"/>
</linearGradient>
<linearGradient id="paint11_linear_485_2" x1="380.658" y1="81.888" x2="428.232" y2="174.249" gradientUnits="userSpaceOnUse">
<stop stop-color="#FFCA00"/>
<stop offset="0.791667" stop-color="#FF9000"/>
</linearGradient>
<linearGradient id="paint12_linear_485_2" x1="171.317" y1="351.029" x2="171.317" y2="427.276" gradientUnits="userSpaceOnUse">
<stop stop-color="#A8D7A8"/>
<stop offset="1" stop-color="#95B895"/>
</linearGradient>
<linearGradient id="paint13_linear_485_2" x1="258.342" y1="363.248" x2="258.342" y2="452.482" gradientUnits="userSpaceOnUse">
<stop stop-color="#A8D7A8"/>
<stop offset="1" stop-color="#95B895"/>
</linearGradient>
<linearGradient id="paint14_linear_485_2" x1="79.2258" y1="137.312" x2="118.539" y2="216.61" gradientUnits="userSpaceOnUse">
<stop stop-color="#FFCA00"/>
<stop offset="0.791667" stop-color="#FF9000"/>
</linearGradient>
<linearGradient id="paint15_linear_485_2" x1="58.0037" y1="137.113" x2="80.517" y2="181.138" gradientUnits="userSpaceOnUse">
<stop stop-color="#FFCA00"/>
<stop offset="0.791667" stop-color="#FF9000"/>
</linearGradient>
<linearGradient id="paint16_linear_485_2" x1="134.046" y1="137.141" x2="157.42" y2="172.91" gradientUnits="userSpaceOnUse">
<stop stop-color="#FFCA00"/>
<stop offset="0.791667" stop-color="#FF9000"/>
</linearGradient>
<clipPath id="clip0_485_2">
<rect width="580" height="452.496" fill="white"/>
</clipPath>
</defs>
</svg>
