<svg width="434" height="411" viewBox="0 0 434 411" fill="none" xmlns="http://www.w3.org/2000/svg">
<g clip-path="url(#clip0_618_2303)">
<path d="M24.0167 198.364C22.506 198.796 20.2246 200.676 17.1107 199.011C14.8909 197.84 12.517 196.915 11.3454 196.484C10.8829 196.329 10.6055 196.237 10.6055 196.237L12.332 192.63C12.332 192.63 12.3628 192.661 12.4861 192.692C13.2877 192.969 17.4498 194.387 19.4846 194.172C21.7661 193.925 25.2191 197.038 25.2191 197.038C25.2191 197.038 25.5274 197.932 24.0167 198.364Z" fill="#FFB27D"/>
<path d="M0 193.956C0 193.956 1.51069 193.894 2.62059 193.308C3.73048 192.723 7.30681 193.678 6.96768 194.141C6.62854 194.603 4.59374 194.017 4.40875 194.295C4.22377 194.572 3.48384 194.911 3.48384 194.911L0 193.956Z" fill="#FFB27D"/>
<path d="M91.3787 249.165H21.2086C11.1271 249.165 2.95703 240.996 2.95703 230.916V160.757C2.95703 150.677 11.1271 142.508 21.2086 142.508H91.3787C101.46 142.508 109.63 150.677 109.63 160.757V230.916C109.63 240.996 101.46 249.165 91.3787 249.165Z" fill="#FCF1E7"/>
<path d="M95.8175 168.771V220.836C95.8175 222.377 95.5709 223.857 95.0776 225.244C93.4436 229.991 89.2198 233.536 84.1019 234.245C83.5162 234.338 82.8995 234.369 82.2829 234.369H30.2103C24.3526 234.369 19.358 230.639 17.4774 225.429C16.9533 224.011 16.6758 222.47 16.6758 220.867V168.771C16.6758 161.311 22.7185 155.239 30.2103 155.239H82.2829C89.7439 155.239 95.8175 161.311 95.8175 168.771Z" fill="#FFF9F3"/>
<path d="M49.4515 191.151C49.4515 191.151 49.1741 199.289 48.1567 202.957L39.8633 208.69L70.9404 213.345L63.5411 203.111C63.5411 203.111 61.2904 192.168 62.462 188.13C63.6644 184.091 49.4515 191.151 49.4515 191.151Z" fill="#FFB27D"/>
<path d="M49.3906 192.261C49.3906 192.261 51.8571 198.179 56.4816 198.056C61.1062 197.933 62.1544 192.692 62.1544 192.692L49.3906 192.261Z" fill="#ED985F"/>
<path d="M46.6472 187.482C46.6472 187.482 45.1366 180.023 44.1192 177.772C43.0709 175.522 42.2077 165.411 53.7691 164.918C53.7691 164.918 58.2087 165.442 60.6443 163.962C60.6443 163.962 60.6443 165.442 60.0276 165.966C60.0276 165.966 64.0356 165.01 67.1495 168.494C70.2942 171.977 65.053 184.153 65.3305 187.02L46.6472 187.482Z" fill="#B64C41"/>
<path d="M55.9563 195.775C52.5958 195.713 46.4297 191.244 46.4297 185.726V177.095C46.4297 175.06 47.8479 173.426 49.5744 173.426H62.369C64.0955 173.426 65.5137 175.091 65.5137 177.095V185.233C65.4829 191.028 59.8101 195.837 55.9563 195.775Z" fill="#FFB27D"/>
<path d="M46.4326 181.688C46.4326 181.688 46.4634 176.509 50.5639 175.707C54.6643 174.906 63.8826 178.235 65.1775 174.443C66.4724 170.652 47.3883 170.714 46.4326 173.149C45.4768 175.553 46.4326 181.688 46.4326 181.688Z" fill="#B64C41"/>
<path d="M75.4721 205.423C75.4413 205.423 75.4413 205.392 75.4721 205.423C74.578 205.084 74.1464 205.053 74.1464 205.053C70.755 204.19 67.5795 203.604 64.5889 203.235C64.2498 203.204 63.9107 203.142 63.5715 203.111C61.5367 205.824 59.9027 207.057 58.1762 207.92C57.8063 208.105 57.4055 208.29 57.0047 208.444C56.6655 208.598 56.3264 208.722 55.9564 208.876C55.494 208.814 55.0623 208.691 54.6307 208.537C54.3841 208.444 54.1374 208.352 53.8908 208.228C50.5919 206.687 48.1255 203.019 48.1255 202.926C47.663 202.988 47.2314 203.019 46.7998 203.08C42.9152 203.574 40.2637 204.283 39.123 204.653C38.8764 204.683 30.4288 205.855 17.4492 225.429C19.3299 230.639 24.3244 234.369 30.1822 234.369H82.2548C82.8714 234.369 83.488 234.338 84.0738 234.245C89.1916 233.567 93.3846 229.991 95.0494 225.244C85.2762 210.386 78.2468 206.44 75.4721 205.423Z" fill="#2F5196"/>
<path d="M48.5581 200.953C48.5581 200.953 47.1707 201.539 46.8008 203.08C46.8008 203.08 52.3503 208.783 55.9574 208.875L48.5581 200.953Z" fill="#EE9849"/>
<path d="M55.957 208.875L63.1097 200.676C63.1097 200.676 64.5895 201.631 64.5587 203.234C64.5587 203.234 59.0401 209.091 55.957 208.875Z" fill="#EE9849"/>
<path d="M59.1605 234.368H52.0078C52.8402 224.782 53.8885 215.287 54.3818 210.848C54.4742 209.954 54.5667 209.245 54.5976 208.814C54.5976 208.752 54.5976 208.66 54.6284 208.598C54.6284 208.567 54.6284 208.536 54.6284 208.506C54.6592 208.321 54.6592 208.228 54.6592 208.228H55.3683L56.5091 208.197H56.9715C56.9715 208.197 56.9715 208.259 57.0023 208.413C57.0023 208.475 57.0023 208.598 57.0332 208.721C57.0332 208.814 57.0332 208.906 57.064 209.03C57.0948 209.554 57.1873 210.324 57.249 211.28C57.6189 215.935 58.3897 225.151 59.1605 234.368Z" fill="#EE9849"/>
<path d="M53.2454 205.978C53.2454 205.978 56.5442 205.639 58.5482 205.855C58.949 205.885 59.1648 206.317 58.9799 206.687C58.4249 207.704 57.2842 209.461 56.0818 209.461C54.3861 209.43 51.7347 206.07 53.2454 205.978Z" fill="#E58638"/>
<path d="M130.476 120.005H59.5655C49.3915 120.005 41.1289 111.743 41.1289 101.571V30.6716C41.1289 20.4991 49.3915 12.2378 59.5655 12.2378H130.476C140.65 12.2378 148.912 20.4991 148.912 30.6716V101.571C148.912 111.774 140.65 120.005 130.476 120.005Z" fill="#FCF1E7"/>
<path d="M134.947 38.7784V91.398C134.947 92.6003 134.793 93.7408 134.515 94.8505C133.405 99.1353 130.261 102.588 126.222 104.16C126.068 104.222 125.913 104.283 125.759 104.345C124.372 104.838 122.861 105.085 121.289 105.085H68.6305C67.9523 105.085 67.2432 105.023 66.5957 104.931C62.3411 104.283 58.7031 101.694 56.6992 98.0872C55.5893 96.1144 54.9727 93.8333 54.9727 91.4289V38.7784C54.9727 31.2261 61.1079 25.0918 68.6614 25.0918H121.289C128.812 25.0918 134.947 31.2261 134.947 38.7784Z" fill="#FFF9F3"/>
<path d="M90.4914 58.5073C90.4914 58.5073 90.2447 65.6589 89.3506 68.8648L82.1055 73.9202L109.421 78.0201L102.916 69.0189C102.916 69.0189 100.943 59.4013 101.991 55.8563C102.978 52.3114 90.4914 58.5073 90.4914 58.5073Z" fill="#FFB27D"/>
<path d="M90.4297 59.4937C90.4297 59.4937 92.5878 64.7032 96.6574 64.5799C100.727 64.4566 101.652 59.8636 101.652 59.8636L90.4297 59.4937Z" fill="#ED985F"/>
<path d="M87.9931 55.2705C87.9931 55.2705 86.6674 48.7046 85.7733 46.7318C84.8484 44.7589 84.0777 35.8811 94.2517 35.4187C94.2517 35.4187 98.1363 35.8811 100.294 34.5864C100.294 34.5864 100.294 35.8811 99.7703 36.3435C99.7703 36.3435 103.285 35.5112 106.029 38.5629C108.773 41.6147 104.21 52.3112 104.426 54.8389L87.9931 55.2705Z" fill="#4A4743"/>
<path d="M104.581 46.1459V53.2975C104.581 54.4997 104.303 55.6402 103.841 56.6883C103.039 58.507 101.683 60.0791 100.172 61.0964C98.8463 62.0212 97.4281 62.576 96.1949 62.5452C95.1467 62.5144 93.7593 62.0212 92.4336 61.1272C90.6454 59.925 88.9189 58.0755 88.2098 55.9177V55.8868L88.179 55.7944C87.9632 55.1162 87.8398 54.438 87.8398 53.729V46.1459C87.8398 44.358 89.0731 42.9092 90.5838 42.9092H101.837C103.348 42.9092 104.581 44.358 104.581 46.1459Z" fill="#FFB27D"/>
<path d="M112.163 70.7451C112.163 70.7451 105.75 69.358 102.883 69.0189C100.355 72.3789 98.5361 73.3037 96.2238 74.1976C92.4933 73.6736 89.3486 68.9572 89.3486 68.8647C85.279 69.2963 82.566 70.1594 81.4252 70.4985C81.1786 70.5293 71.2203 71.9165 56.6992 98.1801C58.734 101.787 62.3412 104.407 66.5958 105.023C68.4764 103.42 72.4844 99.9063 75.6291 97.1936C75.5983 98.0876 75.5983 98.8891 75.5983 99.5672C75.6599 101.448 75.7216 103.328 75.7524 105.178H115.37C115.308 104.222 115.246 103.328 115.185 102.434C115.061 99.7213 114.907 97.2245 114.815 94.9434C114.815 94.9125 114.815 94.9125 114.815 94.8817C114.815 94.8509 114.815 94.8201 114.815 94.8201C115.4 95.3133 116.079 95.899 116.819 96.5463C116.973 96.6696 117.127 96.7929 117.281 96.947C117.404 97.0703 117.558 97.1628 117.682 97.2861C117.867 97.4402 118.052 97.5944 118.237 97.7793C118.576 98.0876 118.915 98.365 119.254 98.6733C119.408 98.7966 119.562 98.9507 119.717 99.074C119.809 99.1357 119.871 99.2281 119.963 99.2898C120.056 99.3823 120.148 99.4439 120.241 99.5364C120.302 99.598 120.395 99.6597 120.457 99.7214C120.642 99.8755 120.796 100.03 120.95 100.153C121.104 100.276 121.227 100.4 121.351 100.523C121.474 100.615 121.566 100.708 121.69 100.831C122.091 101.201 122.522 101.54 122.923 101.879C123.077 102.002 123.231 102.157 123.385 102.28C123.54 102.434 123.694 102.557 123.848 102.681C123.971 102.773 124.064 102.866 124.187 102.958C124.249 102.989 124.28 103.051 124.341 103.081C124.495 103.235 124.68 103.359 124.834 103.482C124.989 103.636 125.143 103.76 125.297 103.883C125.359 103.944 125.42 103.975 125.482 104.037C125.544 104.099 125.605 104.16 125.667 104.191C125.821 104.129 125.975 104.068 126.129 104.006C130.199 102.434 133.313 98.9815 134.423 94.6968C120.919 71.4233 112.163 70.7451 112.163 70.7451Z" fill="#F99746"/>
<path d="M87.8075 50.1844C87.8075 50.1844 87.8383 45.6222 91.4455 44.9132C95.0526 44.2042 103.13 47.1327 104.271 43.8035C105.412 40.4743 88.6399 40.536 87.8075 42.6629C86.975 44.7899 87.8075 50.1844 87.8075 50.1844Z" fill="#4A4743"/>
<path d="M80.4703 105.054H75.7841C75.7533 103.174 75.6916 101.324 75.63 99.4437C75.5991 98.7347 75.63 97.9332 75.6608 97.0701C75.6608 96.8852 75.6608 96.6694 75.6916 96.4536C75.7224 96.5153 75.8149 96.6694 75.9383 96.8235C76.5857 97.9949 78.4972 101.17 80.4703 105.054Z" fill="#ED7D2B"/>
<path d="M100.172 57.9525V61.0967C98.8463 62.0215 97.4281 62.5763 96.1949 62.5455C95.1467 62.5147 93.7593 62.0215 92.4336 61.1275V57.9525C92.4336 56.1954 93.8826 54.7466 95.64 54.7466H96.9657C98.723 54.7466 100.172 56.1954 100.172 57.9525Z" fill="#4A4743"/>
<path d="M126.189 104.16C126.035 104.222 125.881 104.284 125.727 104.345C125.665 104.284 125.604 104.253 125.542 104.191C125.48 104.129 125.419 104.099 125.357 104.037C125.203 103.914 125.049 103.76 124.894 103.636C124.74 103.513 124.586 103.359 124.401 103.235C124.34 103.205 124.309 103.143 124.247 103.112C124.124 103.02 124.031 102.927 123.908 102.835C123.754 102.711 123.6 102.557 123.445 102.434C123.291 102.311 123.137 102.157 122.983 102.033C122.582 101.694 122.181 101.324 121.75 100.985C121.626 100.893 121.534 100.8 121.411 100.677C121.287 100.554 121.133 100.43 121.01 100.307C120.856 100.153 120.671 99.9988 120.517 99.8755C120.455 99.8138 120.362 99.7522 120.301 99.6905C120.208 99.5981 120.116 99.5056 120.023 99.4439C119.931 99.3823 119.838 99.2898 119.777 99.2281C119.622 99.074 119.468 98.9507 119.314 98.8274C118.975 98.5192 118.636 98.2417 118.297 97.9335C118.112 97.7793 117.927 97.5944 117.742 97.4403C117.618 97.317 117.464 97.1936 117.341 97.1012C117.187 96.9779 117.033 96.8237 116.879 96.7004C116.139 96.0531 115.46 95.4674 114.875 94.9742L114.844 94.9434C114.844 94.9434 114.844 94.9434 114.875 94.9125C115.245 94.6351 118.667 92.3848 120.825 96.2072C122.305 98.7658 124.74 102.187 126.189 104.16Z" fill="#ED7D2B"/>
<path d="M103.837 56.6884C102.327 60.1409 98.781 62.6069 96.1913 62.5453C93.694 62.5144 89.4394 59.7093 88.1754 55.9177V55.8869L88.1445 55.7944C88.1445 55.7944 90.8268 58.0755 92.5841 56.935H100.014C100.014 56.935 101.957 58.0447 103.837 56.6884Z" fill="#4A4743"/>
<path d="M97.088 57.5823H95.4848C95.1148 57.5823 94.6523 56.9967 94.6523 56.6267C94.6523 56.6267 95.1148 56.2568 95.4848 56.2568H97.088C97.4579 56.2568 97.982 56.5651 98.0745 56.7809C98.0745 56.7809 97.8587 57.5823 97.088 57.5823Z" fill="#FFB27D"/>
<path d="M259.405 117.816H188.495C178.321 117.816 170.059 109.555 170.059 99.3824V28.4831C170.059 18.3106 178.321 10.0493 188.495 10.0493H259.405C269.579 10.0493 277.842 18.3106 277.842 28.4831V99.3824C277.842 109.555 269.579 117.816 259.405 117.816Z" fill="#FCF1E7"/>
<path d="M263.877 36.5592V89.1788C263.877 92.5388 262.674 95.6214 260.639 97.995C258.142 100.954 254.381 102.835 250.188 102.835H197.56C194.107 102.835 190.963 101.571 188.558 99.4438C185.691 96.9469 183.902 93.2478 183.902 89.148V36.5592C183.902 29.0069 190.038 22.8726 197.591 22.8726H250.219C257.772 22.9034 263.877 29.0069 263.877 36.5592Z" fill="#FFF9F3"/>
<path d="M218.31 71.8546C218.31 71.8546 209.739 71.4231 209.492 66.4601C209.246 61.4972 202.155 57.8906 204.22 53.9141C206.749 49.0436 204.436 44.3581 207.612 41.0597C211.126 37.4531 215.535 39.3951 217.878 37.299C220.221 35.2028 224.476 33.2608 228.7 35.8502C232.924 38.4395 236.13 37.0524 238.905 39.5492C241.957 42.3236 240.816 45.8069 243.313 47.6872C245.626 49.4135 244.67 54.1607 242.728 58.0139C241.309 60.7882 244.547 63.3776 238.997 66.5834C236.685 67.9089 237.178 71.2381 230.18 71.8238C227.004 72.1321 220.16 70.6524 218.31 71.8546Z" fill="#4A4743"/>
<path d="M218.556 67.4777C218.556 67.4777 218.309 75.215 217.323 78.6983L209.461 84.1545L238.996 88.5625L231.967 78.8216C231.967 78.8216 229.84 68.4333 230.95 64.6109C232.06 60.7885 218.556 67.4777 218.556 67.4777Z" fill="#FFB27D"/>
<path d="M218.527 68.5254C218.527 68.5254 220.87 74.1357 225.248 74.0124C229.657 73.8891 230.644 68.9261 230.644 68.9261L218.527 68.5254Z" fill="#99592E" fill-opacity="0.35"/>
<path d="M224.752 71.8547C221.576 71.793 215.688 67.5699 215.688 62.2987V54.099C215.688 52.1878 217.013 50.6157 218.647 50.6157H230.794C232.428 50.6157 233.754 52.1878 233.754 54.099V61.8363C233.785 67.3541 228.39 71.9163 224.752 71.8547Z" fill="#FFB27D"/>
<path d="M241.988 80.8247C238.411 79.9308 235.051 79.2218 231.937 78.8519C229.193 82.4893 227.22 83.4449 224.723 84.4622C220.684 83.9073 217.293 78.8211 217.293 78.6978C212.915 79.1601 209.955 80.0849 208.753 80.4548C208.413 80.4856 200.552 81.7187 188.559 99.6284C190.963 101.755 194.108 103.019 197.561 103.019H202.987H207.365H244.639C244.639 102.988 244.639 102.927 244.639 102.896H250.189C254.382 102.896 258.112 101.016 260.64 98.0563C252.223 83.5682 241.988 80.8247 241.988 80.8247Z" fill="#B64C41"/>
<path d="M215.691 57.4283C215.691 57.4283 217.911 50.6775 225.156 51.7256C232.401 52.7736 233.018 54.3149 233.788 56.1336C234.559 57.9215 236.039 49.5678 236.039 49.5678L227.499 47.04C227.499 47.04 217.171 48.2114 216.4 49.9377C215.66 51.6639 215.66 51.6639 215.66 51.6639L215.691 57.4283Z" fill="#4A4743"/>
<path d="M233.016 58.3224C232.615 57.8292 231.937 57.5518 231.197 57.5518H227.343C226.603 57.5518 226.11 57.7675 225.832 58.1683C225.709 58.3532 225.647 58.569 225.617 58.8156C224.969 58.6615 224.353 58.7231 223.921 58.8464C223.89 58.5998 223.828 58.3841 223.705 58.1683C223.428 57.7675 222.904 57.5518 222.194 57.5518H218.341C217.57 57.5518 216.922 57.8292 216.522 58.3224C216.152 58.7848 216.028 59.3705 216.152 60.0178C216.583 62.2064 219.081 62.4839 220.345 62.4839C220.745 62.4839 220.992 62.453 221.054 62.453C222.225 62.453 223.058 61.7749 223.644 60.3569C223.736 60.1103 223.921 59.6479 223.921 59.1855C224.322 59.0622 224.969 58.9697 225.617 59.1547C225.647 59.6479 225.802 60.1103 225.894 60.3569C226.48 61.7749 227.312 62.453 228.484 62.453C228.546 62.453 228.792 62.4839 229.193 62.4839C230.457 62.4839 232.954 62.2064 233.386 60.0486C233.509 59.3705 233.386 58.7848 233.016 58.3224ZM223.644 59.2472C223.613 59.6787 223.459 60.0795 223.366 60.2644C222.811 61.5899 222.071 62.2064 220.992 62.2064H220.961C220.961 62.2064 219.913 62.3297 218.834 62.114C217.416 61.8365 216.583 61.0967 216.337 59.987C216.213 59.4013 216.337 58.9081 216.645 58.5074C217.015 58.0758 217.601 57.8292 218.279 57.8292H222.133C222.78 57.8292 223.212 58.0141 223.428 58.3532C223.551 58.5382 223.582 58.7231 223.613 58.9389C223.428 59.0006 223.304 59.0622 223.274 59.0622C223.212 59.093 223.15 59.1855 223.212 59.278C223.243 59.3397 223.304 59.3705 223.335 59.3705C223.366 59.3705 223.366 59.3705 223.397 59.3705C223.428 59.3088 223.52 59.278 223.644 59.2472ZM233.139 59.9562C232.923 61.0659 232.06 61.7749 230.642 62.0831C229.563 62.2989 228.515 62.1756 228.515 62.1756C227.466 62.1756 226.696 61.5591 226.141 60.2336C226.079 60.0486 225.925 59.6479 225.863 59.2163C225.925 59.2472 226.017 59.278 226.079 59.3088C226.141 59.3396 226.233 59.3088 226.295 59.2472C226.326 59.1855 226.295 59.093 226.233 59.0314C226.11 58.9697 225.987 58.9081 225.863 58.8773C225.863 58.6615 225.925 58.4765 226.048 58.3224C226.264 57.9833 226.727 57.7984 227.343 57.7984H231.197C231.875 57.7984 232.492 58.045 232.831 58.4765C233.139 58.8773 233.232 59.4013 233.139 59.9562Z" fill="#2C3A64"/>
<path d="M405.328 115.288L334.881 107.15C324.768 105.979 317.523 96.8545 318.695 86.7437L326.803 16.3068C327.975 6.19593 337.1 -1.04813 347.213 0.123248L417.66 8.26125C427.773 9.43263 435.018 18.5571 433.846 28.6679L425.769 99.1048C424.597 109.216 415.44 116.46 405.328 115.288Z" fill="#FCF1E7"/>
<path d="M419.077 35.1105L413.034 87.391C412.787 89.4255 412.109 91.3059 411.123 92.9705C409.55 95.529 407.207 97.471 404.432 98.5499C402.86 99.1664 401.134 99.5055 399.345 99.4747C398.852 99.4747 398.359 99.4439 397.866 99.3822L375.698 96.8237L371.321 96.3305L356.984 94.6659L355.135 94.4501L345.577 93.3404C340.428 92.7547 336.266 89.3638 334.447 84.8633C334.324 84.5858 334.232 84.2776 334.108 83.9693C333.707 82.7671 333.492 81.5341 333.461 80.2086C333.43 79.5304 333.461 78.8522 333.553 78.1433L339.596 25.8628C340.459 18.3721 347.242 12.9776 354.734 13.8407L407.022 19.8826C414.576 20.8382 419.94 27.6198 419.077 35.1105Z" fill="#FFF9F3"/>
<path d="M396.942 47.1636C396.942 47.1327 396.942 47.0711 396.911 47.0403C396.757 46.0847 396.541 45.1291 396.356 44.2043C397.528 36.7444 394.661 33.5386 392.163 31.9048C390.838 29.2846 389.389 27.4659 388.063 26.8494C385.596 25.7088 382.76 25.8013 380.818 26.0787C381.28 25.5239 382.267 25.2464 382.267 25.2464C381.034 25.154 378.413 26.6028 378.413 26.6028C360.84 21.4857 360.285 46.732 361.148 52.5272C361.98 58.3225 356.092 60.7269 347.613 66.0598C339.937 70.8994 335.774 76.109 333.555 80.2704C333.586 81.5651 333.832 82.829 334.202 84.0312C334.48 83.7846 334.757 83.5996 335.035 83.5071C335.004 83.5688 334.819 84.1237 334.541 84.9251C336.36 89.4257 340.522 92.7857 345.671 93.4022L355.228 94.5119L357.078 94.7277L371.414 96.3923C372.925 94.2653 374.559 92.0459 376.255 89.8572C380.386 84.5244 384.918 79.284 388.864 75.4616C390.159 74.1978 391.393 73.088 392.533 72.1941C392.564 72.1633 392.626 72.1324 392.657 72.1016C393.212 71.1152 393.643 69.9746 394.013 68.8032C395.216 64.8267 395.462 60.4186 395.462 59.9871C395.462 64.0869 395.092 66.9229 394.63 68.8957C394.445 69.6664 394.229 70.3137 394.044 70.8377C394.537 70.2829 395 69.6664 395.401 68.9882C398.329 63.8711 398.36 55.2707 396.942 47.1636Z" fill="#4A4743"/>
<path d="M389.853 73.6737C389.915 73.7045 384.088 75.924 380.049 74.3211C376.288 72.8106 374.315 67.4777 374.376 67.4777C376.072 67.3544 376.812 65.135 377.891 55.394L378.631 55.6407L390.871 59.5555C390.871 59.5555 390.131 63.4704 389.699 67.1695C389.329 70.2521 389.175 73.2422 389.853 73.6737Z" fill="#FFB27D"/>
<path d="M374.25 32.1515C374.25 32.1515 379.892 25.0308 388.216 30.6411C388.216 30.6411 383.622 30.2403 374.25 32.1515Z" fill="#BC3F3F"/>
<path d="M390.869 59.5248C390.869 59.5248 390.129 63.4397 389.697 67.1388C382.699 66.1215 379.739 59.309 378.629 55.5791L390.869 59.5248Z" fill="#EF9E67"/>
<path d="M392.811 61.744C392.811 61.744 376.193 63.4086 375.299 53.0511C374.405 42.6937 371.661 35.912 382.236 34.4015C392.811 32.8911 395.216 36.6826 396.356 40.0735C397.528 43.4643 397.127 61.035 392.811 61.744Z" fill="#FFB27D"/>
<path d="M389.819 33.5384C389.819 33.5384 386.274 46.0845 379.43 48.4889C372.585 50.8625 369.379 49.2595 369.379 49.2595C369.379 49.2595 374.373 44.5432 374.867 37.0217C374.898 36.9909 385.904 28.0206 389.819 33.5384Z" fill="#4A4743"/>
<path d="M388.77 34.6174C388.77 34.6174 392.408 37.0527 393.456 39.6112C394.504 42.1697 395.336 47.5951 396.909 47.256C396.909 47.256 399.653 38.6864 395.398 34.34C390.897 29.747 388.77 34.6174 388.77 34.6174Z" fill="#4A4743"/>
<path d="M404.065 72.8415C402.339 70.6837 398.824 69.5432 395.34 68.9575C395.094 68.9267 394.847 68.865 394.601 68.8342C394.385 68.8034 394.169 68.7725 393.953 68.7417C392.504 68.5567 391.086 68.4643 389.914 68.4026C389.729 68.156 389.637 68.0019 389.606 67.9402L375.547 66.7997H375.393C375.393 66.7997 375.393 66.7997 375.362 66.7997H375.332C374.283 66.6764 359.7 65.2276 356.895 70.3755C355.045 73.7355 355.014 80.1472 355.878 87.2988C355.6 89.7032 355.384 92.1693 355.199 94.4812L357.049 94.697L371.385 96.3616L375.763 96.8548L397.93 99.4134C398.423 99.475 398.917 99.5058 399.41 99.5058C401.198 99.5058 402.894 99.1976 404.497 98.5811C407.272 97.5022 409.615 95.5293 411.187 93.0016C408.998 84.2471 406.347 75.6775 404.065 72.8415Z" fill="#BC3F3F"/>
<path d="M415.101 249.534H344.222C334.048 249.534 325.816 241.304 325.816 231.131V160.232C325.816 150.06 334.048 141.829 344.222 141.829H415.101C425.275 141.829 433.507 150.06 433.507 160.232V231.1C433.538 241.273 425.275 249.534 415.101 249.534Z" fill="#FCF1E7"/>
<path d="M419.573 168.339V220.928C419.573 222.253 419.388 223.517 419.049 224.719C417.476 230.206 412.513 234.306 406.593 234.583C406.377 234.583 406.161 234.614 405.915 234.614H353.318C353.226 234.614 353.133 234.614 353.041 234.614C352.948 234.614 352.856 234.614 352.763 234.614C346.813 234.368 341.818 230.33 340.215 224.843C339.845 223.61 339.66 222.315 339.66 220.959V168.339C339.66 160.787 345.765 154.683 353.318 154.683H405.915C413.468 154.683 419.573 160.787 419.573 168.339Z" fill="#FFF9F3"/>
<path d="M371.753 192.691C371.753 192.691 371.445 202.031 370.242 206.224L360.777 212.82L396.448 218.153L387.939 206.409C387.939 206.409 385.38 193.862 386.706 189.239C388.062 184.615 371.753 192.691 371.753 192.691Z" fill="#FFB27D"/>
<path d="M371.691 193.986C371.691 193.986 374.497 200.767 379.831 200.613C385.133 200.459 386.367 194.448 386.367 194.448L371.691 193.986Z" fill="#ED985F"/>
<path d="M368.514 188.499C368.514 188.499 366.788 179.929 365.616 177.34C364.414 174.751 363.427 163.16 376.684 162.575C376.684 162.575 381.771 163.16 384.577 161.465C384.577 161.465 384.577 163.16 383.868 163.746C383.868 163.746 388.462 162.636 392.038 166.644C395.645 170.62 389.633 184.615 389.941 187.883L368.514 188.499Z" fill="#4A4743"/>
<path d="M379.214 198.024C375.361 197.963 368.27 192.846 368.27 186.496V176.601C368.27 174.289 369.873 172.377 371.877 172.377H386.552C388.525 172.377 390.159 174.289 390.159 176.601V185.941C390.159 192.568 383.623 198.086 379.214 198.024Z" fill="#FFB27D"/>
<path d="M368.271 181.841C368.271 181.841 368.302 175.891 373.019 174.967C377.736 174.042 388.28 177.864 389.791 173.518C391.302 169.171 369.381 169.264 368.302 172.007C367.192 174.813 368.271 181.841 368.271 181.841Z" fill="#4A4743"/>
<path d="M403.231 234.583H353.317C353.224 234.583 353.132 234.583 353.039 234.583C354.303 223.147 357.016 209.368 359.174 208.443C359.174 208.443 359.421 208.351 359.914 208.196C361.055 207.857 363.46 207.179 366.944 206.655H366.974C367.992 206.501 369.071 206.347 370.273 206.224C370.273 206.378 374.374 212.358 379.245 213.036C382.266 211.834 384.64 210.817 387.97 206.409C389.049 206.532 390.19 206.686 391.33 206.871C394.105 207.303 397.034 207.888 400.117 208.659C400.487 208.751 400.857 208.844 401.196 208.936C401.35 208.967 401.474 208.998 401.628 209.06C401.628 209.06 401.659 209.214 401.751 210.108C401.905 212.142 402.337 217.999 403.231 234.583Z" fill="#739AF0"/>
<path d="M359.576 208.289H359.546C359.361 208.32 359.114 208.412 358.775 208.505C358.744 208.505 358.744 208.505 358.713 208.536C358.682 208.536 358.682 208.536 358.682 208.536C358.651 208.536 358.652 208.536 358.652 208.536C356.031 209.46 349.433 212.79 340.215 224.781C341.818 230.268 346.813 234.337 352.763 234.553C352.855 234.553 352.948 234.553 353.04 234.553C353.133 234.553 353.225 234.553 353.318 234.553H358.282H366.575C366.729 226.106 366.822 218.77 366.883 213.714C366.914 211.495 366.945 209.707 366.945 208.505C366.945 207.272 366.976 206.625 366.976 206.625H366.945C364.324 206.964 361.118 207.827 359.576 208.289Z" fill="#2B478B"/>
<path d="M401.598 209.06C400.92 208.813 400.457 208.721 400.242 208.659C398.484 208.227 394.507 207.241 391.301 206.871C391.301 206.933 391.301 208.474 391.332 211.094C391.332 212.79 391.362 214.917 391.393 217.413C391.424 222.068 391.517 227.987 391.578 234.583H401.043H405.914C406.13 234.583 406.377 234.583 406.593 234.553C412.543 234.275 417.476 230.175 419.048 224.688C410.446 213.437 404.28 210.077 401.598 209.06Z" fill="#2B478B"/>
<path d="M388.527 181.378C388.065 180.823 387.325 180.515 386.462 180.515H382.145C381.313 180.515 380.758 180.762 380.45 181.224C380.296 181.44 380.234 181.687 380.203 181.933C379.463 181.748 378.785 181.841 378.292 181.964C378.261 181.687 378.199 181.44 378.045 181.224C377.737 180.762 377.151 180.515 376.349 180.515H372.033C371.17 180.515 370.43 180.823 369.967 181.378C369.567 181.871 369.412 182.55 369.567 183.289C370.06 185.725 372.865 186.033 374.284 186.033C374.715 186.033 375.024 186.002 375.085 186.002C376.411 186.002 377.336 185.262 378.014 183.629C378.138 183.351 378.322 182.827 378.353 182.303C378.816 182.18 379.525 182.056 380.265 182.272C380.296 182.827 380.481 183.351 380.604 183.629C381.282 185.232 382.207 186.002 383.533 186.002C383.595 186.002 383.903 186.033 384.334 186.033C385.753 186.033 388.558 185.725 389.052 183.289C389.082 182.519 388.928 181.871 388.527 181.378ZM377.983 182.396C377.922 182.889 377.768 183.32 377.675 183.536C377.058 185.016 376.195 185.725 375.024 185.725H374.993C374.993 185.725 373.821 185.848 372.588 185.601C370.985 185.262 370.029 184.461 369.782 183.228C369.659 182.58 369.782 181.995 370.122 181.563C370.522 181.07 371.201 180.793 371.971 180.793H376.288C376.997 180.793 377.49 180.978 377.768 181.378C377.891 181.563 377.953 181.81 377.983 182.056C377.768 182.118 377.613 182.18 377.613 182.211C377.521 182.241 377.49 182.365 377.521 182.426C377.552 182.488 377.613 182.519 377.675 182.519C377.706 182.519 377.737 182.519 377.737 182.519C377.737 182.488 377.829 182.426 377.983 182.396ZM388.651 183.228C388.404 184.492 387.448 185.293 385.845 185.601C384.612 185.848 383.471 185.725 383.44 185.725H383.41C382.207 185.725 381.375 185.016 380.758 183.536C380.666 183.351 380.511 182.858 380.45 182.365C380.542 182.396 380.604 182.426 380.696 182.488C380.789 182.519 380.881 182.488 380.912 182.426C380.943 182.334 380.912 182.241 380.851 182.211C380.727 182.149 380.573 182.087 380.45 182.026C380.481 181.81 380.542 181.563 380.666 181.378C380.912 181.008 381.406 180.793 382.145 180.793H386.462C387.233 180.793 387.911 181.07 388.312 181.563C388.651 181.995 388.774 182.55 388.651 183.228Z" fill="#B64C41"/>
<path d="M242.575 262.482H160.381C148.573 262.482 139.016 252.926 139.016 241.119V158.938C139.016 147.132 148.573 137.576 160.381 137.576H242.575C254.383 137.576 263.94 147.132 263.94 158.938V241.119C263.94 252.926 254.383 262.482 242.575 262.482Z" fill="#FCF1E7"/>
<path d="M247.754 168.309V229.313C247.754 235.972 243.654 241.644 237.858 244.017C237.519 244.141 237.18 244.295 236.81 244.387C235.268 244.88 233.603 245.158 231.908 245.158H170.925C162.169 245.158 155.078 238.068 155.078 229.313V168.309C155.078 159.555 162.169 152.465 170.925 152.465H231.938C240.663 152.465 247.754 159.555 247.754 168.309Z" fill="#FFF9F3"/>
<path d="M201.939 168.648C200.243 168.247 198.24 168.155 195.927 168.463C195.927 168.463 191.796 168.864 187.911 171.484C184.828 173.58 180.358 178.081 185.352 190.442L187.726 194.696C186.925 203.944 183.163 203.944 183.163 203.944C183.163 203.944 184.828 204.745 185.63 204.745C185.63 204.745 186.801 204.314 187.017 203.666C187.017 203.666 186.801 204.684 186.493 204.992C186.493 204.992 192.937 205.608 196.143 203.173C197.9 201.848 199.812 198.765 201.045 195.59L205.916 195.929C205.978 198.025 205.207 200.399 202.895 202.926C202.895 202.926 208.907 203.512 210.911 201.848C210.911 201.848 210.51 202.649 210.14 203.019C210.14 203.019 216.861 203.266 219.605 201.169C222.318 199.104 220.561 164.795 201.939 168.648Z" fill="#4A4743"/>
<path d="M225.187 245.158H177.708C177.122 241.459 176.783 238.037 176.999 234.739C177.276 230.608 179.095 226.878 181.254 223.826C184.768 218.894 189.146 215.811 189.146 215.811C189.146 215.811 189.27 215.781 189.455 215.75C189.794 215.688 190.379 215.596 190.996 215.534C191.582 215.226 191.828 213.068 191.89 210.54C191.921 209.831 191.921 209.122 191.921 208.382C191.921 207.766 191.921 207.119 191.89 206.502C191.89 206.225 191.89 205.916 191.859 205.639C191.859 205.546 191.859 205.485 191.859 205.392C191.859 205.269 191.859 205.146 191.859 205.022C191.859 204.93 191.859 204.837 191.859 204.745C191.859 204.591 191.859 204.468 191.859 204.313C191.859 204.128 191.859 203.944 191.828 203.759C191.828 203.728 191.828 203.697 191.828 203.635C191.828 203.45 191.828 203.296 191.798 203.142C191.798 202.957 191.767 202.741 191.767 202.556V202.402C191.767 202.094 191.736 201.847 191.736 201.601C191.736 201.539 191.736 201.477 191.736 201.416C191.736 201.354 191.736 201.262 191.736 201.2C191.736 201.138 191.736 201.077 191.736 201.015C191.736 200.799 191.705 200.645 191.705 200.491C191.705 200.46 191.705 200.429 191.705 200.399C191.705 200.368 191.705 200.337 191.705 200.306C191.705 200.183 191.705 200.09 191.705 200.09L199.721 198.518L205.209 197.439L205.856 197.316L206.01 197.285C206.01 199.35 206.103 201.262 206.319 202.988C206.473 204.468 206.72 205.793 206.997 207.026C207.984 211.465 209.556 214.116 210.666 214.548C210.697 214.578 210.727 214.578 210.789 214.578C216.184 215.781 224.478 229.961 225.187 245.158Z" fill="#FFB27D"/>
<path d="M191.613 200.183C191.613 200.183 191.922 204.437 191.922 208.444C199.475 208.228 203.483 201.323 205.117 197.501L191.613 200.183Z" fill="#CB7D45" fill-opacity="0.35"/>
<path d="M189.085 203.974C189.085 203.974 206.967 204.283 206.997 193.124C206.997 181.996 209.34 174.505 197.902 173.858C186.495 173.21 184.245 177.433 183.35 181.163C182.456 184.863 184.429 203.605 189.085 203.974Z" fill="#FFB27D"/>
<path d="M189.766 173.58C189.766 173.58 194.668 186.651 202.19 188.593C209.713 190.535 212.981 188.5 212.981 188.5C212.981 188.5 207.216 183.907 206.013 175.923C205.982 175.923 193.465 167.354 189.766 173.58Z" fill="#4A4743"/>
<path d="M190.967 174.629C190.967 174.629 187.298 177.557 186.404 180.393C185.51 183.229 185.109 189.086 183.414 188.87C183.414 188.87 179.714 179.992 183.876 174.968C188.285 169.635 190.967 174.629 190.967 174.629Z" fill="#4A4743"/>
<path d="M190.289 175.091C190.289 175.091 193.773 188.777 203.269 193.155C203.269 193.155 193.773 184.739 192.971 175.707C192.17 166.675 190.289 175.091 190.289 175.091Z" fill="#4A4743"/>
<path d="M235.546 238.407C235.238 237.667 234.93 236.958 234.652 236.249C234.498 235.91 234.344 235.54 234.221 235.201C234.221 235.17 234.221 235.17 234.221 235.17C230.089 225.367 226.821 217.938 226.482 217.414C225.557 215.842 212.948 214.301 211.129 214.332C209.803 214.332 209.063 209.893 208.755 207.458C208.662 206.779 207.922 206.44 207.367 206.81C207.244 206.903 207.09 206.995 206.967 207.088C206.812 207.18 206.627 207.303 206.473 207.396C206.319 207.488 206.134 207.612 205.98 207.704C205.857 207.766 205.764 207.828 205.641 207.889C205.518 207.951 205.394 208.012 205.271 208.105C205.148 208.167 205.055 208.228 204.932 208.29C204.808 208.352 204.716 208.413 204.593 208.475C204.469 208.537 204.377 208.598 204.253 208.629C204.161 208.66 204.068 208.721 203.976 208.752C203.822 208.814 203.637 208.906 203.483 208.968C203.359 209.03 203.236 209.061 203.113 209.122C203.02 209.153 202.959 209.184 202.866 209.215C202.404 209.4 201.941 209.554 201.479 209.708C197.625 210.972 194.049 211.095 191.983 210.602C191.921 210.602 191.89 210.571 191.829 210.571C190.781 210.294 189.825 211.249 190.041 212.297C190.318 213.561 190.38 214.948 189.671 215.626C186.464 216.335 178.695 218.339 177.215 221.083C176.167 223.055 176.074 234.769 175.52 245.158H176.753H191.705H231.97C233.697 245.158 235.331 244.88 236.872 244.387C237.211 244.264 237.581 244.14 237.92 244.017C237.088 242.106 236.286 240.225 235.546 238.407Z" fill="#F99746"/>
<path d="M218.405 245.158H210.82C212.732 241.983 214.551 239.671 215.63 239.548C216.555 239.455 217.511 241.829 218.405 245.158Z" fill="#ED7D2B"/>
<path d="M211.096 214.301C211.096 214.301 201.662 220.281 194.54 218.863C194.54 218.863 192.813 217.784 195.187 216.705C197.407 215.688 202.556 212.667 201.446 209.708C203.419 209.061 205.423 208.136 207.334 206.81C207.889 206.44 208.66 206.779 208.722 207.458C208.999 209.862 209.739 214.301 211.096 214.301Z" fill="#ED7D2B"/>
<path d="M224.724 411H149.159C138.306 411 129.52 402.215 129.52 391.364V315.779C129.52 304.928 138.306 296.143 149.159 296.143H224.755C235.607 296.143 244.394 304.928 244.394 315.779V391.364C244.394 402.215 235.576 411 224.724 411Z" fill="#FCF1E7"/>
<path d="M229.504 324.41V380.482C229.504 384.335 228.024 387.819 225.589 390.408C222.937 393.275 219.145 395.063 214.921 395.063H158.841C154.524 395.063 150.64 393.182 147.957 390.192C145.645 387.603 144.258 384.212 144.258 380.482V324.41C144.258 316.365 150.794 309.83 158.841 309.83H214.921C222.968 309.86 229.504 316.365 229.504 324.41Z" fill="#FFF9F3"/>
<path d="M175.89 352.061C175.89 352.061 167.75 337.296 175.211 330.792C182.672 324.256 195.837 328.171 198.242 330.792C200.646 333.412 203.884 340.902 197.193 351.537L175.89 352.061Z" fill="#4A4743"/>
<path d="M179.28 358.134C179.28 358.134 178.972 367.258 177.831 371.327L168.582 377.77L203.359 382.979L195.065 371.512C195.065 371.512 192.568 359.274 193.863 354.774C195.158 350.273 179.28 358.134 179.28 358.134Z" fill="#FFB27D"/>
<path d="M179.219 359.397C179.219 359.397 181.963 366.025 187.142 365.871C192.322 365.717 193.493 359.86 193.493 359.86L179.219 359.397Z" fill="#99592E" fill-opacity="0.25"/>
<path d="M186.554 363.313C182.793 363.251 175.887 358.257 175.887 352.061V342.413C175.887 340.163 177.459 338.313 179.401 338.313H193.707C195.618 338.313 197.221 340.163 197.221 342.413V351.506C197.221 358.011 190.87 363.405 186.554 363.313Z" fill="#FFB27D"/>
<path d="M225.588 390.439C222.937 393.306 219.145 395.094 214.921 395.094H158.84C154.524 395.094 150.639 393.214 147.957 390.224C159.981 374.256 167.596 373.239 167.812 373.208C169.23 372.776 172.683 371.759 177.863 371.235C177.863 371.358 181.901 377.277 186.649 377.924C189.609 376.753 191.798 375.612 195.035 371.327C198.704 371.759 202.743 372.591 206.966 373.67V373.639C206.936 373.639 214.058 375.427 225.588 390.439Z" fill="#74ACBE"/>
<path d="M175.89 346.328C175.89 346.328 178.48 338.375 187.02 339.608C195.56 340.841 196.3 342.659 197.194 344.786C198.088 346.913 199.845 337.049 199.845 337.049L189.763 334.059C189.763 334.059 177.585 335.446 176.691 337.481C175.828 339.515 175.828 339.515 175.828 339.515L175.89 346.328Z" fill="#4A4743"/>
<path d="M185.85 330.946C185.85 330.946 176.816 322.746 180.701 320.989C184.585 319.263 185.85 330.946 185.85 330.946Z" fill="#4A4743"/>
<path d="M185.477 331.161C185.477 331.161 174.07 326.877 177.029 323.825C179.989 320.773 185.477 331.161 185.477 331.161Z" fill="#4A4743"/>
<path d="M186.25 331.408C186.25 331.408 184.369 320.835 188.902 320.927C193.403 320.989 186.25 331.408 186.25 331.408Z" fill="#4A4743"/>
<path d="M186.867 330.699C186.867 330.699 191.738 319.324 196.301 320.403C200.864 321.482 186.867 330.699 186.867 330.699Z" fill="#4A4743"/>
<path d="M186.621 331.408C186.621 331.408 194.39 321.79 198.491 324.04C202.591 326.291 186.621 331.408 186.621 331.408Z" fill="#4A4743"/>
</g>
<defs>
<clipPath id="clip0_618_2303">
<rect width="434" height="411" fill="white"/>
</clipPath>
</defs>
</svg>
