<svg width="595" height="344" viewBox="0 0 595 344" fill="none" xmlns="http://www.w3.org/2000/svg">
<path d="M450.126 287.106H32.961C16.1302 287.106 2.5 273.465 2.5 256.662V35.6989C2.5 18.8547 16.1321 5.21582 32.961 5.21582H450.126C466.955 5.21582 480.587 18.8547 480.587 35.6989V256.662C480.587 273.465 466.957 287.106 450.126 287.106Z" fill="#FFF9F3" stroke="#72685B" stroke-width="5"/>
<path d="M69.2105 87.1416H25.6211C21.2028 87.1416 17.6211 90.7233 17.6211 95.1416V138.771C17.6211 143.189 21.2028 146.771 25.6211 146.771H69.2105C73.6288 146.771 77.2105 143.189 77.2105 138.771V95.1416C77.2105 90.7233 73.6288 87.1416 69.2105 87.1416Z" fill="#F6C283"/>
<path d="M69.2105 22.9463H25.6211C21.2028 22.9463 17.6211 26.528 17.6211 30.9463V74.5757C17.6211 78.994 21.2028 82.5757 25.6211 82.5757H69.2105C73.6288 82.5757 77.2105 78.994 77.2105 74.5757V30.9463C77.2105 26.528 73.6288 22.9463 69.2105 22.9463Z" fill="#EBDCC6"/>
<path d="M133.324 22.9463H89.7344C85.3161 22.9463 81.7344 26.528 81.7344 30.9463V74.5757C81.7344 78.994 85.3161 82.5757 89.7344 82.5757H133.324C137.742 82.5757 141.324 78.994 141.324 74.5757V30.9463C141.324 26.528 137.742 22.9463 133.324 22.9463Z" fill="#EBDCC6"/>
<path d="M234.134 86.8662H190.545C186.127 86.8662 182.545 90.4479 182.545 94.8662V138.496C182.545 142.914 186.127 146.496 190.545 146.496H234.134C238.553 146.496 242.134 142.914 242.134 138.496V94.8662C242.134 90.4479 238.553 86.8662 234.134 86.8662Z" fill="#EBDCC6"/>
<path d="M298.287 86.8662H254.697C250.279 86.8662 246.697 90.4479 246.697 94.8662V138.496C246.697 142.914 250.279 146.496 254.697 146.496H298.287C302.705 146.496 306.287 142.914 306.287 138.496V94.8662C306.287 90.4479 302.705 86.8662 298.287 86.8662Z" fill="#F6C283"/>
<path d="M133.324 151.061H89.7344C85.3161 151.061 81.7344 154.643 81.7344 159.061V202.69C81.7344 207.109 85.3161 210.69 89.7344 210.69H133.324C137.742 210.69 141.324 207.109 141.324 202.69V159.061C141.324 154.643 137.742 151.061 133.324 151.061Z" fill="#EBDCC6"/>
<path d="M141.324 215.217H81.7344V274.846H141.324V215.217Z" fill="#FFDF69"/>
<path d="M234.134 215.217H190.545C186.127 215.217 182.545 218.799 182.545 223.217V266.846C182.545 271.264 186.127 274.846 190.545 274.846H234.134C238.553 274.846 242.134 271.264 242.134 266.846V223.217C242.134 218.799 238.553 215.217 234.134 215.217Z" fill="#EBDCC6"/>
<path d="M71.2105 151.179H23.6211C20.3074 151.179 17.6211 153.865 17.6211 157.179V204.809C17.6211 208.122 20.3074 210.809 23.6211 210.809H71.2105C74.5242 210.809 77.2105 208.122 77.2105 204.809V157.179C77.2105 153.865 74.5242 151.179 71.2105 151.179Z" fill="#EBDCC6"/>
<path d="M300.277 215.217C303.595 215.217 306.265 217.903 306.128 221.217C305.742 230.621 304.406 249.489 299.796 266.227L286.03 274.846H246.078C241.887 274.846 238.956 270.645 240.087 266.61C244.801 249.776 246.153 230.675 246.541 221.202C246.676 217.894 249.379 215.217 252.69 215.217H300.277Z" fill="#F6C283"/>
<path d="M285.99 274.886V266.03H299.796L285.99 274.886Z" fill="#DE9035"/>
<path d="M236.165 151.061C239.482 151.061 242.152 153.747 242.015 157.061C241.629 166.465 240.293 185.334 235.683 202.071L221.917 210.69H181.926C177.735 210.69 174.804 206.489 175.934 202.454C180.649 185.621 182.001 166.519 182.389 157.046C182.524 153.738 185.226 151.061 188.538 151.061H236.165Z" fill="#82B0C0"/>
<path d="M221.877 210.69V201.874H235.643L221.877 210.69Z" fill="#5A8898"/>
<path d="M298.287 22.9858H254.697C250.279 22.9858 246.697 26.5676 246.697 30.9858V74.6152C246.697 79.0335 250.279 82.6152 254.697 82.6152H298.287C302.705 82.6152 306.287 79.0335 306.287 74.6152V30.9858C306.287 26.5676 302.705 22.9858 298.287 22.9858Z" fill="#EBDCC6"/>
<path d="M236.165 22.9858C239.482 22.9858 242.152 25.6717 242.015 28.986C241.629 38.3901 240.293 57.2583 235.683 73.9955L221.917 82.6152H181.926C177.735 82.6152 174.804 78.4142 175.934 74.3786C180.649 57.5455 182.001 38.444 182.389 28.9711C182.524 25.6628 185.226 22.9858 188.538 22.9858H236.165Z" fill="#F6C283"/>
<path d="M221.877 82.6153V73.7988H235.643L221.877 82.6153Z" fill="#DE9035"/>
<path d="M71.2015 215.217C74.5186 215.217 77.1888 217.903 77.0525 221.217C76.6658 230.621 75.3304 249.489 70.7202 266.227L56.9537 274.846H16.9629C12.772 274.846 9.84125 270.645 10.9715 266.61C15.6861 249.776 17.038 230.675 17.4256 221.202C17.561 217.894 20.2636 215.217 23.5747 215.217H71.2015Z" fill="#EBDCC6"/>
<path d="M56.9141 274.886V266.03H70.6806L56.9141 274.886Z" fill="#BDB19F"/>
<path d="M395.359 87.1416H351.77C347.351 87.1416 343.77 90.7233 343.77 95.1416V138.771C343.77 143.189 347.351 146.771 351.77 146.771H395.359C399.777 146.771 403.359 143.189 403.359 138.771V95.1416C403.359 90.7233 399.777 87.1416 395.359 87.1416Z" fill="#F6C283"/>
<path d="M395.359 22.9463H351.77C347.351 22.9463 343.77 26.528 343.77 30.9463V74.5757C343.77 78.994 347.351 82.5757 351.77 82.5757H395.359C399.777 82.5757 403.359 78.994 403.359 74.5757V30.9463C403.359 26.528 399.777 22.9463 395.359 22.9463Z" fill="#EBDCC6"/>
<path d="M459.472 22.9463H415.883C411.465 22.9463 407.883 26.528 407.883 30.9463V74.5757C407.883 78.994 411.465 82.5757 415.883 82.5757H459.472C463.89 82.5757 467.472 78.994 467.472 74.5757V30.9463C467.472 26.528 463.89 22.9463 459.472 22.9463Z" fill="#EBDCC6"/>
<path d="M459.472 151.061H415.883C411.465 151.061 407.883 154.643 407.883 159.061V202.69C407.883 207.109 411.465 210.69 415.883 210.69H459.472C463.89 210.69 467.472 207.109 467.472 202.69V159.061C467.472 154.643 463.89 151.061 459.472 151.061Z" fill="#EBDCC6"/>
<path d="M461.472 215.217H413.883C410.569 215.217 407.883 217.903 407.883 221.217V268.846C407.883 272.16 410.569 274.846 413.883 274.846H461.472C464.786 274.846 467.472 272.16 467.472 268.846V221.217C467.472 217.903 464.786 215.217 461.472 215.217Z" fill="#F6C283"/>
<path d="M395.359 151.179H351.77C347.351 151.179 343.77 154.761 343.77 159.179V202.809C343.77 207.227 347.351 210.809 351.77 210.809H395.359C399.777 210.809 403.359 207.227 403.359 202.809V159.179C403.359 154.761 399.777 151.179 395.359 151.179Z" fill="#EBDCC6"/>
<path d="M403.358 215.217C403.358 215.217 403.319 242.808 396.868 266.227L383.102 274.846H334.486C343.73 250.247 343.769 215.217 343.769 215.217H403.358Z" fill="#E4D9C8"/>
<path d="M383.062 274.886V266.03H396.868L383.062 274.886Z" fill="#BDB19F"/>
<path d="M300.277 151.061C303.595 151.061 306.265 153.747 306.128 157.061C305.742 166.465 304.406 185.334 299.796 202.071L286.03 210.69H246.078C241.887 210.69 238.956 206.489 240.087 202.454C244.801 185.621 246.153 166.519 246.541 157.046C246.676 153.738 249.379 151.061 252.69 151.061H300.277Z" fill="#EBDCC6"/>
<path d="M285.99 210.69V201.874H299.796L285.99 210.69Z" fill="#BDB19F"/>
<path d="M393.172 191.169C393.172 191.169 391.323 190.421 391.166 189.24C391.048 188.256 390.222 186.996 389.986 186.642C389.632 186.131 389.121 184.202 388.531 184.596C387.941 185.029 389.239 187.823 389.396 188.492C389.553 189.122 387.036 187.744 386.407 187.902C385.777 188.02 384.047 192.467 385.895 193.215C387.744 193.963 390.104 193.491 390.379 193.688C390.694 193.884 391.677 194.278 391.677 194.278L393.172 191.169Z" fill="#EEA886"/>
<path d="M441.393 309.876C441.393 309.876 442.691 312.277 443.517 313.222C444.343 314.166 447.569 315.859 447.608 318.692C447.608 321.762 442.18 320.897 440.017 320.778C437.893 320.66 437.735 319.047 436.831 317.315C435.926 315.583 435.021 315.898 434.864 314.481C434.707 313.103 435.729 309.915 435.729 309.915H441.393V309.876Z" fill="#202338"/>
<path d="M408.865 309.6C408.865 309.6 406.23 312.513 403.555 313.143C400.88 313.773 399.032 314.52 398.992 316.213C398.953 317.866 406.662 318.968 409.73 317.315C414.293 314.796 414.765 315.544 415.276 314.284C415.788 313.025 414.686 309.679 414.686 309.246C414.765 308.735 408.865 309.6 408.865 309.6Z" fill="#2B2925"/>
<path d="M409.181 308.183C409.181 308.183 408.827 309.561 408.866 309.561C408.906 309.6 414.884 310.309 414.688 309.207C414.53 308.302 414.334 307.357 414.334 307.357L409.181 308.183Z" fill="#81807E"/>
<path d="M435.809 308.932C435.809 308.932 435.573 310.23 435.612 310.27C435.651 310.309 441.669 311.372 441.63 310.27C441.591 309.404 441.079 308.42 441.079 308.42L435.809 308.932Z" fill="#81807E"/>
<path d="M414.608 226.513C414.608 226.513 412.444 247.413 411.304 254.576C409.966 262.96 409.534 269.848 409.18 274.177C408.708 279.609 408.629 306.412 408.314 307.987C408 309.561 415.512 308.42 415.512 308.42C415.512 308.42 419.21 273.429 420.586 267.604C421.884 262.212 426.643 238.951 427.823 240.446C429.003 241.903 430.459 267.565 431.324 271.855C432.189 276.106 434.825 309.443 434.825 309.443C434.825 309.443 440.803 310.624 442.377 309.286C442.377 309.286 443.085 280.553 442.534 272.563C442.337 269.533 446.113 236.077 441.236 222.616C438.64 215.492 414.608 226.513 414.608 226.513Z" fill="#2B2925"/>
<path d="M454.768 203.606C456.026 207.069 444.463 215.689 445.918 215.965C447.373 216.24 447.295 218.956 447.295 218.956C447.295 218.956 458.19 209.47 457.954 206.676C457.836 205.141 449.301 182.548 448.003 181.604C447.098 180.974 441.552 178.731 438.641 177.629C437.304 177.117 436.281 176.763 436.085 176.763C435.416 176.723 427.274 177.51 427.274 177.51C427.274 177.51 426.094 177.904 424.914 178.455C422.869 179.4 419.683 180.856 417.402 181.958C416.654 182.312 415.75 182.785 414.963 183.178C415.042 185.973 415.238 188.925 415.474 192.113C415.474 192.113 415.907 199.079 415.946 206.085C416.3 207.66 416.261 211.36 416.261 211.36C416.379 214.862 415.986 218.444 415.868 220.452C415.71 223.6 415.278 228.127 415.278 228.127L419.25 229.74L436.635 229.583L442.063 228.127C442.063 228.127 441.749 214.154 441.827 210.061C441.906 206.125 442.732 195.97 442.889 195.38C442.85 195.38 448.671 186.878 454.768 203.606Z" fill="#F6F6F6"/>
<path d="M415.75 226.631C415.75 226.631 427.707 227.654 438.13 226.631V230.055C438.13 230.055 422.554 231.551 415.199 229.386L415.75 226.631Z" fill="#2B2925"/>
<path d="M414.766 183.1C414.845 185.933 415.002 188.964 415.238 192.192C415.238 192.192 415.474 200.103 415.907 207.62C416.064 208.683 416.143 209.785 416.064 210.927C415.946 212.383 415.789 213.997 415.592 215.65C415.592 215.689 415.592 215.689 415.592 215.728C415.553 216.122 415.514 216.516 415.435 216.909C414.412 225.253 412.682 234.857 411.817 237.77C411.62 238.36 412.289 238.95 412.761 239.383L416.025 241.43C416.025 241.43 417.362 229.032 417.834 224.82C418.267 220.766 419.604 215.296 420.234 209.982C420.981 203.252 422.043 196.639 422.594 192.743C424.049 182.549 425.976 177.983 425.976 177.983C425.032 178.258 414.766 183.1 414.766 183.1Z" fill="#494743"/>
<path d="M453.666 202.7C455.082 205.81 444.698 215.295 444.816 215.61C445.524 217.46 448.238 220.884 448.238 220.884C448.238 220.884 464.325 203.606 464.129 201.441C463.971 199.906 450.48 182.667 449.182 181.722C448.435 181.171 442.85 179.203 440.136 178.14C439.624 177.943 438.012 177.314 437.54 177.156C436.95 177.786 432.898 182.194 431.482 198.883C431.246 201.677 431.994 207.66 432.505 212.501C433.056 217.696 433.646 221.75 434.078 226.08C434.944 234.621 435.534 241.43 435.534 241.43L444.03 237.651C445.406 236.982 447.766 235.172 447.255 233.716C445.288 228.205 442.338 217.775 442.338 212.934C442.338 212.934 444.58 196.797 445.328 194.199C445.288 194.238 452.054 199.237 453.666 202.7Z" fill="#494743"/>
<path d="M435.338 177.629C435.338 177.629 435.377 174.834 436.478 169.167C436.754 167.631 427.668 173.142 427.668 173.142C427.668 173.142 427.707 173.693 427.707 174.401C427.707 174.795 427.707 175.228 427.707 175.661C427.707 175.818 427.707 175.976 427.707 176.133C427.707 176.527 427.668 176.92 427.628 177.235C427.589 177.589 427.392 178.18 427.314 178.337C426.96 179.164 432.27 179.794 435.338 177.629Z" fill="#EEA987"/>
<path d="M429.633 180.542L428.139 182.549C428.139 182.549 429.004 183.73 430.577 182.864L429.633 180.542Z" fill="#FF9123"/>
<path d="M429.633 180.542L428.139 182.549C428.139 182.549 429.004 183.73 430.577 182.864L429.633 180.542Z" fill="url(#paint0_linear_571_246)" fill-opacity="0.5"/>
<path d="M428.532 182.667C428.532 182.667 422.828 204.708 424.008 221.829L425.936 225.214L427.745 221.672C427.745 221.672 428.256 191.011 429.79 182.588L428.532 182.667Z" fill="#FF9123"/>
<path d="M428.532 182.667C428.532 182.667 422.828 204.708 424.008 221.829L425.936 225.214L427.745 221.672C427.745 221.672 428.256 191.011 429.79 182.588L428.532 182.667Z" fill="url(#paint1_linear_571_246)" fill-opacity="0.5"/>
<path d="M428.021 178.652L429.634 180.541C429.634 180.541 432.23 180.03 432.977 178.692C433.764 177.353 428.021 178.652 428.021 178.652Z" fill="#EEA987"/>
<path d="M427.667 176.999C427.667 176.999 427.864 178.455 429.634 180.541L427.667 183.178L426.605 177.707L427.667 176.999Z" fill="#EBEBEB"/>
<path d="M435.495 175.622C435.495 175.622 432.27 179.518 429.674 180.541L430.893 183.572L436.99 176.999L435.495 175.622Z" fill="#EBEBEB"/>
<path d="M388.373 194.317C388.373 194.317 402.179 209.352 405.444 208.526C406.938 208.171 409.219 205.534 411.107 203.094C411.737 202.307 412.327 201.441 412.917 200.614C415.237 197.269 417.047 194.081 417.047 194.081C417.047 194.081 423.891 186.051 418.384 182.47C418.384 182.47 416.063 182.234 414.765 183.217C413.546 184.123 410.596 189.751 410.124 190.814C409.652 191.877 405.916 199.237 405.562 199.473C405.208 199.709 401.55 197.505 399.583 196.167C396.397 194.041 392.424 190.302 392.424 190.302L388.373 194.317Z" fill="#494743"/>
<path d="M430.146 226.789H424.561V231.039H430.146V226.789Z" fill="#DBD8E3" fill-opacity="0.5"/>
<path d="M427.707 175.621C427.707 175.779 427.707 175.936 427.707 176.093C432.899 174.362 433.922 171.725 433.922 171.725C432.309 172.866 427.707 174.401 427.707 174.401C427.707 174.755 427.707 175.188 427.707 175.621Z" fill="#A77860"/>
<path d="M446.665 215.571C446.665 215.571 446.153 215.965 445.642 215.965C444.737 215.965 443.715 214.981 442.771 215.886C441.827 216.791 443.793 220.57 444.541 221.003C445.249 221.435 446.861 220.648 448.631 218.562C450.362 216.476 446.665 215.571 446.665 215.571Z" fill="#EEA886"/>
<path d="M443.165 215.65C443.165 215.65 441.356 216.28 439.389 217.224C437.698 218.051 435.692 219.31 435.888 219.743C436.203 220.412 437.737 219.153 439.468 218.444C441.08 217.775 440.884 218.208 440.884 218.208C440.884 218.208 440.923 218.09 439.31 219.153C437.58 220.294 435.77 221.593 435.928 221.947C436.124 222.38 436.203 222.42 436.872 222.105C436.518 222.38 436.518 222.498 436.636 222.656C437.147 223.482 439.94 222.223 441.041 221.711C440.176 222.105 439.586 222.498 440.254 222.813C441.002 223.168 444.856 221.2 446.312 220.649C447.924 220.058 443.165 215.65 443.165 215.65Z" fill="#EEA886"/>
<path d="M444.777 215.65C444.777 215.65 445.171 217.972 448.199 220.924C448.199 220.924 455.122 213.288 456.341 211.871L450.953 208.723L444.777 215.65Z" fill="#494743"/>
<path d="M425.463 158.618C425.463 158.618 422.671 161.767 423.497 162.554C424.165 163.223 421.609 166.333 421.255 166.844C420.901 167.356 422.474 168.182 422.71 168.655C422.985 169.127 422.946 173.929 424.283 174.401C425.621 174.874 432.347 174.204 434.431 172.827C436.516 171.489 439.82 163.892 439.466 160.271C439.151 156.69 430.38 153.147 425.463 158.618Z" fill="#EEA886"/>
<path d="M424.874 159.327C424.874 159.327 423.812 154.958 428.1 152.95C432.387 150.904 437.815 157.595 438.523 157.949C439.231 158.303 443.4 159.642 439.467 166.569C436.084 172.551 435.77 172.748 435.77 172.748C435.77 172.748 435.298 168.694 434.629 167.946C433.606 166.766 430.892 166.333 430.892 166.333C430.892 166.333 432.977 163.263 431.089 162.318C429.28 161.373 427.077 159.051 424.874 159.327Z" fill="#494743"/>
<path d="M433.528 164.916C433.803 164.483 434.865 162.633 436.281 164.207C437.697 165.782 434.039 168.891 433.724 168.852C433.449 168.852 431.128 168.458 433.528 164.916Z" fill="#EEA886"/>
<path d="M380.31 206.754C380.31 206.754 379.484 210.021 379.366 210.533C379.248 211.045 374.096 209.667 374.096 209.667V205.652C374.135 205.652 379.72 206.203 380.31 206.754Z" fill="#2B2925"/>
<path d="M379.484 210.1C379.484 210.1 380.94 212.304 382.434 213.328C383.929 214.39 389.75 215.729 390.616 216.752C391.245 217.5 392.071 220.255 382.749 218.995C376.102 218.09 372.837 218.326 372.247 217.185C371.657 216.043 374.135 209.313 374.135 209.313C374.135 209.313 375.551 210.061 379.484 210.1Z" fill="#2D314F"/>
<path d="M378.321 333.808L400.066 110.123L397.718 109.894L375.972 333.58L378.321 333.808Z" fill="#867C6F"/>
<path d="M340.322 330.094L362.066 106.409L359.718 106.18L337.973 329.866L340.322 330.094Z" fill="#867C6F"/>
<path d="M398.325 115.535L398.553 113.185L360.54 109.496L360.312 111.846L398.325 115.535Z" fill="#867C6F"/>
<path d="M396.626 133.214L396.854 130.863L358.841 127.171L358.613 129.521L396.626 133.214Z" fill="#867C6F"/>
<path d="M394.925 150.921L395.152 148.571L357.14 144.882L356.912 147.232L394.925 150.921Z" fill="#867C6F"/>
<path d="M393.186 168.591L393.414 166.24L355.401 162.551L355.173 164.902L393.186 168.591Z" fill="#867C6F"/>
<path d="M391.481 186.309L391.709 183.958L353.696 180.266L353.468 182.616L391.481 186.309Z" fill="#867C6F"/>
<path d="M389.784 203.976L390.012 201.626L351.999 197.937L351.771 200.288L389.784 203.976Z" fill="#867C6F"/>
<path d="M388.043 221.652L388.271 219.301L350.259 215.608L350.031 217.959L388.043 221.652Z" fill="#867C6F"/>
<path d="M386.342 239.363L386.57 237.013L348.558 233.32L348.33 235.671L386.342 239.363Z" fill="#867C6F"/>
<path d="M384.604 257.033L384.832 254.683L346.819 250.99L346.591 253.341L384.604 257.033Z" fill="#867C6F"/>
<path d="M382.901 274.745L383.129 272.395L345.116 268.703L344.888 271.053L382.901 274.745Z" fill="#867C6F"/>
<path d="M381.202 292.419L381.43 290.068L343.417 286.376L343.189 288.726L381.202 292.419Z" fill="#867C6F"/>
<path d="M379.468 310.082L379.695 307.732L341.683 304.043L341.455 306.394L379.468 310.082Z" fill="#867C6F"/>
<path d="M377.76 327.801L377.988 325.451L339.976 321.758L339.748 324.108L377.76 327.801Z" fill="#867C6F"/>
<path d="M430.617 78.8762C430.617 78.8762 430.145 79.4666 429.791 79.624C429.791 79.624 429.162 79.8601 428.69 80.0569C428.533 80.1357 428.415 80.175 428.336 80.2144C428.021 80.4112 427.392 80.9229 426.527 81.159C425.661 81.3952 421.689 82.3004 421.689 82.3004L420.784 79.9389L420.115 78.0496C420.115 78.0496 423.813 73.2871 424.599 72.9329C424.678 72.8936 424.757 72.8542 424.835 72.8542C425.543 72.6574 426.133 72.7755 426.527 72.6968C426.684 72.6574 428.061 72.5 428.375 72.8148C428.808 73.2084 428.926 73.6807 428.847 74.0743C428.847 74.0743 429.634 74.9009 429.713 75.6881C429.713 75.6881 430.46 76.4359 430.263 77.4199C430.224 77.4592 430.893 78.2858 430.617 78.8762Z" fill="#EEA886"/>
<path d="M388.021 109.812C388.925 109.222 390.145 108.435 394.235 106.349C401.905 102.531 411.345 95.5642 413.155 94.5802C415.908 93.0452 424.64 82.3788 424.64 82.3788C424.207 80.7651 420.038 77.5376 420.038 77.5376C420.038 77.5376 406.822 90.0932 403.911 91.6282C401.433 92.9665 389.161 94.3047 385.74 94.6589C385.189 94.6983 384.874 94.7376 384.874 94.7376C381.374 99.5395 386.054 111.072 388.021 109.812Z" fill="#FF9123"/>
<path d="M388.021 109.812C388.925 109.222 390.145 108.435 394.235 106.349C401.905 102.531 411.345 95.5642 413.155 94.5802C415.908 93.0452 424.64 82.3788 424.64 82.3788C424.207 80.7651 420.038 77.5376 420.038 77.5376C420.038 77.5376 406.822 90.0932 403.911 91.6282C401.433 92.9665 389.161 94.3047 385.74 94.6589C385.189 94.6983 384.874 94.7376 384.874 94.7376C381.374 99.5395 386.054 111.072 388.021 109.812Z" fill="#494743"/>
<path d="M386.682 137.6C386.682 137.6 390.419 151.494 391.402 156.492C392.268 160.822 393.998 172.354 394.234 175.109C394.47 177.865 383.182 204.432 382.002 209.195L371.697 207.541C371.697 207.541 382.553 179.911 379.721 173.771C375.512 164.64 374.961 164.915 371.657 157.398C368.353 149.88 360.723 149.683 358.717 135.711C358.717 135.711 383.89 133.192 386.682 137.6Z" fill="#2B2925"/>
<path d="M368.354 70.02C368.354 70.02 375.198 67.4616 378.345 72.6571C381.492 77.8525 381.177 88.2827 377.755 89.5816C374.294 90.8804 369.141 90.2113 367.371 86.9445C365.601 83.6777 364.028 78.9939 364.106 75.8452C364.185 72.6571 366.584 70.9253 368.354 70.02Z" fill="#EEA886"/>
<path d="M376.613 89.2668C376.613 89.2668 376.337 91.0774 376.809 91.9433C377.281 92.8092 368.196 92.8485 368.196 92.8485C368.196 92.8485 367.448 88.0467 366.072 83.9927C364.656 79.8993 376.613 89.2668 376.613 89.2668Z" fill="#EEA886"/>
<path d="M366.073 83.9927C366.073 83.9927 366.702 85.0161 369.259 84.6225C371.815 84.2289 374.923 80.844 375.985 80.4504C377.047 80.0961 377.047 79.4664 377.047 79.4664L377.715 80.4504L378.856 80.5291C378.856 80.5291 377.833 77.4984 379.367 76.2389C380.941 75.0188 377.755 66.3991 369.573 69.2723C369.573 69.2723 363.28 71.0041 363.516 74.5858C363.752 78.1282 364.657 82.1822 366.073 83.9927Z" fill="#D88A51"/>
<path d="M376.889 78.1285C376.732 77.5381 375.237 75.8063 374.647 77.6562C374.057 79.5061 375.512 81.9463 376.338 81.7495C377.125 81.5527 377.243 79.6635 376.889 78.1285Z" fill="#EEA886"/>
<path d="M350.811 115.401C350.889 116.307 351.912 117.251 352.62 117.763C353.053 118.078 353.603 118.275 354.193 118.275H354.587L361.706 118.511C361.706 118.511 366.976 101.429 357.064 94.9346C356.75 94.9739 350.103 107.175 350.811 115.401Z" fill="#FF9123"/>
<path d="M350.811 115.401C350.889 116.307 351.912 117.251 352.62 117.763C353.053 118.078 353.603 118.275 354.193 118.275H354.587L361.706 118.511C361.706 118.511 366.976 101.429 357.064 94.9346C356.75 94.9739 350.103 107.175 350.811 115.401Z" fill="#494743"/>
<path d="M372.208 217.185C372.798 218.326 376.063 218.129 382.71 218.995C384.519 219.231 385.935 219.349 387.076 219.31L387.469 215.295C385.542 214.626 383.261 213.918 382.395 213.327C380.901 212.265 379.445 210.1 379.445 210.1C375.512 210.061 374.096 209.273 374.096 209.273C374.096 209.273 371.618 216.004 372.208 217.185Z" fill="#494743"/>
<path d="M376.613 91.4315C376.613 91.4315 371.028 90.1326 367.881 91.1953L367.409 91.6283C367.409 91.6283 366.465 93.4782 370.045 93.6356C373.663 93.7537 379.288 94.0292 376.613 91.4315Z" fill="#FFA211"/>
<path d="M354.822 222.105C354.822 222.105 353.996 225.371 353.878 225.883C353.76 226.395 348.607 225.017 348.607 225.017V221.002C348.607 221.002 354.232 221.553 354.822 222.105Z" fill="#2B2925"/>
<path d="M358.716 135.711C358.716 135.711 356.828 143.465 356.278 151.219C355.766 158.382 354.822 166.254 354.075 173.732C353.249 182.076 350.889 195.576 350.771 200.063C350.653 204.55 346.877 224.073 346.877 224.073L356.474 225.175C356.474 225.175 362.728 190.657 364.183 187.154C365.678 183.611 372.994 158.461 373.23 155.666C373.505 152.793 358.716 135.711 358.716 135.711Z" fill="#2B2925"/>
<path d="M353.998 225.45C353.998 225.45 355.453 227.654 356.948 228.678C358.443 229.74 364.264 231.079 365.129 232.102C365.759 232.85 366.585 235.605 357.263 234.345C350.615 233.44 347.351 233.676 346.761 232.535C346.171 231.394 348.649 224.663 348.649 224.663C348.649 224.663 350.025 225.45 353.998 225.45Z" fill="#494743"/>
<path d="M388.611 154.997C389.437 154.879 386.566 130.437 386.802 128.902C386.959 127.878 386.92 119.928 386.88 115.008L387.785 110.009C388.296 109.655 388.965 109.222 389.752 108.789C391.01 108.08 392.544 107.254 394.275 106.388C394.078 105.207 393.921 104.263 393.882 103.712C393.449 99.3033 390.499 96.9811 388.808 95.9971C388.139 95.6035 387.667 95.4067 387.667 95.4067C387.038 95.1312 386.408 94.8557 385.818 94.6196C381.767 92.9665 376.654 91.3921 376.654 91.3921H368.433C368.433 91.3921 362.179 92.6516 358.443 94.1866C357.971 94.3834 357.499 94.6196 357.105 94.9344L358.207 118.393C358.207 118.393 358.207 118.393 358.207 118.432C358.718 121.738 359.229 125.635 359.426 128.351C359.505 129.453 358.207 135.435 357.577 140.945L355.257 154.092C355.178 154.131 356.515 159.562 388.611 154.997Z" fill="#FF9123"/>
<path d="M388.611 154.997C389.437 154.879 386.566 130.437 386.802 128.902C386.959 127.878 386.92 119.928 386.88 115.008L387.785 110.009C388.296 109.655 388.965 109.222 389.752 108.789C391.01 108.08 392.544 107.254 394.275 106.388C394.078 105.207 393.921 104.263 393.882 103.712C393.449 99.3033 390.499 96.9811 388.808 95.9971C388.139 95.6035 387.667 95.4067 387.667 95.4067C387.038 95.1312 386.408 94.8557 385.818 94.6196C381.767 92.9665 376.654 91.3921 376.654 91.3921H368.433C368.433 91.3921 362.179 92.6516 358.443 94.1866C357.971 94.3834 357.499 94.6196 357.105 94.9344L358.207 118.393C358.207 118.393 358.207 118.393 358.207 118.432C358.718 121.738 359.229 125.635 359.426 128.351C359.505 129.453 358.207 135.435 357.577 140.945L355.257 154.092C355.178 154.131 356.515 159.562 388.611 154.997Z" fill="#494743"/>
<path d="M84.0152 322.196L80.2786 228.599H144.706L148.443 322.196H149.19L145.414 227.852H79.5312L83.2679 322.196H84.0152Z" fill="#494743"/>
<path d="M80.9466 228.599H145.413L141.677 322.196H142.424L146.161 227.852H80.2386L76.502 322.196H77.2493L80.9466 228.599Z" fill="#494743"/>
<path d="M142.03 291.771H76.8555L80.5921 197.781H145.767L142.03 291.771Z" fill="#C26C23"/>
<path d="M85.4691 291.771H150.644L146.907 197.781H81.7324L85.4691 291.771Z" fill="#FF9123"/>
<path d="M85.4691 291.771H150.644L146.907 197.781H81.7324L85.4691 291.771Z" fill="url(#paint2_linear_571_246)" fill-opacity="0.5"/>
<path d="M140.144 255.403H136.879V280.357H140.144V255.403Z" fill="#E3F2FF"/>
<path d="M133.692 258.197H130.428V280.357H133.692V258.197Z" fill="#E3F2FF"/>
<path d="M126.651 261.818H123.387V280.317H126.651V261.818Z" fill="#E3F2FF"/>
<path d="M119.413 266.384H116.148V280.318H119.413V266.384Z" fill="#E3F2FF"/>
<path d="M96.6006 263.432L95.8926 263.196L102.068 245.839L115.48 242.296L120.279 223.286L130.624 218.72L132.944 203.921L133.692 204.039L131.292 219.232L120.948 223.797L116.11 242.926L102.658 246.468L96.6006 263.432Z" fill="#E3F2FF"/>
<path d="M117.094 241.076C118.195 242.02 117.959 243.752 116.661 244.421C115.953 244.776 115.049 244.658 114.459 244.146C113.357 243.201 113.593 241.469 114.891 240.8C115.599 240.446 116.504 240.564 117.094 241.076Z" fill="#FFB255"/>
<path d="M117.291 244.461C116.268 245.288 114.773 245.13 113.947 244.107C113.121 243.083 113.279 241.588 114.301 240.761C115.324 239.935 116.819 240.092 117.645 241.115C118.471 242.139 118.313 243.634 117.291 244.461ZM114.734 241.352C114.026 241.903 113.947 242.965 114.498 243.634C115.049 244.343 116.111 244.422 116.779 243.871C117.487 243.32 117.566 242.257 117.015 241.588C116.465 240.879 115.442 240.761 114.734 241.352Z" fill="#E3F2FF"/>
<path d="M122.128 222.302C123.033 223.285 122.757 224.86 121.538 225.49C120.83 225.844 119.925 225.726 119.335 225.214C118.313 224.309 118.431 222.695 119.571 221.987C120.397 221.436 121.499 221.593 122.128 222.302Z" fill="#FFB555"/>
<path d="M122.168 225.49C121.145 226.316 119.65 226.159 118.824 225.136C117.998 224.112 118.156 222.617 119.178 221.79C120.201 220.964 121.696 221.121 122.522 222.144C123.348 223.168 123.19 224.663 122.168 225.49ZM119.65 222.38C118.942 222.931 118.864 223.994 119.414 224.663C119.965 225.372 121.027 225.45 121.696 224.899C122.404 224.348 122.482 223.286 121.932 222.617C121.342 221.908 120.319 221.829 119.65 222.38Z" fill="#E3F2FF"/>
<path d="M132.314 217.579C133.18 218.484 132.983 219.98 131.882 220.649C131.095 221.16 129.994 221.003 129.325 220.294C128.46 219.389 128.656 217.894 129.758 217.224C130.584 216.752 131.685 216.91 132.314 217.579Z" fill="#FFB555"/>
<path d="M132.355 220.806C131.333 221.632 129.838 221.475 129.012 220.452C128.186 219.428 128.343 217.933 129.366 217.106C130.389 216.279 131.883 216.437 132.709 217.46C133.535 218.484 133.378 219.979 132.355 220.806ZM129.799 217.696C129.091 218.247 129.012 219.31 129.563 219.979C130.113 220.688 131.175 220.766 131.844 220.215C132.552 219.664 132.63 218.602 132.08 217.933C131.529 217.224 130.507 217.106 129.799 217.696Z" fill="#E3F2FF"/>
<path d="M103.917 244.972C104.822 245.956 104.547 247.531 103.327 248.161C102.619 248.515 101.715 248.397 101.125 247.885C100.102 246.98 100.22 245.366 101.4 244.658C102.187 244.106 103.288 244.264 103.917 244.972Z" fill="#FFB455"/>
<path d="M103.957 248.2C102.934 249.026 101.439 248.869 100.613 247.846C99.7875 246.822 99.9448 245.327 100.967 244.5C101.99 243.673 103.485 243.831 104.311 244.854C105.137 245.838 104.979 247.334 103.957 248.2ZM101.4 245.051C100.692 245.602 100.613 246.665 101.164 247.334C101.715 248.042 102.777 248.121 103.445 247.57C104.153 247.019 104.232 245.956 103.681 245.287C103.131 244.618 102.108 244.5 101.4 245.051Z" fill="#E3F2FF"/>
<path d="M108.402 226.198H92.4323C91.2916 226.198 90.3477 225.254 90.3477 224.112C90.3477 222.971 91.2916 222.026 92.4323 222.026H108.402C109.542 222.026 110.486 222.971 110.486 224.112C110.486 225.254 109.581 226.198 108.402 226.198Z" fill="#EBEBEB"/>
<path d="M108.402 218.878H92.4323C91.2916 218.878 90.3477 217.933 90.3477 216.792C90.3477 215.65 91.2916 214.706 92.4323 214.706H108.402C109.542 214.706 110.486 215.65 110.486 216.792C110.486 217.972 109.581 218.878 108.402 218.878Z" fill="#EBEBEB"/>
<path d="M51.3696 149.683C51.3696 149.683 56.8762 152.399 55.5389 159.72C54.1622 167.08 53.5722 168.064 55.1062 170.937C56.6402 173.811 58.4495 186.051 57.0728 188.374C55.6962 190.696 40.0417 178.18 37.8784 167.631C35.715 157.122 39.255 152.439 40.5137 150.707C41.733 149.014 46.4923 147.204 51.3696 149.683Z" fill="#2B2925"/>
<path d="M49.284 320.346H50.5426V314.442C50.5426 314.442 52.9813 316.095 54.5546 318.338C56.0886 320.621 58.2126 320.424 61.4379 320.267C64.6632 320.109 64.5058 318.811 64.2305 317C63.9552 315.15 60.6512 314.599 59.6285 314.284C58.5666 314.009 56.1672 309.837 55.3806 308.853C54.3186 307.475 53.7679 306.137 53.7679 306.137C53.7679 306.137 53.1779 303.697 50.1886 306.137C47.1993 308.577 48.0647 313.3 48.4187 313.733C48.694 314.205 49.284 320.346 49.284 320.346Z" fill="#494743"/>
<path d="M55.5771 314.284C56.6784 314.993 59.589 314.284 59.589 314.284C58.763 313.222 53.7284 306.137 53.7284 306.137C50.6605 304.366 49.4805 306.806 49.4805 306.806C50.6998 307.2 54.4758 313.576 55.5771 314.284Z" fill="#FEC0A1"/>
<path d="M87.7511 205.337C87.7511 205.337 89.7571 205.731 90.4257 204.786C91.0157 203.999 92.353 203.369 92.7464 203.173C93.297 202.936 94.6737 201.52 95.0277 202.189C95.3423 202.858 92.8644 204.629 92.3924 205.101C91.9204 205.574 94.8703 205.77 95.3423 206.243C95.8537 206.715 95.2243 211.517 93.2577 211.123C91.291 210.73 89.4031 209.037 89.0491 209.037C88.6951 209.037 87.5938 208.84 87.5938 208.84L87.7511 205.337Z" fill="#FEC0A1"/>
<path d="M94.9109 206.046C94.9109 206.046 100.89 207.581 101.204 208.014C101.519 208.447 101.401 208.762 100.85 208.644C100.3 208.526 95.0289 207.305 95.0289 207.305C95.0289 207.305 101.794 210.336 102.148 210.651C102.345 210.808 102.188 211.477 101.873 211.438C101.558 211.399 94.6749 208.801 94.6749 208.801C94.6749 208.801 101.008 211.635 101.204 211.989C101.401 212.265 101.086 212.816 100.614 212.658C100.142 212.461 94.1243 210.179 94.1243 210.179C94.1243 210.179 98.6082 212.54 98.6082 212.934C98.6082 213.17 98.4902 213.721 97.3496 213.091C96.2089 212.461 93.377 211.202 93.377 211.202L94.9109 206.046Z" fill="#FEC0A1"/>
<path d="M33.0406 320.739H33.8273V316.41C33.8273 316.41 35.2039 317.827 35.8333 319.873C36.4626 321.959 38.7046 322.55 42.1265 322.471C45.5485 322.392 45.5878 321.015 45.3125 319.007C45.0372 317 42.1265 315.937 42.1265 315.937C40.8285 314.796 37.6032 309.994 37.6032 309.994C37.6032 309.994 35.5186 309.443 33.9059 310.742C32.2933 312.041 32.8046 315.032 32.8439 315.78C32.8439 316.567 33.0406 320.739 33.0406 320.739Z" fill="#494743"/>
<path d="M35.4002 217.46C35.4002 217.46 31.3096 222.774 30.2083 229.032C29.1069 235.329 30.8769 256.426 30.7983 259.535C30.7589 262.645 27.8483 270.359 28.4383 276.224C29.0283 282.088 31.3096 311.214 31.3096 311.214L37.5635 309.994C37.5635 309.994 37.2095 280.317 37.5635 277.837C37.9175 275.397 38.6648 266.423 38.7828 265.4C38.9402 264.376 47.9474 237.809 47.9474 233.283C47.9868 228.756 45.2334 210.1 35.4002 217.46Z" fill="#2B2925"/>
<path d="M55.8538 219.546C55.8538 219.546 62.5404 245.091 63.3271 248.633C64.1137 252.175 65.2544 255.088 65.2544 256.583C65.2544 260.086 63.9564 265.675 63.9564 265.675L55.4605 306.334H47.3579C47.3579 306.334 51.8812 281.931 51.9992 277.168C52.1172 272.406 55.8145 265.597 55.0671 263.589C54.3198 261.582 43.4246 238.242 43.4246 238.242C43.4246 238.242 35.2433 212.147 55.8538 219.546Z" fill="#2B2925"/>
<path d="M42.0858 315.937L37.5625 309.994L33.8652 310.741C33.8652 310.741 34.8486 313.418 36.6579 315.425C38.7818 317.787 42.0858 315.937 42.0858 315.937Z" fill="#FEC0A1"/>
<path d="M53.0988 176.133C53.0988 176.133 55.8521 176.408 57.9368 178.612C60.0214 180.856 61.9881 184.398 62.5387 185.618C63.0894 186.799 70.72 197.859 71.1526 198.095C71.546 198.331 75.4006 199.63 77.9572 200.496C81.8905 201.834 89.7571 204.668 89.7571 204.668L88.1838 209.628C88.1838 209.628 73.3553 204.786 69.658 203.842C65.1347 202.74 54.6721 189.318 54.6721 189.318C54.6721 189.318 46.8449 180.187 53.0988 176.133Z" fill="#FF9123"/>
<path d="M53.0988 176.133C53.0988 176.133 55.8521 176.408 57.9368 178.612C60.0214 180.856 61.9881 184.398 62.5387 185.618C63.0894 186.799 70.72 197.859 71.1526 198.095C71.546 198.331 75.4006 199.63 77.9572 200.496C81.8905 201.834 89.7571 204.668 89.7571 204.668L88.1838 209.628C88.1838 209.628 73.3553 204.786 69.658 203.842C65.1347 202.74 54.6721 189.318 54.6721 189.318C54.6721 189.318 46.8449 180.187 53.0988 176.133Z" fill="url(#paint3_linear_571_246)" fill-opacity="0.5"/>
<path d="M48.3019 174.204C48.3019 174.204 51.8812 175.897 53.1005 176.133C54.3592 176.369 59.1578 182.627 59.9838 184.91C60.8098 187.193 59.9838 190.617 58.2531 194.632C56.5225 198.646 58.1351 199.984 57.3485 203.999C56.5618 208.014 56.7978 223.088 56.9551 225.292C57.1125 227.536 33.7094 230.921 29.1074 226.827C29.1074 226.827 32.2147 213.249 35.912 209.391C36.6987 208.565 36.62 202.976 36.0693 201.598C35.5187 200.221 29.3828 189.83 29.3828 189.83C29.3828 189.83 28.9501 179.321 31.6247 177.235C33.9454 175.424 40.3173 174.794 41.458 174.362C42.638 174.007 45.9419 173.85 48.3019 174.204Z" fill="#494743"/>
<path d="M49.9923 170.072C49.9923 170.072 49.8743 171.055 49.7563 172.394C49.717 172.905 49.6383 173.496 49.599 174.086C49.4416 175.857 49.3236 177.786 49.4023 178.77C49.4023 178.77 45.705 182.509 41.457 174.44C41.457 174.44 43.227 171.095 41.8897 166.569C40.5917 162.042 49.9923 170.072 49.9923 170.072Z" fill="#EAAC8D"/>
<path d="M60.3752 196.127C60.3752 196.127 61.2798 190.184 60.3358 186.563C60.3358 186.563 60.3358 189.672 58.6445 194.081L60.3752 196.127Z" fill="black" fill-opacity="0.2"/>
<path d="M38.6641 174.991C38.6641 174.991 41.2207 182.548 48.222 181.997C55.2232 181.446 51.5653 175.621 51.5653 175.621C51.5653 175.621 49.8346 174.637 49.3233 174.519C48.812 174.44 41.5747 174.322 41.5747 174.322L38.6641 174.991Z" fill="#EAAC8D"/>
<path d="M51.5254 175.621C51.5254 175.621 55.1834 185.776 55.1834 196.167C55.1834 206.518 55.498 223.403 56.7567 228.756C58.0547 234.07 61.6733 250.561 61.6733 250.561L64.5446 249.066C64.5446 249.066 57.6613 222.774 57.15 220.845C56.6387 218.916 57.5433 198.922 58.0547 197.229C58.566 195.537 60.6506 188.098 60.336 186.012C59.9426 183.414 57.4647 179.518 53.5314 176.211L51.5254 175.621Z" fill="#FF9123"/>
<path d="M51.5254 175.621C51.5254 175.621 55.1834 185.776 55.1834 196.167C55.1834 206.518 55.498 223.403 56.7567 228.756C58.0547 234.07 61.6733 250.561 61.6733 250.561L64.5446 249.066C64.5446 249.066 57.6613 222.774 57.15 220.845C56.6387 218.916 57.5433 198.922 58.0547 197.229C58.566 195.537 60.6506 188.098 60.336 186.012C59.9426 183.414 57.4647 179.518 53.5314 176.211L51.5254 175.621Z" fill="url(#paint4_linear_571_246)" fill-opacity="0.5"/>
<path d="M40.0404 174.677C40.0404 174.677 42.3217 181.998 43.4624 191.365C44.603 200.733 39.9224 244.225 36.7365 254.104L24.5039 252.136C24.5039 252.136 27.1392 221.396 30.7185 215.807C34.2978 210.218 35.4385 205.259 31.5838 193.609C27.7292 181.919 33.2752 176.133 33.2752 176.133C33.2752 176.133 38.9784 174.795 40.0404 174.677Z" fill="#FF9123"/>
<path d="M40.0404 174.677C40.0404 174.677 42.3217 181.998 43.4624 191.365C44.603 200.733 39.9224 244.225 36.7365 254.104L24.5039 252.136C24.5039 252.136 27.1392 221.396 30.7185 215.807C34.2978 210.218 35.4385 205.259 31.5838 193.609C27.7292 181.919 33.2752 176.133 33.2752 176.133C33.2752 176.133 38.9784 174.795 40.0404 174.677Z" fill="url(#paint5_linear_571_246)" fill-opacity="0.5"/>
<path d="M53.2172 205.691L38.3887 231.393L21.9082 221.868L36.1074 195.773L53.2172 205.691Z" fill="#616161"/>
<path d="M51.4471 206.557L38.2705 229.386L23.6387 220.924L36.2252 197.78L51.4471 206.557Z" fill="#E0CEC7"/>
<path d="M46.5695 204.511L47.5135 202.897L41.5742 199.512L40.4336 200.969L46.5695 204.511Z" fill="#616161"/>
<path d="M45.8615 222.774C45.8615 222.774 45.1928 222.774 44.8782 222.616C44.8782 222.616 44.3669 222.301 43.9735 222.105C43.8555 222.026 43.7375 221.986 43.6589 221.986C43.3442 221.868 42.6755 221.75 42.0069 221.278C41.3382 220.806 39.0176 218.129 39.0176 218.129L40.1189 216.476L40.9056 214.784C40.9056 214.784 45.7828 215.099 46.4515 215.453C46.5302 215.492 46.5695 215.532 46.6482 215.571C47.1595 215.925 47.4348 216.397 47.6708 216.634C47.7495 216.712 48.6541 217.578 48.6148 217.932C48.5755 218.444 48.3395 218.759 48.0248 218.956C48.0248 218.956 47.9068 219.94 47.3955 220.412C47.3955 220.412 47.3168 221.317 46.5302 221.75C46.6088 221.711 46.4122 222.616 45.8615 222.774Z" fill="#FEC0A1"/>
<path d="M35.8322 176.133C35.8322 176.133 31.3483 174.834 28.7523 179.793C26.1563 184.753 26.1957 186.878 25.8417 189.318C25.527 191.601 24.0324 197.859 23.9144 198.489C23.757 199.119 20.4531 206.833 21.9477 209.51C23.4817 212.225 39.0575 220.176 38.9789 220.766C38.8609 221.357 41.6928 214.744 41.6928 214.744C41.6928 214.744 35.3996 211.241 34.3376 210.139C32.6463 208.368 29.1063 206.479 29.8536 204.314C30.719 201.756 33.2756 193.097 33.8656 191.837C34.4162 190.578 39.6082 177.747 35.8322 176.133Z" fill="#FF9123"/>
<path d="M35.8322 176.133C35.8322 176.133 31.3483 174.834 28.7523 179.793C26.1563 184.753 26.1957 186.878 25.8417 189.318C25.527 191.601 24.0324 197.859 23.9144 198.489C23.757 199.119 20.4531 206.833 21.9477 209.51C23.4817 212.225 39.0575 220.176 38.9789 220.766C38.8609 221.357 41.6928 214.744 41.6928 214.744C41.6928 214.744 35.3996 211.241 34.3376 210.139C32.6463 208.368 29.1063 206.479 29.8536 204.314C30.719 201.756 33.2756 193.097 33.8656 191.837C34.4162 190.578 39.6082 177.747 35.8322 176.133Z" fill="url(#paint6_linear_571_246)" fill-opacity="0.5"/>
<path d="M50.5418 150.51C50.5418 150.51 58.5657 153.029 54.1998 166.883C49.8338 180.738 38.8993 165.269 40.0399 156.846C41.2199 148.384 50.5418 150.51 50.5418 150.51Z" fill="#FEC0A1"/>
<path d="M55.027 158.578C55.027 158.578 51.0544 162.475 44.3678 162.987C44.3678 162.987 41.8111 165.978 41.6145 167.159C41.6145 167.159 35.6752 157.004 42.9911 150.943C50.307 144.881 57.741 156.099 55.027 158.578Z" fill="#2B2925"/>
<path d="M44.485 163.262C44.4457 162.239 43.8164 159.956 42.3217 160.586C40.8271 161.215 42.4004 165.899 43.423 165.624C43.3837 165.624 44.603 165.663 44.485 163.262Z" fill="#FEC0A1"/>
<path d="M49.7565 172.394C49.7172 172.905 49.6385 173.496 49.5992 174.086C49.5992 174.086 46.0592 173.889 43.6992 168.615C43.8566 168.851 46.4525 172.63 49.7565 172.394Z" fill="#A77860"/>
<path d="M549.731 260.182H522.119V261.835H549.731V260.182Z" fill="#E2D2CA"/>
<path d="M546.073 266.085H543.635V340.711H546.073V266.085Z" fill="#706865"/>
<path d="M526.446 259.709H507.252V262.071H526.446V259.709Z" fill="#CCBDB7"/>
<path d="M520.507 239.715H513.23V261.795H520.507V239.715Z" fill="#CCBDB7"/>
<path d="M559.643 261.834H453.287V266.085H559.643V261.834Z" fill="#B59074"/>
<path d="M580.058 236.172C580.058 236.172 581.238 252.506 578.052 254.435C576.046 255.655 568.101 259.788 568.337 260.575C568.573 261.362 572.821 267.463 572.821 267.463C572.821 267.463 588.122 257.387 588.594 254.199C589.066 251.089 587.846 230.308 585.722 229.324C584.149 228.615 583.323 229.206 581.317 230.662C578.564 232.748 580.058 236.172 580.058 236.172Z" fill="#FF9123"/>
<path d="M580.058 236.172C580.058 236.172 581.238 252.506 578.052 254.435C576.046 255.655 568.101 259.788 568.337 260.575C568.573 261.362 572.821 267.463 572.821 267.463C572.821 267.463 588.122 257.387 588.594 254.199C589.066 251.089 587.846 230.308 585.722 229.324C584.149 228.615 583.323 229.206 581.317 230.662C578.564 232.748 580.058 236.172 580.058 236.172Z" fill="url(#paint7_linear_571_246)" fill-opacity="0.5"/>
<path d="M552.208 240.817L550.871 240.305C550.871 240.305 552.562 236.369 553.27 236.448C554.096 236.566 555.158 236.842 555.158 236.842L552.208 240.817Z" fill="#EAD8CF"/>
<path d="M551.895 241.486C552.052 241.368 554.766 236.172 554.766 236.172L560.509 236.96L557.401 243.1L551.895 241.486Z" fill="#DA9B5B"/>
<path d="M561.256 330.517C561.256 330.517 561.728 333.823 561.807 334.334C561.885 334.846 567.116 334.059 567.116 334.059L567.549 330.123C567.51 330.084 561.925 330.044 561.256 330.517Z" fill="#424773"/>
<path d="M561.727 333.862C561.727 333.862 560.075 335.87 558.463 336.736C556.85 337.601 554.333 337.956 553.389 338.861C552.72 339.491 550.911 342.285 557.558 342.246C564.205 342.206 567.43 342.639 568.138 341.577C568.846 340.514 567.116 333.666 567.116 333.666C567.116 333.666 565.542 334.217 561.727 333.862Z" fill="#494743"/>
<path d="M527.744 330.517C527.744 330.517 528.216 333.823 528.295 334.334C528.373 334.846 533.605 334.059 533.605 334.059L534.037 330.123C533.998 330.123 528.373 330.084 527.744 330.517Z" fill="#424773"/>
<path d="M528.217 333.901C528.217 333.901 526.565 335.909 524.952 336.775C523.34 337.641 517.44 338.349 516.496 339.254C515.827 339.884 514.686 342.521 524.048 342.285C530.695 342.128 533.92 342.679 534.628 341.616C535.336 340.553 533.606 333.705 533.606 333.705C533.606 333.705 532.111 334.295 528.217 333.901Z" fill="#494743"/>
<path d="M578.129 273.446C578.129 273.446 559.131 276.673 554.805 277.342C550.517 278.011 527.232 283.797 524.322 285.568C522.001 286.985 525.541 320.756 526.367 333.626H535.532L536.2 294.975C547.213 295.251 555.08 292.417 563.065 293.598C571.089 294.818 577.775 296.55 582.849 289.701C582.849 289.741 583.046 274.941 578.129 273.446Z" fill="#2B2925"/>
<path d="M559.369 333.704L568.297 333.153L569.163 295.014C573.883 295.132 575.535 294.817 579.35 294.385L586.548 277.578C580.215 278.838 559.959 283.954 557.245 285.607C555.003 286.985 558.543 320.795 559.369 333.704Z" fill="#2B2925"/>
<path d="M569.359 202.127C569.359 202.127 562.397 200.198 559.723 205.629C557.048 211.061 558.267 221.294 561.768 222.278C565.269 223.262 570.343 222.121 571.798 218.775C573.253 215.391 574.433 210.628 574.079 207.519C573.765 204.37 571.208 202.835 569.359 202.127Z" fill="#EEA886"/>
<path d="M563.616 221.176C563.616 221.176 563.695 225.309 563.223 226.175C562.751 227.041 572.938 226.844 572.938 226.844C572.938 226.844 571.325 221.885 572.23 217.673C573.174 213.501 563.616 221.176 563.616 221.176Z" fill="#EEA886"/>
<path d="M572.82 216.099C572.82 216.099 572.269 217.201 569.634 217.044C566.999 216.847 563.537 213.698 562.436 213.423C561.335 213.147 561.256 212.517 561.256 212.517L560.666 213.58L559.525 213.738C559.525 213.738 560.312 210.549 558.621 209.447C556.929 208.345 559.368 199.293 567.943 201.497C567.943 201.497 574.472 202.678 574.59 206.338C574.629 209.92 574.079 214.17 572.82 216.099Z" fill="#5D5B57"/>
<path d="M562.711 226.057C562.711 226.057 562.75 224.365 563.498 224.207C564.245 224.05 571.482 223.066 572.426 223.42L572.819 225.624C572.819 225.624 571.01 226.766 562.711 226.057Z" fill="#E2D2CA"/>
<path d="M560.627 211.73C560.823 210.353 562.397 208.778 563.262 210.904C564.167 213.029 562.672 216.178 561.649 215.981C560.666 215.824 560.351 213.58 560.627 211.73Z" fill="#EEA886"/>
<path d="M532.426 245.895C532.426 245.895 532.426 245.854 532.426 245.895C532.384 245.895 532.384 245.895 532.426 245.895Z" fill="#323657"/>
<path d="M571.404 203.111C571.404 203.111 579.9 202.717 572.899 215.981L571.404 203.111Z" fill="#5D5B57"/>
<path d="M590.323 338.192L589.693 340.002L562.986 331.697L564.284 328.116L590.323 338.192Z" fill="#918783"/>
<path d="M565.111 301.391H562.082V330.438H565.111V301.391Z" fill="#918783"/>
<path d="M572.545 299.816H554.648V301.548H572.545V299.816Z" fill="#5E5854"/>
<path d="M536.594 338.192L537.262 340.002L563.969 331.697L562.789 327.879L536.594 338.192Z" fill="#918783"/>
<path d="M555.436 339.805V341.852L563.971 331.697L562.791 327.879L555.436 339.805Z" fill="#918783"/>
<path d="M534.196 340.12C533.802 341.931 535.376 343.544 537.185 343.111C538.09 342.915 538.837 342.167 539.034 341.262C539.427 339.451 537.854 337.837 536.044 338.27C535.14 338.467 534.392 339.215 534.196 340.12Z" fill="#BFB2AC"/>
<path d="M555.278 340.12C554.884 341.931 556.458 343.544 558.267 343.111C559.172 342.915 559.919 342.167 560.116 341.262C560.509 339.451 558.936 337.837 557.126 338.27C556.222 338.467 555.474 339.215 555.278 340.12Z" fill="#BFB2AC"/>
<path d="M587.924 340.12C587.531 341.931 589.104 343.544 590.913 343.111C591.818 342.915 592.565 342.167 592.762 341.262C593.155 339.451 591.582 337.837 589.773 338.27C588.868 338.467 588.121 339.215 587.924 340.12Z" fill="#BFB2AC"/>
<path d="M545.483 299.816H581.433C583.243 299.816 584.659 298.36 584.659 296.589C584.659 294.778 583.203 293.361 581.433 293.361H545.483C543.674 293.361 542.258 294.818 542.258 296.589C542.258 298.36 543.713 299.816 545.483 299.816Z" fill="#E2D2CA"/>
<path d="M469.335 266.085H466.896V340.711H469.335V266.085Z" fill="#706865"/>
<path d="M490.653 250.342H543.044C545.916 250.342 548.236 248.019 548.236 245.146V211.218C548.236 208.345 545.916 206.023 543.044 206.023H490.653C487.782 206.023 485.461 208.345 485.461 211.218V245.146C485.461 248.019 487.782 250.342 490.653 250.342Z" fill="#F2E2D9"/>
<path d="M545.798 208.424H487.939V243.414H545.798V208.424Z" fill="#F5F7FF"/>
<path d="M514.883 245.737C514.568 247.232 515.827 248.492 517.321 248.177C518.069 248.019 518.659 247.429 518.816 246.681C519.131 245.186 517.872 243.926 516.377 244.241C515.63 244.398 515.04 244.989 514.883 245.737Z" fill="#918681"/>
<path d="M503.869 261.874V261.087C503.869 261.087 504.97 256.167 512.798 256.167C520.625 256.167 520.468 261.874 520.468 261.874H503.869Z" fill="#E2D2CA"/>
<path d="M520.586 256.915C520.586 256.915 518.894 256.797 518.265 256.403C517.636 256.01 513.899 253.53 513.034 253.924C512.169 254.317 506.308 256.128 506.544 256.954C506.741 257.82 507.291 257.741 507.685 257.584C508.078 257.427 512.326 256.561 512.719 256.679C512.719 256.679 508.55 258.214 508.55 259.316C508.55 260.418 509.415 260.693 509.809 261.126C510.202 261.559 510.674 262.583 511.736 262.661C512.798 262.74 518.029 260.929 519.13 260.851C520.192 260.772 522.198 260.929 522.356 260.733C522.434 260.575 520.586 256.915 520.586 256.915Z" fill="#EEA886"/>
<path d="M551.579 228.379C557.007 227.435 562.71 226.057 562.71 226.057L572.819 225.664C572.819 225.664 582.102 227.71 585.759 229.363C586.113 229.521 586.114 237.629 587.057 239.794L584.029 246.17C584.029 246.17 582.298 258.843 581.905 264.472C581.748 267.07 582.377 289.465 582.377 289.465C582.377 289.465 581.472 289.898 574.589 290.685C567.706 291.433 550.439 290.41 550.36 289.583C550.242 288.757 553.703 259.237 553.861 257.702C554.097 255.341 553.192 244.517 553.192 244.517C551.894 246.249 548.59 254.16 545.129 257.899C543.083 260.103 533.053 261.481 531.126 261.52C526.996 261.638 519.484 262.465 519.248 262.071C519.09 261.835 518.579 255.38 519.051 255.222C519.484 255.065 533.447 254.278 537.026 252.389C538.324 251.68 542.257 243.139 542.257 243.139C542.257 243.139 548.59 229.718 551.579 228.379Z" fill="#FF9123"/>
<path d="M551.579 228.379C557.007 227.435 562.71 226.057 562.71 226.057L572.819 225.664C572.819 225.664 582.102 227.71 585.759 229.363C586.113 229.521 586.114 237.629 587.057 239.794L584.029 246.17C584.029 246.17 582.298 258.843 581.905 264.472C581.748 267.07 582.377 289.465 582.377 289.465C582.377 289.465 581.472 289.898 574.589 290.685C567.706 291.433 550.439 290.41 550.36 289.583C550.242 288.757 553.703 259.237 553.861 257.702C554.097 255.341 553.192 244.517 553.192 244.517C551.894 246.249 548.59 254.16 545.129 257.899C543.083 260.103 533.053 261.481 531.126 261.52C526.996 261.638 519.484 262.465 519.248 262.071C519.09 261.835 518.579 255.38 519.051 255.222C519.484 255.065 533.447 254.278 537.026 252.389C538.324 251.68 542.257 243.139 542.257 243.139C542.257 243.139 548.59 229.718 551.579 228.379Z" fill="url(#paint8_linear_571_246)" fill-opacity="0.5"/>
<path d="M575.336 288.796H584.658C590.165 288.796 594.649 284.309 594.649 278.798V258.214C594.649 252.703 590.165 248.216 584.658 248.216H575.336C569.83 248.216 565.346 252.703 565.346 258.214V278.798C565.346 284.309 569.79 288.796 575.336 288.796Z" fill="#E2D2CA"/>
<path d="M570.538 298.203C574.865 298.203 578.365 296.746 580.922 293.912C586.783 287.458 585.721 276.083 585.681 275.61C585.603 274.705 584.777 274.075 583.911 274.154C583.007 274.233 582.377 275.059 582.456 275.925C582.456 276.043 583.4 286.355 578.523 291.708C576.556 293.873 573.921 294.936 570.538 294.936C569.633 294.936 568.925 295.684 568.925 296.55C568.886 297.494 569.633 298.203 570.538 298.203Z" fill="#E2D2CA"/>
<path d="M525.462 213.068H540.92C541.313 213.068 541.667 212.753 541.667 212.32V211.966C541.667 211.572 541.353 211.218 540.92 211.218H525.462C525.069 211.218 524.715 211.533 524.715 211.966V212.32C524.715 212.753 525.069 213.068 525.462 213.068Z" fill="#DFE1E8"/>
<path d="M525.462 217.044H540.92C541.313 217.044 541.667 216.729 541.667 216.296V215.942C541.667 215.548 541.353 215.194 540.92 215.194H525.462C525.069 215.194 524.715 215.509 524.715 215.942V216.296C524.715 216.689 525.069 217.044 525.462 217.044Z" fill="#DFE1E8"/>
<path d="M527.232 240.62H539.189C540.566 240.62 541.707 239.518 541.707 238.101V222.2C541.707 220.822 540.605 219.681 539.189 219.681H527.232C525.856 219.681 524.715 220.783 524.715 222.2V238.101C524.715 239.518 525.856 240.62 527.232 240.62Z" fill="#DFE1E8"/>
<path d="M495.098 240.62H517.36C519.563 240.62 521.333 238.849 521.333 236.645V215.154C521.333 212.95 519.563 211.179 517.36 211.179H495.098C492.895 211.179 491.125 212.95 491.125 215.154V236.645C491.125 238.849 492.895 240.62 495.098 240.62Z" fill="#DFE1E8"/>
<path d="M183.676 202.696L167.786 211.473L151.816 186.283L171.129 179.592L183.676 202.696Z" fill="#494743"/>
<path d="M182.693 201.948L167.786 210.135L152.879 186.598L170.933 180.34L182.693 201.948Z" fill="#F6F6F6"/>
<path d="M188.12 197.54C188.12 197.54 185.367 196.202 184.148 195.533C182.928 194.824 179.821 193.88 179.546 193.644C179.31 193.407 170.263 192.856 169.713 192.384C169.162 191.912 168.651 193.486 170.971 193.998C173.292 194.51 176.557 195.769 176.753 196.674C176.95 197.58 174.354 197.816 174.079 198.564C173.803 199.311 174.157 199.154 174.511 199.311C174.865 199.469 177.579 197.973 178.759 198.406C179.939 198.839 181.748 198.249 182.653 198.564C183.558 198.878 188.002 200.374 188.002 200.374L188.12 197.54Z" fill="#EEA886"/>
<path d="M167 208.325C167 208.325 164.679 206.239 163.539 205.333C162.398 204.467 160.313 201.87 159.999 201.712C159.684 201.555 155.633 193.289 155.003 192.935C154.335 192.62 155.633 191.479 157.009 193.486C158.386 195.494 160.864 198.052 161.769 197.894C162.713 197.698 161.887 195.179 162.516 194.667C163.106 194.116 163.106 194.51 163.381 194.785C163.696 195.061 163.303 198.209 164.168 199.154C165.033 200.099 165.191 202.027 165.82 202.775C166.449 203.523 169.596 207.105 169.596 207.105L167 208.325Z" fill="#EEA886"/>
<path d="M217.109 320.302C217.109 320.302 217.621 323.805 217.66 324.317C217.739 324.828 223.245 324.002 223.245 324.002L223.678 319.83C223.717 319.869 217.817 319.83 217.109 320.302Z" fill="#424773"/>
<path d="M217.62 323.883C217.62 323.883 215.85 326.009 214.158 326.914C212.467 327.819 209.792 328.213 208.809 329.157C208.101 329.827 206.174 332.779 213.214 332.739C220.255 332.66 223.677 333.172 224.424 332.031C225.171 330.889 223.323 323.687 223.323 323.687C223.323 323.687 221.671 324.277 217.62 323.883Z" fill="#494743"/>
<path d="M177.461 320.302C177.461 320.302 177.972 323.805 178.012 324.317C178.09 324.828 183.597 324.002 183.597 324.002L184.03 319.83C184.069 319.869 178.13 319.83 177.461 320.302Z" fill="#424773"/>
<path d="M177.972 323.883C177.972 323.883 176.202 326.009 174.511 326.914C172.82 327.819 166.566 328.567 165.582 329.551C164.874 330.22 163.655 333.015 173.567 332.739C180.607 332.542 184.029 333.172 184.777 332.031C185.524 330.889 183.675 323.687 183.675 323.687C183.675 323.687 182.063 324.316 177.972 323.883Z" fill="#494743"/>
<path d="M212.547 230.484C212.547 230.484 217.739 238.749 217.345 246.228C216.952 253.706 219.233 261.853 220.02 269.686C220.885 278.384 224.465 299.008 224.583 303.653C224.701 308.297 224.032 323.175 224.032 323.175L216.913 323.333C216.913 323.333 210.934 287.279 209.361 283.619C207.827 279.959 200.118 253.745 199.842 250.793C199.567 247.881 212.547 230.484 212.547 230.484Z" fill="#2B2925"/>
<path d="M185.132 231.625C185.132 231.625 181.199 252.131 180.687 256.697C180.176 261.263 179.822 278.856 179.547 281.69C179.271 284.563 177.816 319.121 176.439 323.372H185.565C185.565 323.372 192.566 298.26 192.566 286.374C192.566 274.487 197.994 260.515 201.455 252.682C204.956 244.85 212.94 244.653 215.104 230.09C215.143 230.051 188.043 226.981 185.132 231.625Z" fill="#2B2925"/>
<path d="M203.854 160.936C203.854 160.936 196.852 158.338 193.666 163.651C190.441 168.965 190.756 179.631 194.296 180.93C197.796 182.229 203.106 181.56 204.916 178.214C206.725 174.869 208.337 170.067 208.259 166.879C208.141 163.651 205.702 161.88 203.854 160.936Z" fill="#FEC0A1"/>
<path d="M195.003 181.166C195.003 181.166 195.278 183.056 194.806 184C194.334 184.945 203.853 184.945 203.853 184.945C203.853 184.945 204.639 179.907 206.095 175.617C207.55 171.327 195.003 181.166 195.003 181.166Z" fill="#FEC0A1"/>
<path d="M206.097 175.617C206.097 175.617 205.428 176.719 202.753 176.286C200.079 175.853 196.814 172.311 195.673 171.917C194.572 171.524 194.533 170.854 194.533 170.854L193.825 171.878L192.645 171.956C192.645 171.956 193.746 168.768 192.094 167.469C190.442 166.171 193.785 157.118 202.399 160.149C202.399 160.149 209.007 161.959 208.771 165.738C208.575 169.477 207.591 173.767 206.097 175.617Z" fill="#494743"/>
<path d="M194.256 183.883C194.256 183.883 194.295 182.111 195.082 181.954C195.868 181.797 203.971 181.009 204.954 181.403V183.489C204.954 183.45 203.066 184.63 194.256 183.883Z" fill="#E2D2CA"/>
<path d="M194.729 169.477C194.886 168.847 196.499 167.037 197.089 168.965C197.718 170.894 196.145 173.491 195.319 173.255C194.454 173.058 194.375 171.091 194.729 169.477Z" fill="#FEC0A1"/>
<path d="M162.242 204.861C162.161 204.901 162.161 204.901 162.242 204.861V204.861Z" fill="#323657"/>
<path d="M218.408 250.203C218.408 250.203 214.12 251.462 206.804 252.289C199.489 253.076 181.238 252.013 181.159 251.147C181.041 250.281 185.093 218.991 184.857 217.377C184.621 215.763 184.503 210.017 184.503 210.017C184.424 211.591 182.811 218.007 180.884 221.51C180.176 222.769 177.855 226.744 176.715 225.839C171.247 221.47 162.791 205.018 162.24 204.861C162.673 204.664 166.252 203.011 166.764 202.853C167.196 202.696 171.129 206.868 173.529 209.466C174.591 210.607 175.338 211.473 175.338 211.473C176.046 209.938 178.524 200.138 179.311 196.753C181.081 189.117 180.805 188.802 180.805 188.802C186.155 187.188 194.257 183.882 194.257 183.882L204.956 183.449C204.956 183.449 214.789 185.614 218.644 187.346C218.998 187.503 218.998 196.123 220.02 198.366L216.795 205.136C216.795 205.136 214.946 218.558 214.553 224.501C214.396 227.256 218.408 250.203 218.408 250.203Z" fill="#FF9123"/>
<path d="M218.408 250.203C218.408 250.203 214.12 251.462 206.804 252.289C199.489 253.076 181.238 252.013 181.159 251.147C181.041 250.281 185.093 218.991 184.857 217.377C184.621 215.763 184.503 210.017 184.503 210.017C184.424 211.591 182.811 218.007 180.884 221.51C180.176 222.769 177.855 226.744 176.715 225.839C171.247 221.47 162.791 205.018 162.24 204.861C162.673 204.664 166.252 203.011 166.764 202.853C167.196 202.696 171.129 206.868 173.529 209.466C174.591 210.607 175.338 211.473 175.338 211.473C176.046 209.938 178.524 200.138 179.311 196.753C181.081 189.117 180.805 188.802 180.805 188.802C186.155 187.188 194.257 183.882 194.257 183.882L204.956 183.449C204.956 183.449 214.789 185.614 218.644 187.346C218.998 187.503 218.998 196.123 220.02 198.366L216.795 205.136C216.795 205.136 214.946 218.558 214.553 224.501C214.396 227.256 218.408 250.203 218.408 250.203Z" fill="url(#paint9_linear_571_246)" fill-opacity="0.5"/>
<path d="M220.452 209.544C220.177 210.45 218.918 211.197 218.092 211.552C217.581 211.749 216.991 211.827 216.362 211.709L215.929 211.63L208.613 210.253C208.613 210.253 207 191.754 218.643 187.346C218.958 187.464 223.048 201.279 220.452 209.544Z" fill="#FF9123"/>
<path d="M220.452 209.544C220.177 210.45 218.918 211.197 218.092 211.552C217.581 211.749 216.991 211.827 216.362 211.709L215.929 211.63L208.613 210.253C208.613 210.253 207 191.754 218.643 187.346C218.958 187.464 223.048 201.279 220.452 209.544Z" fill="url(#paint10_linear_571_246)" fill-opacity="0.5"/>
<path d="M218.093 211.552C217.582 211.749 216.992 211.828 216.362 211.71L215.93 211.631L216.638 202.185L218.093 211.552Z" fill="black" fill-opacity="0.2"/>
<path d="M175.338 211.473L174.433 215.252C174.433 215.252 173.45 211.434 173.489 209.466C174.591 210.647 175.338 211.473 175.338 211.473Z" fill="black" fill-opacity="0.2"/>
<path d="M205.859 161.566C205.859 161.566 215.024 160.424 206.017 175.696L205.859 161.566Z" fill="#494743"/>
<path d="M159.171 184.945L158.227 183.371L165.543 180.812L166.487 182.426L159.171 184.945Z" fill="#494743"/>
<defs>
<linearGradient id="paint0_linear_571_246" x1="428.828" y1="180.728" x2="429.898" y2="183.121" gradientUnits="userSpaceOnUse">
<stop stop-color="#FFCA00"/>
<stop offset="0.791667" stop-color="#FF9000"/>
</linearGradient>
<linearGradient id="paint1_linear_571_246" x1="425.528" y1="185.602" x2="439.579" y2="190.344" gradientUnits="userSpaceOnUse">
<stop stop-color="#FFCA00"/>
<stop offset="0.791667" stop-color="#FF9000"/>
</linearGradient>
<linearGradient id="paint2_linear_571_246" x1="101.222" y1="204.427" x2="144.947" y2="282.04" gradientUnits="userSpaceOnUse">
<stop stop-color="#FFCA00"/>
<stop offset="0.791667" stop-color="#FF9000"/>
</linearGradient>
<linearGradient id="paint3_linear_571_246" x1="61.7291" y1="178.501" x2="73.1913" y2="210.88" gradientUnits="userSpaceOnUse">
<stop stop-color="#FFCA00"/>
<stop offset="0.791667" stop-color="#FF9000"/>
</linearGradient>
<linearGradient id="paint4_linear_571_246" x1="55.2076" y1="180.92" x2="84.3422" y2="193.174" gradientUnits="userSpaceOnUse">
<stop stop-color="#FFCA00"/>
<stop offset="0.791667" stop-color="#FF9000"/>
</linearGradient>
<linearGradient id="paint5_linear_571_246" x1="29.9155" y1="180.293" x2="67.5177" y2="202.223" gradientUnits="userSpaceOnUse">
<stop stop-color="#FFCA00"/>
<stop offset="0.791667" stop-color="#FF9000"/>
</linearGradient>
<linearGradient id="paint6_linear_571_246" x1="27.2545" y1="179.149" x2="51.5499" y2="205.567" gradientUnits="userSpaceOnUse">
<stop stop-color="#FFCA00"/>
<stop offset="0.791667" stop-color="#FF9000"/>
</linearGradient>
<linearGradient id="paint7_linear_571_246" x1="574.091" y1="231.742" x2="594.367" y2="257.748" gradientUnits="userSpaceOnUse">
<stop stop-color="#FFCA00"/>
<stop offset="0.791667" stop-color="#FF9000"/>
</linearGradient>
<linearGradient id="paint8_linear_571_246" x1="538.145" y1="230.279" x2="562.426" y2="291.695" gradientUnits="userSpaceOnUse">
<stop stop-color="#FFCA00"/>
<stop offset="0.791667" stop-color="#FF9000"/>
</linearGradient>
<linearGradient id="paint9_linear_571_246" x1="178.582" y1="188.336" x2="208.441" y2="248.77" gradientUnits="userSpaceOnUse">
<stop stop-color="#FFCA00"/>
<stop offset="0.791667" stop-color="#FF9000"/>
</linearGradient>
<linearGradient id="paint10_linear_571_246" x1="212.15" y1="189.072" x2="225.07" y2="205.434" gradientUnits="userSpaceOnUse">
<stop stop-color="#FFCA00"/>
<stop offset="0.791667" stop-color="#FF9000"/>
</linearGradient>
</defs>
</svg>
